<?xml version="1.0" encoding="utf-8"?><!DOCTYPE svg PUBLIC "-//W3C//DTD SVG 1.1//EN" "http://www.w3.org/Graphics/SVG/1.1/DTD/svg11.dtd"><svg version="1.1" baseProfile="full" xmlns="http://www.w3.org/2000/svg" xmlns:xlink="http://www.w3.org/1999/xlink" xmlns:ev="http://www.w3.org/2001/xml-events"   height="493px"   width="375px" ><path opacity="0.29" fill="rgb( 195, 53, 99 )" d="M370.835,102.999 C370.835,102.999 369.624,99.7160000000003 369.624,99.7160000000003 C370.69,99.3040000000001 371.752,98.8770000000004 372.807,98.4390000000003 C372.807,98.4390000000003 374.102,101.686 374.102,101.686 C373.02,102.14 371.931,102.574 370.835,102.999 ZM363.171,102.004 C364.256,101.653 365.338,101.283 366.414,100.903 C366.414,100.903 367.53,104.22 367.53,104.22 C366.428,104.609 365.317,104.985 364.2,105.35 C364.2,105.35 363.171,102.004 363.171,102.004 ZM356.607,103.926 C357.711,103.632 358.808,103.327 359.903,103.007 C359.903,103.007 360.839,106.38 360.839,106.38 C359.717,106.708 358.591,107.021 357.458,107.322 C357.458,107.322 356.607,103.926 356.607,103.926 ZM351.047,187.545 C352.168,187.277 353.291,186.992 354.413,186.687 C354.413,186.687 355.282,190.041 355.282,190.041 C354.13,190.351 352.974,190.646 351.818,190.924 C351.818,190.924 351.047,187.545 351.047,187.545 ZM349.959,105.49 C351.072,105.262 352.184,105.017 353.29,104.756 C353.29,104.756 354.048,108.179 354.048,108.179 C352.909,108.446 351.765,108.698 350.616,108.932 C350.616,108.932 349.959,105.49 349.959,105.49 ZM344.243,188.989 C345.383,188.778 346.52,188.554 347.654,188.314 C347.654,188.314 348.333,191.714 348.333,191.714 C347.17,191.96 346.005,192.189 344.834,192.404 C344.834,192.404 344.243,188.989 344.243,188.989 ZM343.241,106.677 C344.366,106.513 345.486,106.329 346.604,106.13 C346.604,106.13 347.177,109.588 347.177,109.588 C346.027,109.793 344.871,109.982 343.713,110.154 C343.713,110.154 343.241,106.677 343.241,106.677 ZM337.396,190.052 C338.541,189.907 339.684,189.745 340.828,189.567 C340.828,189.567 341.318,193.001 341.318,193.001 C340.144,193.181 338.965,193.35 337.789,193.498 C337.789,193.498 337.396,190.052 337.396,190.052 ZM335.589,108.762 C336.706,108.475 337.823,108.17 338.94,107.846 C338.94,107.846 339.866,111.184 339.866,111.184 C338.72,111.514 337.569,111.829 336.418,112.127 C336.418,112.127 335.589,108.762 335.589,108.762 ZM330.497,190.744 C331.648,190.66 332.801,190.561 333.949,190.447 C333.949,190.447 334.251,193.902 334.251,193.902 C333.066,194.022 331.883,194.125 330.702,194.212 C330.702,194.212 330.497,190.744 330.497,190.744 ZM328.811,110.323 C329.947,110.092 331.08,109.85 332.21,109.59 C332.21,109.59 332.947,112.977 332.947,112.977 C331.789,113.243 330.628,113.492 329.461,113.727 C329.461,113.727 328.811,110.323 328.811,110.323 ZM323.58,191.055 C324.733,191.034 325.886,190.999 327.039,190.946 C327.039,190.946 327.149,194.417 327.149,194.417 C325.964,194.47 324.78,194.508 323.595,194.529 C323.595,194.529 323.58,191.055 323.58,191.055 ZM321.984,111.504 C323.126,111.34 324.266,111.158 325.407,110.96 C325.407,110.96 325.956,114.384 325.956,114.384 C324.785,114.586 323.609,114.775 322.436,114.943 C322.436,114.943 321.984,111.504 321.984,111.504 ZM316.491,194.467 C316.491,194.467 316.663,190.996 316.663,190.996 C317.818,191.036 318.968,191.062 320.121,191.073 C320.121,191.073 320.04,194.548 320.04,194.548 C318.855,194.537 317.672,194.511 316.491,194.467 ZM315.097,112.315 C316.247,112.212 317.397,112.092 318.544,111.959 C318.544,111.959 318.905,115.408 318.905,115.408 C317.723,115.549 316.542,115.672 315.362,115.779 C315.362,115.779 315.097,112.315 315.097,112.315 ZM309.408,194.016 C309.408,194.016 309.781,190.556 309.781,190.556 C310.923,190.661 312.071,190.748 313.219,190.822 C313.219,190.822 312.946,194.289 312.946,194.289 C311.766,194.215 310.585,194.124 309.408,194.016 ZM308.187,112.746 C309.339,112.704 310.491,112.65 311.644,112.577 C311.644,112.577 311.814,116.046 311.814,116.046 C310.629,116.119 309.447,116.178 308.262,116.219 C308.262,116.219 308.187,112.746 308.187,112.746 ZM302.369,193.187 C302.369,193.187 302.917,189.748 302.917,189.748 C304.055,189.913 305.197,190.063 306.339,190.198 C306.339,190.198 305.879,193.649 305.879,193.649 C304.704,193.51 303.534,193.355 302.369,193.187 ZM301.158,116.28 C301.158,116.28 301.27,112.806 301.27,112.806 C302.425,112.826 303.576,112.832 304.729,112.823 C304.729,112.823 304.707,116.299 304.707,116.299 C303.522,116.309 302.339,116.303 301.158,116.28 ZM294.432,275.364 C294.432,275.364 295.971,271.534 295.971,271.534 C297.261,272.06 298.545,272.602 299.826,273.161 C299.826,273.161 298.193,276.954 298.193,276.954 C296.944,276.41 295.689,275.875 294.432,275.364 ZM295.313,191.273 C295.313,191.273 295.985,187.833 295.985,187.833 C297.135,188.045 298.283,188.273 299.428,188.518 C299.428,188.518 298.655,191.94 298.655,191.94 C297.543,191.7 296.43,191.479 295.313,191.273 ZM294.068,115.951 C294.068,115.951 294.381,112.485 294.381,112.485 C295.525,112.57 296.674,112.638 297.823,112.692 C297.823,112.692 297.61,116.163 297.61,116.163 C296.429,116.109 295.246,116.039 294.068,115.951 ZM288.57,190.218 C288.57,190.218 289.056,186.745 289.056,186.745 C290.217,186.894 291.377,187.059 292.534,187.243 C292.534,187.243 291.947,190.697 291.947,190.697 C290.825,190.521 289.698,190.361 288.57,190.218 ZM287.015,115.243 C287.015,115.243 287.504,111.796 287.504,111.796 C288.645,111.941 289.79,112.071 290.933,112.186 C290.933,112.186 290.534,115.645 290.534,115.645 C289.356,115.527 288.184,115.391 287.015,115.243 ZM292.074,270.013 C292.074,270.013 290.629,273.879 290.629,273.879 C289.359,273.4 288.081,272.939 286.795,272.5 C286.795,272.5 288.124,268.584 288.124,268.584 C289.448,269.044 290.765,269.514 292.074,270.013 ZM281.764,189.538 C281.764,189.538 282.066,186.049 282.066,186.049 C283.232,186.136 284.396,186.237 285.562,186.353 C285.562,186.353 285.173,189.833 285.173,189.833 C284.036,189.721 282.901,189.622 281.764,189.538 ZM279.928,113.452 C279.928,113.452 280.541,110.001 280.541,110.001 C281.693,110.193 282.846,110.4 283.995,110.626 C283.995,110.626 283.281,114.06 283.281,114.06 C282.165,113.84 281.048,113.639 279.928,113.452 ZM284.139,267.271 C284.139,267.271 282.928,271.224 282.928,271.224 C281.629,270.818 280.323,270.424 279.016,270.051 C279.016,270.051 280.131,266.073 280.131,266.073 C281.472,266.459 282.812,266.857 284.139,267.271 ZM274.929,189.227 C274.929,189.227 275.044,185.728 275.044,185.728 C276.212,185.75 277.384,185.787 278.558,185.837 C278.558,185.837 278.352,189.332 278.352,189.332 C277.213,189.28 276.07,189.247 274.929,189.227 ZM273.167,112.513 C273.167,112.513 273.594,109.032 273.594,109.032 C274.757,109.161 275.92,109.306 277.08,109.47 C277.08,109.47 276.552,112.934 276.552,112.934 C275.427,112.777 274.297,112.637 273.167,112.513 ZM275.075,268.993 C273.756,268.652 272.436,268.333 271.115,268.031 C271.115,268.031 272.006,264 272.006,264 C273.373,264.306 274.732,264.633 276.09,264.984 C276.09,264.984 275.075,268.993 275.075,268.993 ZM268.08,189.294 C268.08,189.294 268.001,185.798 268.001,185.798 C269.174,185.753 270.345,185.727 271.521,185.713 C271.521,185.713 271.508,189.213 271.508,189.213 C270.365,189.225 269.221,189.252 268.08,189.294 ZM266.351,111.951 C266.351,111.951 266.593,108.457 266.593,108.457 C267.76,108.524 268.926,108.605 270.094,108.7 C270.094,108.7 269.764,112.186 269.764,112.186 C268.626,112.094 267.489,112.014 266.351,111.951 ZM260.961,186.258 C262.132,186.15 263.304,186.057 264.477,185.98 C264.477,185.98 264.651,189.473 264.651,189.473 C263.508,189.547 262.368,189.635 261.23,189.741 C261.23,189.741 260.961,186.258 260.961,186.258 ZM259.512,111.758 C259.512,111.758 259.566,108.258 259.566,108.258 C260.734,108.259 261.907,108.276 263.082,108.306 C263.082,108.306 262.936,111.804 262.936,111.804 C261.796,111.772 260.653,111.758 259.512,111.758 ZM253.959,187.091 C255.124,186.92 256.292,186.764 257.46,186.624 C257.46,186.624 257.816,190.099 257.816,190.099 C256.679,190.234 255.542,190.387 254.409,190.553 C254.409,190.553 253.959,187.091 253.959,187.091 ZM252.526,108.449 C253.697,108.383 254.868,108.337 256.044,108.303 C256.044,108.303 256.09,111.803 256.09,111.803 C254.948,111.835 253.805,111.882 252.664,111.943 C252.664,111.943 252.526,108.449 252.526,108.449 ZM246.896,264.569 C246.896,264.569 247.125,260.444 247.125,260.444 C248.523,260.525 249.914,260.63 251.304,260.75 C251.304,260.75 250.966,264.873 250.966,264.873 C249.611,264.754 248.254,264.653 246.896,264.569 ZM246.995,188.311 C248.152,188.073 249.309,187.857 250.471,187.655 C250.471,187.655 251.016,191.099 251.016,191.099 C249.887,191.297 248.761,191.511 247.639,191.739 C247.639,191.739 246.995,188.311 246.995,188.311 ZM245.494,109.03 C246.664,108.901 247.833,108.79 249.005,108.692 C249.005,108.692 249.239,112.181 249.239,112.181 C248.098,112.275 246.959,112.383 245.824,112.508 C245.824,112.508 245.494,109.03 245.494,109.03 ZM240.102,189.913 C241.245,189.613 242.393,189.332 243.538,189.066 C243.538,189.066 244.273,192.471 244.273,192.471 C243.156,192.732 242.04,193.009 240.928,193.297 C240.928,193.297 240.102,189.913 240.102,189.913 ZM238.508,109.984 C239.67,109.793 240.835,109.616 242,109.457 C242,109.457 242.416,112.925 242.416,112.925 C241.281,113.08 240.148,113.252 239.017,113.438 C239.017,113.438 238.508,109.984 238.508,109.984 ZM233.298,191.885 C234.426,191.524 235.555,191.182 236.686,190.852 C236.686,190.852 237.607,194.21 237.607,194.21 C236.502,194.532 235.4,194.868 234.305,195.217 C234.305,195.217 233.298,191.885 233.298,191.885 ZM231.566,111.324 C232.719,111.066 233.872,110.83 235.03,110.608 C235.03,110.608 235.634,114.042 235.634,114.042 C234.509,114.26 233.387,114.493 232.269,114.74 C232.269,114.74 231.566,111.324 231.566,111.324 ZM226.599,194.229 C227.704,193.808 228.818,193.401 229.934,193.011 C229.934,193.011 231.024,196.317 231.024,196.317 C229.94,196.694 228.859,197.09 227.783,197.497 C227.783,197.497 226.599,194.229 226.599,194.229 ZM224.701,113.045 C225.839,112.725 226.982,112.424 228.122,112.138 C228.122,112.138 228.916,115.531 228.916,115.531 C227.803,115.811 226.692,116.107 225.586,116.415 C225.586,116.415 224.701,113.045 224.701,113.045 ZM220.034,196.93 C221.118,196.449 222.205,195.984 223.298,195.534 C223.298,195.534 224.575,198.766 224.575,198.766 C223.508,199.208 222.449,199.66 221.395,200.127 C221.395,200.127 220.034,196.93 220.034,196.93 ZM217.933,115.134 C219.054,114.754 220.177,114.392 221.302,114.043 C221.302,114.043 222.281,117.384 222.281,117.384 C221.181,117.725 220.086,118.08 218.997,118.449 C218.997,118.449 217.933,115.134 217.933,115.134 ZM215.148,203.108 C215.148,203.108 213.615,199.992 213.615,199.992 C214.672,199.454 215.734,198.929 216.805,198.42 C216.805,198.42 218.253,201.576 218.253,201.576 C217.212,202.073 216.177,202.582 215.148,203.108 ZM211.275,117.593 C212.373,117.153 213.479,116.727 214.588,116.318 C214.588,116.318 215.735,119.605 215.735,119.605 C214.658,120.001 213.583,120.415 212.515,120.841 C212.515,120.841 211.275,117.593 211.275,117.593 ZM209.063,206.423 C209.063,206.423 207.361,203.402 207.361,203.402 C208.391,202.803 209.425,202.219 210.465,201.651 C210.465,201.651 212.084,204.723 212.084,204.723 C211.07,205.276 210.062,205.845 209.063,206.423 ZM204.757,120.407 C205.832,119.908 206.912,119.424 207.997,118.955 C207.997,118.955 209.33,122.165 209.33,122.165 C208.27,122.625 207.219,123.095 206.173,123.581 C206.173,123.581 204.757,120.407 204.757,120.407 ZM203.163,210.073 C203.163,210.073 201.299,207.15 201.299,207.15 C202.294,206.498 203.297,205.857 204.306,205.235 C204.306,205.235 206.087,208.211 206.087,208.211 C205.105,208.816 204.131,209.436 203.163,210.073 ZM198.391,123.58 C199.44,123.023 200.492,122.481 201.554,121.952 C201.554,121.952 203.057,125.083 203.057,125.083 C202.024,125.598 200.998,126.125 199.978,126.669 C199.978,126.669 198.391,123.58 198.391,123.58 ZM197.465,214.04 C197.465,214.04 195.443,211.226 195.443,211.226 C196.401,210.52 197.367,209.829 198.344,209.149 C198.344,209.149 200.293,212.013 200.293,212.013 C199.342,212.678 198.399,213.351 197.465,214.04 ZM192.198,127.097 C193.217,126.48 194.241,125.878 195.271,125.293 C195.271,125.293 196.942,128.337 196.942,128.337 C195.938,128.907 194.94,129.493 193.951,130.088 C193.951,130.088 192.198,127.097 192.198,127.097 ZM186.201,130.949 C187.184,130.281 188.177,129.622 189.175,128.983 C189.175,128.983 191.007,131.927 191.007,131.927 C190.035,132.549 189.072,133.186 188.115,133.84 C188.115,133.84 186.201,130.949 186.201,130.949 ZM180.416,135.125 C181.361,134.404 182.316,133.696 183.281,132.999 C183.281,132.999 185.278,135.829 185.278,135.829 C184.339,136.51 183.408,137.2 182.487,137.904 C182.487,137.904 180.416,135.125 180.416,135.125 ZM179.217,183.701 C179.217,183.701 177.082,180.975 177.082,180.975 C177.986,180.248 178.882,179.513 179.768,178.763 C179.768,178.763 181.973,181.436 181.973,181.436 C181.065,182.204 180.146,182.958 179.217,183.701 ZM174.857,139.622 C175.764,138.847 176.682,138.084 177.607,137.337 C177.607,137.337 179.752,140.057 179.752,140.057 C178.853,140.78 177.962,141.521 177.079,142.278 C177.079,142.278 174.857,139.622 174.857,139.622 ZM172.238,147.398 C172.238,147.398 169.996,144.758 169.996,144.758 C170.867,144.002 171.731,143.229 172.586,142.44 C172.586,142.44 174.903,145.012 174.903,145.012 C174.025,145.82 173.136,146.617 172.238,147.398 ZM164.628,149.186 C165.541,148.471 166.446,147.748 167.342,147.009 C167.342,147.009 169.512,149.711 169.512,149.711 C168.594,150.467 167.666,151.209 166.727,151.94 C166.727,151.94 164.628,149.186 164.628,149.186 ZM162.635,71.2060000000001 C162.635,71.2060000000001 162.707,67.6949999999997 162.707,67.6949999999997 C163.879,67.71 165.051,67.7399999999998 166.222,67.7870000000003 C166.222,67.7870000000003 166.052,71.29 166.052,71.29 C164.912,71.2470000000003 163.773,71.2160000000003 162.635,71.2060000000001 ZM161.32,6.96000000000004 C161.32,6.96000000000004 162.048,3.36300000000028 162.048,3.36300000000028 C163.262,3.60699999999997 164.477,3.86599999999999 165.689,4.14800000000014 C165.689,4.14800000000014 164.856,7.72099999999955 164.856,7.72099999999955 C163.679,7.45100000000002 162.5,7.19499999999971 161.32,6.96000000000004 ZM155.686,67.8130000000001 C156.854,67.7600000000002 158.024,67.723 159.195,67.7039999999997 C159.195,67.7039999999997 159.211,71.2120000000004 159.211,71.2120000000004 C158.073,71.2290000000003 156.94,71.2650000000003 155.805,71.3159999999998 C155.805,71.3159999999998 155.686,67.8130000000001 155.686,67.8130000000001 ZM154.184,5.72299999999996 C154.184,5.72299999999996 154.715,2.09500000000025 154.715,2.09500000000025 C155.94,2.27300000000014 157.168,2.46500000000015 158.39,2.67699999999968 C158.39,2.67699999999968 157.758,6.28999999999996 157.758,6.28999999999996 C156.564,6.08500000000004 155.372,5.89699999999993 154.184,5.72299999999996 ZM158.033,158.166 C157.037,158.82 156.036,159.459 155.028,160.082 C155.028,160.082 153.246,157.101 153.246,157.101 C154.228,156.495 155.204,155.873 156.171,155.242 C156.171,155.242 158.033,158.166 158.033,158.166 ZM150.49,245.089 C150.49,245.089 149.28,241.826 149.28,241.826 C150.349,241.41 151.415,240.974 152.475,240.527 C152.475,240.527 153.777,243.75 153.777,243.75 C152.688,244.212 151.591,244.66 150.49,245.089 ZM148.69,68.3149999999996 C149.855,68.1980000000003 151.022,68.0969999999998 152.191,68.0150000000003 C152.191,68.0150000000003 152.395,71.5140000000001 152.395,71.5140000000001 C151.262,71.5950000000003 150.128,71.6930000000002 148.997,71.808 C148.997,71.808 148.69,68.3149999999996 148.69,68.3149999999996 ZM146.99,4.88100000000031 C146.99,4.88100000000031 147.326,1.23099999999977 147.326,1.23099999999977 C148.56,1.34299999999985 149.793,1.47000000000025 151.025,1.61099999999988 C151.025,1.61099999999988 150.594,5.2529999999997 150.594,5.2529999999997 C149.391,5.11399999999958 148.187,4.98899999999958 146.99,4.88100000000031 ZM143.821,247.495 C143.821,247.495 142.778,244.173 142.778,244.173 C143.871,243.812 144.959,243.435 146.04,243.046 C146.04,243.046 147.169,246.338 147.169,246.338 C146.055,246.741 144.939,247.124 143.821,247.495 ZM141.093,163.725 C142.136,163.226 143.168,162.717 144.196,162.194 C144.196,162.194 145.727,165.313 145.727,165.313 C144.671,165.852 143.61,166.376 142.542,166.883 C142.542,166.883 141.093,163.725 141.093,163.725 ZM141.724,69.2129999999997 C142.879,69.0339999999997 144.036,68.8710000000001 145.198,68.7200000000003 C145.198,68.7200000000003 145.601,72.1980000000003 145.601,72.1980000000003 C144.468,72.3450000000003 143.34,72.5050000000001 142.213,72.6800000000003 C142.213,72.6800000000003 141.724,69.2129999999997 141.724,69.2129999999997 ZM139.764,4.4399999999996 C139.764,4.4399999999996 139.896,0.77400000000034 139.896,0.77400000000034 C141.135,0.8159999999998 142.374,0.87700000000041 143.615,0.95300000000043 C143.615,0.95300000000043 143.381,4.61099999999988 143.381,4.61099999999988 C142.176,4.53799999999956 140.968,4.47900000000027 139.764,4.4399999999996 ZM137.039,249.532 C137.039,249.532 136.18,246.156 136.18,246.156 C137.287,245.855 138.392,245.536 139.492,245.208 C139.492,245.208 140.442,248.559 140.442,248.559 C139.31,248.901 138.174,249.224 137.039,249.532 ZM134.786,166.519 C135.848,166.083 136.907,165.629 137.959,165.164 C137.959,165.164 139.316,168.365 139.316,168.365 C138.236,168.845 137.146,169.312 136.053,169.76 C136.053,169.76 134.786,166.519 134.786,166.519 ZM134.809,70.4830000000002 C135.952,70.241 137.103,70.0119999999997 138.258,69.7969999999996 C138.258,69.7969999999996 138.843,73.2489999999998 138.843,73.2489999999998 C137.721,73.4549999999999 136.6,73.6800000000003 135.484,73.9179999999997 C135.484,73.9179999999997 134.809,70.4830000000002 134.809,70.4830000000002 ZM132.521,4.39400000000023 C132.521,4.39400000000023 132.451,0.72699999999986 132.451,0.72699999999986 C133.693,0.70300000000043 134.939,0.6909999999998 136.18,0.70399999999972 C136.18,0.70399999999972 136.139,4.36700000000019 136.139,4.36700000000019 C134.934,4.35800000000017 133.727,4.36700000000019 132.521,4.39400000000023 ZM127.963,72.1390000000001 C129.095,71.8299999999999 130.231,71.5410000000002 131.374,71.2629999999999 C131.374,71.2629999999999 132.147,74.6750000000002 132.147,74.6750000000002 C131.037,74.9449999999997 129.928,75.2290000000003 128.825,75.527 C128.825,75.527 127.963,72.1390000000001 127.963,72.1390000000001 ZM125.01,1.09000000000015 C126.248,0.99300000000039 127.483,0.91499999999996 128.728,0.85699999999997 C128.728,0.85699999999997 128.897,4.51699999999983 128.897,4.51699999999983 C127.689,4.57800000000043 126.484,4.65099999999984 125.285,4.74499999999989 C125.285,4.74499999999989 125.01,1.09000000000015 125.01,1.09000000000015 ZM122.252,77.5060000000003 C122.252,77.5060000000003 121.207,74.174 121.207,74.174 C122.324,73.8040000000001 123.444,73.451 124.571,73.1109999999999 C124.571,73.1109999999999 125.525,76.4750000000004 125.525,76.4750000000004 C124.428,76.8040000000001 123.337,77.1469999999999 122.252,77.5060000000003 ZM117.628,1.85599999999977 C118.851,1.69899999999961 120.077,1.55299999999988 121.314,1.42299999999977 C121.314,1.42299999999977 121.688,5.06999999999971 121.688,5.06999999999971 C120.483,5.19499999999971 119.289,5.33500000000004 118.095,5.49399999999969 C118.095,5.49399999999969 117.628,1.85599999999977 117.628,1.85599999999977 ZM119.006,78.625 C117.929,79.0140000000001 116.856,79.4179999999997 115.789,79.8360000000002 C115.789,79.8360000000002 114.572,76.5630000000001 114.572,76.5630000000001 C115.669,76.1350000000002 116.771,75.7190000000001 117.878,75.3209999999999 C117.878,75.3209999999999 119.006,78.625 119.006,78.625 ZM110.295,3.02599999999984 C111.509,2.79899999999998 112.726,2.58700000000044 113.95,2.38900000000012 C113.95,2.38900000000012 114.527,6.00799999999981 114.527,6.00799999999981 C113.335,6.20100000000002 112.143,6.40499999999975 110.961,6.62700000000041 C110.961,6.62700000000041 110.295,3.02599999999984 110.295,3.02599999999984 ZM112.605,81.1329999999998 C111.55,81.5810000000001 110.501,82.0420000000004 109.459,82.5169999999998 C109.459,82.5169999999998 108.062,79.3230000000003 108.062,79.3230000000003 C109.136,78.8310000000001 110.214,78.3580000000002 111.3,77.8999999999996 C111.3,77.8999999999996 112.605,81.1329999999998 112.605,81.1329999999998 ZM108.368,174.174 C109.496,173.977 110.623,173.764 111.745,173.536 C111.745,173.536 112.381,176.97 112.381,176.97 C111.227,177.203 110.07,177.422 108.91,177.624 C108.91,177.624 108.368,174.174 108.368,174.174 ZM111.272,211.658 C110.105,211.782 108.938,211.885 107.766,211.978 C107.766,211.978 107.546,208.485 107.546,208.485 C108.685,208.397 109.825,208.293 110.961,208.175 C110.961,208.175 111.272,211.658 111.272,211.658 ZM103.027,4.59400000000005 C104.235,4.30199999999968 105.443,4.01900000000023 106.659,3.76299999999992 C106.659,3.76299999999992 107.413,7.34599999999955 107.413,7.34599999999955 C106.235,7.59900000000016 105.061,7.86899999999969 103.892,8.15800000000036 C103.892,8.15800000000036 103.027,4.59400000000005 103.027,4.59400000000005 ZM106.344,83.9899999999998 C105.315,84.4960000000001 104.289,85.018 103.271,85.549 C103.271,85.549 101.705,82.4380000000001 101.705,82.4380000000001 C102.752,81.8879999999999 103.807,81.3549999999996 104.863,80.8379999999997 C104.863,80.8379999999997 106.344,83.9899999999998 106.344,83.9899999999998 ZM105.434,178.179 C104.27,178.35 103.106,178.506 101.938,178.646 C101.938,178.646 101.576,175.168 101.576,175.168 C102.714,175.032 103.847,174.883 104.978,174.716 C104.978,174.716 105.434,178.179 105.434,178.179 ZM104.25,212.198 C103.083,212.255 101.911,212.296 100.736,212.325 C100.736,212.325 100.708,208.823 100.708,208.823 C101.849,208.8 102.991,208.756 104.131,208.7 C104.131,208.7 104.25,212.198 104.25,212.198 ZM95.859,6.5590000000002 C97.045,6.20300000000043 98.236,5.85699999999997 99.425,5.52900000000045 C99.425,5.52900000000045 100.395,9.06400000000031 100.395,9.06400000000031 C99.231,9.38500000000022 98.067,9.71799999999985 96.913,10.0680000000002 C96.913,10.0680000000002 95.859,6.5590000000002 95.859,6.5590000000002 ZM100.24,87.1869999999999 C99.236,87.7489999999998 98.239,88.326 97.25,88.9129999999996 C97.25,88.9129999999996 95.52,85.8940000000002 95.52,85.8940000000002 C96.537,85.2879999999996 97.5599999999999,84.6989999999996 98.588,84.1229999999996 C98.588,84.1229999999996 100.24,87.1869999999999 100.24,87.1869999999999 ZM89.52,89.6869999999999 C90.502,89.027 91.495,88.3800000000001 92.495,87.7489999999998 C92.495,87.7489999999998 94.3,90.7240000000002 94.3,90.7240000000002 C93.329,91.3360000000002 92.364,91.9650000000001 91.408,92.6049999999996 C91.408,92.6049999999996 89.52,89.6869999999999 89.52,89.6869999999999 ZM88.8,8.91700000000037 C89.967,8.48800000000028 91.139,8.07899999999972 92.321,7.68900000000031 C92.321,7.68900000000031 93.4640000000001,11.1719999999996 93.4640000000001,11.1719999999996 C92.316,11.5510000000004 91.177,11.9470000000001 90.046,12.3559999999998 C90.046,12.3559999999998 88.8,8.91700000000037 88.8,8.91700000000037 ZM83.73,93.799 C84.678,93.0860000000002 85.633,92.3869999999997 86.597,91.7020000000002 C86.597,91.7020000000002 88.568,94.5640000000003 88.568,94.5640000000003 C87.627,95.2349999999997 86.697,95.9139999999998 85.775,96.607 C85.775,96.607 83.73,93.799 83.73,93.799 ZM81.874,11.6440000000002 C83.013,11.1580000000004 84.164,10.6869999999999 85.316,10.232 C85.316,10.232 86.653,13.6459999999997 86.653,13.6459999999997 C85.527,14.0870000000004 84.41,14.5460000000003 83.298,15.018 C83.298,15.018 81.874,11.6440000000002 81.874,11.6440000000002 ZM80.359,100.919 C80.359,100.919 78.164,98.2299999999996 78.164,98.2299999999996 C79.074,97.4660000000003 79.99,96.7160000000003 80.919,95.9780000000001 C80.919,95.9780000000001 83.04,98.7269999999999 83.04,98.7269999999999 C82.1369999999999,99.4459999999999 81.2430000000001,100.175 80.359,100.919 ZM75.107,14.7460000000001 C76.2190000000001,14.2030000000004 77.34,13.6700000000001 78.467,13.1499999999996 C78.467,13.1499999999996 79.994,16.4799999999996 79.994,16.4799999999996 C78.893,16.9859999999999 77.8,17.5039999999999 76.712,18.0389999999998 C76.712,18.0389999999998 75.107,14.7460000000001 75.107,14.7460000000001 ZM68.5069999999999,18.2190000000001 C69.591,17.6090000000004 70.681,17.0169999999998 71.777,16.4390000000003 C71.777,16.4390000000003 73.481,19.6809999999996 73.481,19.6809999999996 C72.4109999999999,20.2439999999997 71.348,20.8209999999999 70.293,21.4110000000001 C70.293,21.4110000000001 68.5069999999999,18.2190000000001 68.5069999999999,18.2190000000001 ZM72.678,107.934 C71.857,108.746 71.048,109.57 70.248,110.408 C70.248,110.408 67.774,107.98 67.774,107.98 C68.596,107.121 69.4299999999999,106.27 70.274,105.437 C70.274,105.437 72.678,107.934 72.678,107.934 ZM62.1079999999999,22.0379999999996 C63.1559999999999,21.375 64.2140000000001,20.7259999999997 65.279,20.0829999999996 C65.279,20.0829999999996 67.1609999999999,23.2290000000003 67.1609999999999,23.2290000000003 C66.1180000000001,23.8519999999999 65.087,24.4840000000004 64.066,25.1319999999996 C64.066,25.1319999999996 62.1079999999999,22.0379999999996 62.1079999999999,22.0379999999996 ZM55.923,26.1989999999996 C56.932,25.4790000000003 57.956,24.7719999999999 58.987,24.0799999999999 C58.987,24.0799999999999 61.029,27.1170000000002 61.029,27.1170000000002 C60.026,27.7939999999999 59.0309999999999,28.4809999999998 58.0410000000001,29.1840000000002 C58.0410000000001,29.1840000000002 55.923,26.1989999999996 55.923,26.1989999999996 ZM49.968,30.6959999999999 C50.937,29.9229999999998 51.922,29.1610000000001 52.9109999999999,28.4089999999997 C52.9109999999999,28.4089999999997 55.125,31.326 55.125,31.326 C54.1559999999999,32.0619999999999 53.2,32.8019999999997 52.251,33.5590000000002 C52.251,33.5590000000002 49.968,30.6959999999999 49.968,30.6959999999999 ZM44.261,35.5100000000002 C45.191,34.6800000000003 46.133,33.8620000000001 47.0890000000001,33.058 C47.0890000000001,33.058 49.441,35.8670000000002 49.441,35.8670000000002 C48.516,36.6419999999998 47.605,37.433 46.703,38.2420000000002 C46.703,38.2420000000002 44.261,35.5100000000002 44.261,35.5100000000002 ZM38.828,40.6369999999997 C39.71,39.7579999999998 40.603,38.8909999999996 41.51,38.0389999999998 C41.51,38.0389999999998 44.019,40.701 44.019,40.701 C43.14,41.5320000000002 42.269,42.3760000000002 41.41,43.2309999999998 C41.41,43.2309999999998 38.828,40.6369999999997 38.828,40.6369999999997 ZM36.404,48.491 C36.404,48.491 33.679,46.0469999999996 33.679,46.0469999999996 C34.513,45.1180000000004 35.359,44.2060000000001 36.2140000000001,43.3040000000001 C36.2140000000001,43.3040000000001 38.871,45.8239999999996 38.871,45.8239999999996 C38.038,46.7020000000002 37.213,47.5900000000001 36.404,48.491 ZM31.683,54.0309999999999 C31.683,54.0309999999999 28.83,51.7359999999999 28.83,51.7359999999999 C29.6130000000001,50.7650000000003 30.407,49.8040000000001 31.221,48.8559999999998 C31.221,48.8559999999998 34.003,51.2340000000004 34.003,51.2340000000004 C33.212,52.1580000000004 32.441,53.0889999999999 31.683,54.0309999999999 ZM27.278,59.8199999999997 C27.278,59.8199999999997 24.302,57.6840000000002 24.302,57.6840000000002 C25.035,56.6700000000001 25.773,55.6700000000001 26.528,54.6809999999996 C26.528,54.6809999999996 29.444,56.8900000000003 29.444,56.8900000000003 C28.711,57.8580000000002 27.986,58.8370000000004 27.278,59.8199999999997 ZM23.203,65.8299999999999 C23.203,65.8299999999999 20.114,63.8680000000004 20.114,63.8680000000004 C20.782,62.817 21.466,61.7809999999999 22.158,60.7510000000002 C22.158,60.7510000000002 25.199,62.7950000000001 25.199,62.7950000000001 C24.522,63.8000000000002 23.854,64.8100000000004 23.203,65.8299999999999 ZM19.466,72.0540000000001 C19.466,72.0540000000001 16.273,70.2629999999999 16.273,70.2629999999999 C16.885,69.1760000000004 17.509,68.0990000000002 18.148,67.0349999999999 C18.148,67.0349999999999 21.29,68.9229999999998 21.29,68.9229999999998 C20.668,69.9549999999999 20.061,70.9989999999998 19.466,72.0540000000001 ZM16.081,78.4589999999998 C16.081,78.4589999999998 12.795,76.8500000000004 12.795,76.8500000000004 C13.342,75.732 13.909,74.6220000000003 14.492,73.5230000000001 C14.492,73.5230000000001 17.731,75.2380000000003 17.731,75.2380000000003 C17.167,76.2979999999998 16.6180000000001,77.375 16.081,78.4589999999998 ZM13.3579999999999,84.9830000000002 C13.3579999999999,84.9830000000002 10.053,83.4099999999999 10.053,83.4099999999999 C10.591,82.2830000000004 11.1420000000001,81.165 11.715,80.0550000000003 C11.715,80.0550000000003 14.971,81.7250000000004 14.971,81.7250000000004 C14.414,82.808 13.879,83.8909999999996 13.3579999999999,84.9830000000002 ZM10.407,91.634 C10.407,91.634 7.01900000000001,90.2430000000004 7.01900000000001,90.2430000000004 C7.49699999999996,89.0879999999997 7.98599999999999,87.9440000000004 8.49199999999996,86.808 C8.49199999999996,86.808 11.8390000000001,88.2830000000004 11.8390000000001,88.2830000000004 C11.349,89.3940000000002 10.869,90.5140000000001 10.407,91.634 ZM7.827,98.4229999999998 C7.827,98.4229999999998 4.36900000000003,97.2290000000003 4.36900000000003,97.2290000000003 C4.77700000000004,96.0510000000004 5.20299999999997,94.8850000000002 5.63900000000001,93.7240000000002 C5.63900000000001,93.7240000000002 9.06899999999996,95.0100000000002 9.06899999999996,95.0100000000002 C8.64200000000005,96.143 8.226,97.2809999999999 7.827,98.4229999999998 ZM5.625,105.343 C5.625,105.343 2.10599999999999,104.339 2.10599999999999,104.339 C2.45100000000002,103.139 2.80999999999995,101.947 3.18600000000004,100.765 C3.18600000000004,100.765 6.678,101.875 6.678,101.875 C6.31100000000004,103.023 5.96100000000001,104.179 5.625,105.343 ZM3.80899999999997,112.358 C3.80899999999997,112.358 0.24000000000001,111.551 0.24000000000001,111.551 C0.51499999999999,110.337 0.81100000000004,109.127 1.12400000000002,107.923 C1.12400000000002,107.923 4.67100000000005,108.842 4.67100000000005,108.842 C4.36800000000005,110.005 4.08100000000002,111.18 3.80899999999997,112.358 ZM17.361,354.978 C17.361,354.978 13.252,355.421 13.252,355.421 C13.097,354.032 12.962,352.637 12.843,351.246 C12.843,351.246 16.958,350.911 16.958,350.911 C17.073,352.268 17.21,353.622 17.361,354.978 ZM18.492,363.078 C18.492,363.078 14.417,363.747 14.417,363.747 C14.184,362.367 13.972,360.982 13.777,359.597 C13.777,359.597 17.871,359.037 17.871,359.037 C18.059,360.386 18.265,361.735 18.492,363.078 ZM20.067,371.105 C20.067,371.105 16.033,371.994 16.033,371.994 C15.727,370.627 15.441,369.255 15.171,367.881 C15.171,367.881 19.225,367.102 19.225,367.102 C19.4880000000001,368.439 19.768,369.774 20.067,371.105 ZM22.073,379.035 C22.073,379.035 18.096,380.148 18.096,380.148 C17.715,378.798 17.353,377.442 17.01,376.081 C17.01,376.081 21.016,375.085 21.016,375.085 C21.348,376.407 21.701,377.724 22.073,379.035 ZM24.509,386.86 C24.509,386.86 20.597,388.182 20.597,388.182 C20.145,386.85 19.7089999999999,385.518 19.294,384.176 C19.294,384.176 23.24,382.966 23.24,382.966 C23.645,384.268 24.066,385.568 24.509,386.86 ZM27.371,394.538 C27.371,394.538 23.539,396.07 23.539,396.07 C23.015,394.769 22.5069999999999,393.461 22.016,392.151 C22.016,392.151 25.8869999999999,390.713 25.8869999999999,390.713 C26.366,391.993 26.859,393.268 27.371,394.538 ZM30.6420000000001,402.051 C30.6420000000001,402.051 26.904,403.794 26.904,403.794 C26.306,402.521 25.725,401.241 25.167,399.95 C25.167,399.95 28.955,398.319 28.955,398.319 C29.5,399.569 30.062,400.813 30.6420000000001,402.051 ZM34.332,409.38 C34.332,409.38 30.693,411.328 30.693,411.328 C30.025,410.088 29.376,408.841 28.746,407.583 C28.746,407.583 32.4400000000001,405.741 32.4400000000001,405.741 C33.052,406.963 33.683,408.174 34.332,409.38 ZM38.414,416.498 C38.414,416.498 34.893,418.648 34.893,418.648 C34.158,417.445 33.438,416.234 32.74,415.015 C32.74,415.015 36.324,412.968 36.324,412.968 C37.003,414.152 37.697,415.331 38.414,416.498 ZM42.878,423.377 C42.878,423.377 39.482,425.712 39.482,425.712 C38.6849999999999,424.558 37.904,423.39 37.143,422.214 C37.143,422.214 40.606,419.975 40.606,419.975 C41.349,421.116 42.104,422.252 42.878,423.377 ZM47.703,429.985 C47.703,429.985 44.437,432.508 44.437,432.508 C43.581,431.394 42.735,430.273 41.909,429.141 C41.909,429.141 45.2430000000001,426.715 45.2430000000001,426.715 C46.047,427.817 46.866,428.906 47.703,429.985 ZM52.886,436.327 C52.886,436.327 49.763,439.019 49.763,439.019 C48.846,437.954 47.942,436.88 47.058,435.795 C47.058,435.795 50.253,433.193 50.253,433.193 C51.115,434.249 51.992,435.291 52.886,436.327 ZM58.401,442.369 C58.401,442.369 55.436,445.232 55.436,445.232 C54.457,444.221 53.5,443.196 52.558,442.162 C52.558,442.162 55.6,439.383 55.6,439.383 C56.519,440.388 57.454,441.384 58.401,442.369 ZM64.242,448.111 C64.242,448.111 61.428,451.128 61.428,451.128 C60.4,450.17 59.388,449.199 58.3920000000001,448.22 C58.3920000000001,448.22 61.285,445.278 61.285,445.278 C62.254,446.235 63.242,447.176 64.242,448.111 ZM66.069,339.069 C64.929,338.264 63.794,337.448 62.676,336.62 C62.676,336.62 65.116,333.284 65.116,333.284 C66.21,334.094 67.314,334.897 68.427,335.678 C68.427,335.678 66.069,339.069 66.069,339.069 ZM67.8869999999999,112.945 C67.11,113.807 66.343,114.676 65.588,115.558 C65.588,115.558 62.985,113.271 62.985,113.271 C63.759,112.368 64.545,111.477 65.345,110.594 C65.345,110.594 67.8869999999999,112.945 67.8869999999999,112.945 ZM63.361,118.233 C62.633,119.128 61.915,120.038 61.2089999999999,120.963 C61.2089999999999,120.963 58.4829999999999,118.829 58.4829999999999,118.829 C59.2089999999999,117.882 59.948,116.944 60.697,116.02 C60.697,116.02 63.361,118.233 63.361,118.233 ZM61.881,330.808 C61.881,330.808 59.343,334.07 59.343,334.07 C58.2430000000001,333.201 57.153,332.324 56.08,331.423 C56.08,331.423 58.711,328.246 58.711,328.246 C59.755,329.116 60.8099999999999,329.971 61.881,330.808 ZM59.1369999999999,123.747 C58.458,124.679 57.795,125.623 57.141,126.58 C57.141,126.58 54.3,124.607 54.3,124.607 C54.972,123.621 55.658,122.647 56.355,121.686 C56.355,121.686 59.1369999999999,123.747 59.1369999999999,123.747 ZM55.221,129.475 C54.595,130.441 53.9829999999999,131.421 53.383,132.412 C53.383,132.412 50.439,130.599 50.439,130.599 C51.058,129.578 51.688,128.569 52.332,127.572 C52.332,127.572 55.221,129.475 55.221,129.475 ZM55.606,325.593 C55.606,325.593 52.897,328.705 52.897,328.705 C51.85,327.784 50.816,326.851 49.789,325.901 C49.789,325.901 52.575,322.855 52.575,322.855 C53.576,323.78 54.586,324.697 55.606,325.593 ZM48.629,133.671 C48.629,133.671 51.622,135.401 51.622,135.401 C51.052,136.404 50.491,137.416 49.943,138.439 C49.943,138.439 46.903,136.795 46.903,136.795 C47.466,135.741 48.04,134.704 48.629,133.671 ZM70.378,453.521 C70.378,453.521 67.7380000000001,456.689 67.7380000000001,456.689 C66.658,455.789 65.595,454.875 64.547,453.953 C64.547,453.953 67.272,450.852 67.272,450.852 C68.292,451.752 69.327,452.643 70.378,453.521 ZM76.793,458.597 C76.793,458.597 74.322,461.904 74.322,461.904 C73.207,461.067 72.097,460.215 70.996,459.343 C70.996,459.343 73.552,456.104 73.552,456.104 C74.624,456.953 75.706,457.784 76.793,458.597 ZM83.474,463.318 C83.474,463.318 81.192,466.759 81.192,466.759 C80.028,465.982 78.87,465.187 77.724,464.372 C77.724,464.372 80.105,461.002 80.105,461.002 C81.22,461.792 82.342,462.566 83.474,463.318 ZM89.527,348.064 C89.527,348.064 87.742,351.796 87.742,351.796 C86.489,351.187 85.239,350.564 83.995,349.925 C83.995,349.925 85.866,346.237 85.866,346.237 C87.078,346.862 88.297,347.472 89.527,348.064 ZM90.398,467.683 C90.398,467.683 88.309,471.238 88.309,471.238 C87.105,470.526 85.905,469.797 84.72,469.049 C84.72,469.049 86.907,465.552 86.907,465.552 C88.067,466.28 89.231,466.99 90.398,467.683 ZM87.053,208.371 C88.1849999999999,208.472 89.3200000000001,208.556 90.455,208.623 C90.455,208.623 90.201,212.121 90.201,212.121 C89.033,212.05 87.864,211.963 86.697,211.857 C86.697,211.857 87.053,208.371 87.053,208.371 ZM91.6369999999999,253.524 C90.471,253.418 89.306,253.296 88.143,253.155 C88.143,253.155 88.603,249.681 88.603,249.681 C89.731,249.816 90.8630000000001,249.934 91.995,250.035 C91.995,250.035 91.6369999999999,253.524 91.6369999999999,253.524 ZM89.346,279.146 C89.346,279.146 88.414,283.174 88.414,283.174 C87.051,282.849 85.694,282.513 84.341,282.147 C84.341,282.147 85.395,278.156 85.395,278.156 C86.706,278.506 88.023,278.837 89.346,279.146 ZM80.277,207.58 C81.403,207.745 82.528,207.89 83.6559999999999,208.021 C83.6559999999999,208.021 83.215,211.498 83.215,211.498 C82.054,211.364 80.893,211.213 79.734,211.045 C79.734,211.045 80.277,207.58 80.277,207.58 ZM84.672,252.691 C83.516,252.521 82.36,252.336 81.207,252.133 C81.207,252.133 81.854,248.685 81.854,248.685 C82.974,248.884 84.0940000000001,249.064 85.218,249.228 C85.218,249.228 84.672,252.691 84.672,252.691 ZM80.294,347.949 C79.072,347.275 77.855,346.583 76.651,345.876 C76.651,345.876 78.728,342.298 78.728,342.298 C79.902,342.991 81.0839999999999,343.663 82.275,344.321 C82.275,344.321 80.294,347.949 80.294,347.949 ZM80.312,281.022 C78.976,280.628 77.646,280.217 76.314,279.788 C76.314,279.788 77.563,275.85 77.563,275.85 C78.86,276.268 80.1609999999999,276.675 81.463,277.058 C81.463,277.058 80.312,281.022 80.312,281.022 ZM73.0650000000001,343.698 C71.874,342.96 70.697,342.204 69.53,341.426 C69.53,341.426 71.803,337.973 71.803,337.973 C72.936,338.729 74.079,339.463 75.228,340.183 C75.228,340.183 73.0650000000001,343.698 73.0650000000001,343.698 ZM77.736,103.185 C76.873,103.952 76.018,104.732 75.175,105.521 C75.175,105.521 72.838,102.962 72.838,102.962 C73.706,102.145 74.583,101.344 75.468,100.556 C75.468,100.556 77.736,103.185 77.736,103.185 ZM96.97,351.414 C96.97,351.414 95.402,355.235 95.402,355.235 C94.1079999999999,354.698 92.828,354.143 91.5549999999999,353.572 C91.5549999999999,353.572 93.225,349.789 93.225,349.789 C94.466,350.347 95.715,350.888 96.97,351.414 ZM97.549,471.659 C97.549,471.659 95.654,475.322 95.654,475.322 C94.414,474.674 93.181,474.011 91.954,473.333 C91.954,473.333 93.946,469.718 93.946,469.718 C95.1420000000001,470.382 96.346,471.031 97.549,471.659 ZM96.616,284.876 C95.244,284.626 93.871,284.364 92.509,284.084 C92.509,284.084 93.321,280.029 93.321,280.029 C94.654,280.303 95.9930000000001,280.566 97.331,280.806 C97.331,280.806 96.616,284.876 96.616,284.876 ZM93.87,208.781 C95.011,208.816 96.15,208.839 97.2910000000001,208.846 C97.2910000000001,208.846 97.222,212.347 97.222,212.347 C96.053,212.339 94.885,212.316 93.713,212.278 C93.713,212.278 93.87,208.781 93.87,208.781 ZM95.404,250.296 C96.544,250.366 97.682,250.423 98.822,250.465 C98.822,250.465 98.647,253.962 98.647,253.962 C97.479,253.919 96.312,253.86 95.143,253.787 C95.143,253.787 95.404,250.296 95.404,250.296 ZM104.588,354.347 C104.588,354.347 103.226,358.253 103.226,358.253 C101.912,357.785 100.602,357.298 99.294,356.802 C99.294,356.802 100.754,352.927 100.754,352.927 C102.031,353.419 103.305,353.893 104.588,354.347 ZM104.905,475.231 C104.905,475.231 103.216,478.999 103.216,478.999 C101.94,478.421 100.673,477.824 99.41,477.21 C99.41,477.21 101.202,473.495 101.202,473.495 C102.429,474.089 103.665,474.672 104.905,475.231 ZM102.238,250.545 C103.379,250.555 104.522,250.546 105.663,250.525 C105.663,250.525 105.677,254.025 105.677,254.025 C104.509,254.046 103.336,254.053 102.161,254.046 C102.161,254.046 102.238,250.545 102.238,250.545 ZM101.357,281.466 C102.703,281.674 104.049,281.86 105.393,282.028 C105.393,282.028 104.908,286.128 104.908,286.128 C103.517,285.96 102.132,285.77 100.746,285.556 C100.746,285.556 101.357,281.466 101.357,281.466 ZM112.444,478.396 C112.444,478.396 110.965,482.253 110.965,482.253 C109.659,481.743 108.354,481.22 107.064,480.672 C107.064,480.672 108.657,476.867 108.657,476.867 C109.911,477.396 111.174,477.906 112.444,478.396 ZM107.2,359.6 C107.2,359.6 108.454,355.659 108.454,355.659 C109.75,356.078 111.048,356.482 112.357,356.87 C112.357,356.87 111.203,360.842 111.203,360.842 C109.865,360.448 108.528,360.033 107.2,359.6 ZM109.083,250.413 C110.224,250.359 111.367,250.289 112.506,250.206 C112.506,250.206 112.712,253.696 112.712,253.696 C111.542,253.785 110.372,253.854 109.198,253.911 C109.198,253.911 109.083,250.413 109.083,250.413 ZM109.458,282.473 C110.813,282.607 112.168,282.718 113.526,282.814 C113.526,282.814 113.252,286.939 113.252,286.939 C111.86,286.843 110.465,286.727 109.076,286.593 C109.076,286.593 109.458,282.473 109.458,282.473 ZM115.104,172.808 C116.221,172.548 117.334,172.276 118.442,171.987 C118.442,171.987 119.269,175.375 119.269,175.375 C118.126,175.675 116.983,175.954 115.834,176.218 C115.834,176.218 115.104,172.808 115.104,172.808 ZM118.266,210.729 C117.104,210.915 115.942,211.085 114.776,211.241 C114.776,211.241 114.37,207.767 114.37,207.767 C115.505,207.617 116.637,207.453 117.765,207.272 C117.765,207.272 118.266,210.729 118.266,210.729 ZM120.144,481.147 C120.144,481.147 118.885,485.08 118.885,485.08 C117.552,484.647 116.229,484.197 114.907,483.721 C114.907,483.721 116.279,479.829 116.279,479.829 C117.565,480.286 118.853,480.728 120.144,481.147 ZM115.249,361.974 C115.249,361.974 116.276,357.965 116.276,357.965 C117.6,358.312 118.918,358.644 120.246,358.958 C120.246,358.958 119.314,362.991 119.314,362.991 C117.957,362.671 116.601,362.328 115.249,361.974 ZM115.926,249.901 C117.065,249.785 118.201,249.655 119.334,249.508 C119.334,249.508 119.731,252.979 119.731,252.979 C118.564,253.13 117.397,253.265 116.227,253.385 C116.227,253.385 115.926,249.901 115.926,249.901 ZM117.588,283.039 C118.95,283.096 120.312,283.135 121.676,283.155 C121.676,283.155 121.625,287.292 121.625,287.292 C120.232,287.267 118.836,287.229 117.44,287.172 C117.44,287.172 117.588,283.039 117.588,283.039 ZM121.764,171.074 C122.865,170.754 123.964,170.416 125.059,170.068 C125.059,170.068 126.066,173.403 126.066,173.403 C124.94,173.765 123.81,174.107 122.68,174.435 C122.68,174.435 121.764,171.074 121.764,171.074 ZM124.517,206.005 C124.517,206.005 125.196,209.43 125.196,209.43 C124.046,209.678 122.891,209.912 121.735,210.129 C121.735,210.129 121.148,206.686 121.148,206.686 C122.274,206.475 123.397,206.246 124.517,206.005 ZM126.697,251.889 C125.54,252.103 124.379,252.302 123.216,252.483 C123.216,252.483 122.733,249.024 122.733,249.024 C123.865,248.847 124.995,248.653 126.121,248.445 C126.121,248.445 126.697,251.889 126.697,251.889 ZM127.965,483.461 C127.965,483.461 126.913,487.458 126.913,487.458 C125.571,487.096 124.229,486.72 122.883,486.323 C122.883,486.323 124.035,482.356 124.035,482.356 C125.346,482.744 126.652,483.113 127.965,483.461 ZM123.402,363.899 C123.402,363.899 124.239,359.843 124.239,359.843 C125.567,360.123 126.898,360.38 128.24,360.615 C128.24,360.615 127.534,364.698 127.534,364.698 C126.155,364.452 124.776,364.187 123.402,363.899 ZM125.756,283.162 C127.116,283.144 128.477,283.109 129.836,283.058 C129.836,283.058 130.019,287.185 130.019,287.185 C128.619,287.243 127.225,287.279 125.831,287.297 C125.831,287.297 125.756,283.162 125.756,283.162 ZM132.063,207.746 C130.925,208.061 129.785,208.354 128.64,208.634 C128.64,208.634 127.866,205.233 127.866,205.233 C128.979,204.96 130.089,204.672 131.193,204.369 C131.193,204.369 132.063,207.746 132.063,207.746 ZM132.754,171.067 C131.647,171.487 130.538,171.89 129.427,172.281 C129.427,172.281 128.326,168.978 128.326,168.978 C129.412,168.597 130.494,168.202 131.569,167.793 C131.569,167.793 132.754,171.067 132.754,171.067 ZM132.843,247.012 C132.843,247.012 133.612,250.413 133.612,250.413 C132.464,250.694 131.316,250.953 130.163,251.197 C130.163,251.197 129.492,247.775 129.492,247.775 C130.613,247.535 131.73,247.281 132.843,247.012 ZM135.89,485.351 C135.89,485.351 135.062,489.395 135.062,489.395 C133.698,489.109 132.339,488.806 130.978,488.486 C130.978,488.486 131.906,484.461 131.906,484.461 C133.232,484.773 134.562,485.074 135.89,485.351 ZM131.679,365.375 C131.679,365.375 132.276,361.282 132.276,361.282 C133.62,361.482 134.972,361.666 136.324,361.832 C136.324,361.832 135.837,365.943 135.837,365.943 C134.448,365.773 133.062,365.586 131.679,365.375 ZM138.835,205.687 C137.714,206.063 136.588,206.42 135.463,206.762 C135.463,206.762 134.503,203.413 134.503,203.413 C135.6,203.078 136.695,202.727 137.785,202.365 C137.785,202.365 138.835,205.687 138.835,205.687 ZM138.385,286.627 C136.996,286.757 135.603,286.866 134.208,286.967 C134.208,286.967 133.905,282.837 133.905,282.837 C135.269,282.745 136.625,282.639 137.98,282.51 C137.98,282.51 138.385,286.627 138.385,286.627 ZM143.916,486.798 C143.916,486.798 143.31,490.888 143.31,490.888 C141.925,490.673 140.545,490.447 139.168,490.192 C139.168,490.192 139.897,486.129 139.897,486.129 C141.233,486.371 142.572,486.596 143.916,486.798 ZM140.378,362.275 C141.732,362.401 143.089,362.513 144.447,362.604 C144.447,362.604 144.193,366.736 144.193,366.736 C142.792,366.645 141.399,366.53 140.009,366.4 C140.009,366.4 140.378,362.275 140.378,362.275 ZM144.265,200.007 C144.265,200.007 145.492,203.264 145.492,203.264 C144.391,203.699 143.287,204.117 142.181,204.522 C142.181,204.522 141.038,201.233 141.038,201.233 C142.119,200.838 143.195,200.428 144.265,200.007 ZM146.709,285.615 C145.33,285.822 143.942,286.009 142.556,286.176 C142.556,286.176 142.038,282.072 142.038,282.072 C143.389,281.906 144.737,281.726 146.088,281.525 C146.088,281.525 146.709,285.615 146.709,285.615 ZM151.972,161.908 C150.945,162.504 149.913,163.085 148.871,163.652 C148.871,163.652 147.255,160.578 147.255,160.578 C148.268,160.025 149.275,159.461 150.273,158.88 C150.273,158.88 151.972,161.908 151.972,161.908 ZM152.008,487.81 C152.008,487.81 151.622,491.924 151.622,491.924 C150.234,491.784 148.845,491.634 147.465,491.464 C147.465,491.464 147.949,487.358 147.949,487.358 C149.3,487.524 150.655,487.678 152.008,487.81 ZM150.62,197.296 C150.62,197.296 152.019,200.478 152.019,200.478 C150.945,200.972 149.861,201.453 148.774,201.916 C148.774,201.916 147.466,198.691 147.466,198.691 C148.522,198.242 149.574,197.774 150.62,197.296 ZM148.537,362.819 C149.903,362.876 151.26,362.91 152.618,362.925 C152.618,362.925 152.585,367.068 152.585,367.068 C151.183,367.051 149.782,367.017 148.38,366.957 C148.38,366.957 148.537,362.819 148.537,362.819 ZM150.103,280.869 C151.45,280.626 152.785,280.371 154.122,280.097 C154.122,280.097 154.971,284.149 154.971,284.149 C153.605,284.429 152.23,284.69 150.855,284.939 C150.855,284.939 150.103,280.869 150.103,280.869 ZM156.819,194.245 C156.819,194.245 158.39,197.344 158.39,197.344 C157.341,197.897 156.287,198.433 155.226,198.955 C155.226,198.955 153.736,195.816 153.736,195.816 C154.772,195.303 155.798,194.781 156.819,194.245 ZM160.239,240.81 C159.174,241.331 158.104,241.835 157.028,242.325 C157.028,242.325 155.634,239.142 155.634,239.142 C156.685,238.661 157.726,238.171 158.762,237.665 C158.762,237.665 160.239,240.81 160.239,240.81 ZM160.142,488.378 C160.142,488.378 159.988,492.504 159.988,492.504 C158.588,492.449 157.192,492.371 155.793,492.27 C155.793,492.27 156.074,488.143 156.074,488.143 C157.432,488.242 158.788,488.318 160.142,488.378 ZM158.116,279.218 C159.438,278.913 160.754,278.584 162.07,278.233 C162.07,278.233 163.145,282.235 163.145,282.235 C161.79,282.592 160.428,282.932 159.061,283.25 C159.061,283.25 158.116,279.218 158.116,279.218 ZM159.046,153.296 C159.994,152.638 160.933,151.966 161.866,151.278 C161.866,151.278 163.885,154.097 163.885,154.097 C162.926,154.801 161.959,155.496 160.985,156.171 C160.985,156.171 159.046,153.296 159.046,153.296 ZM161.513,195.642 C161.513,195.642 159.857,192.589 159.857,192.589 C160.863,192.024 161.862,191.447 162.853,190.853 C162.853,190.853 164.591,193.859 164.591,193.859 C163.572,194.467 162.547,195.062 161.513,195.642 ZM164.896,234.457 C164.896,234.457 166.542,237.514 166.542,237.514 C165.505,238.091 164.463,238.654 163.412,239.203 C163.412,239.203 161.849,236.101 161.849,236.101 C162.871,235.567 163.887,235.02 164.896,234.457 ZM168.312,488.507 C168.312,488.507 168.37,492.641 168.37,492.641 C166.975,492.657 165.575,492.654 164.179,492.632 C164.179,492.632 164.229,488.494 164.229,488.494 C165.591,488.518 166.95,488.52 168.312,488.507 ZM166.012,277.138 C167.315,276.752 168.618,276.35 169.915,275.932 C169.915,275.932 171.2,279.866 171.2,279.866 C169.869,280.297 168.533,280.711 167.19,281.103 C167.19,281.103 166.012,277.138 166.012,277.138 ZM176.744,492.318 C175.354,492.406 173.959,492.479 172.563,492.536 C172.563,492.536 172.379,488.404 172.379,488.404 C173.741,488.351 175.101,488.281 176.463,488.19 C176.463,488.19 176.744,492.318 176.744,492.318 ZM175.177,278.524 C175.177,278.524 173.779,274.625 173.779,274.625 C175.06,274.17 176.339,273.7 177.608,273.209 C177.608,273.209 179.114,277.066 179.114,277.066 C177.805,277.574 176.493,278.056 175.177,278.524 ZM178.587,229.909 C177.617,230.596 176.638,231.274 175.652,231.932 C175.652,231.932 173.763,229.025 173.763,229.025 C174.723,228.383 175.673,227.727 176.617,227.056 C176.617,227.056 178.587,229.909 178.587,229.909 ZM176.402,185.894 C175.453,186.611 174.494,187.318 173.529,188.005 C173.529,188.005 171.553,185.156 171.553,185.156 C172.493,184.486 173.423,183.802 174.347,183.102 C174.347,183.102 176.402,185.894 176.402,185.894 ZM165.803,189.036 C166.778,188.417 167.746,187.783 168.704,187.139 C168.704,187.139 170.603,190.039 170.603,190.039 C169.616,190.706 168.623,191.358 167.623,191.994 C167.623,191.994 165.803,189.036 165.803,189.036 ZM172.666,233.877 C171.66,234.514 170.647,235.135 169.629,235.741 C169.629,235.741 167.899,232.73 167.899,232.73 C168.891,232.14 169.878,231.535 170.855,230.92 C170.855,230.92 172.666,233.877 172.666,233.877 ZM184.29,225.621 C183.359,226.361 182.418,227.087 181.467,227.802 C181.467,227.802 179.415,225.012 179.415,225.012 C180.34,224.313 181.258,223.604 182.166,222.883 C182.166,222.883 184.29,225.621 184.29,225.621 ZM185.102,491.536 C183.712,491.707 182.325,491.854 180.936,491.985 C180.936,491.985 180.53,487.869 180.53,487.869 C181.885,487.742 183.238,487.598 184.589,487.437 C184.589,487.437 185.102,491.536 185.102,491.536 ZM181.41,271.683 C182.673,271.158 183.918,270.618 185.157,270.06 C185.157,270.06 186.867,273.832 186.867,273.832 C185.588,274.407 184.303,274.966 183.006,275.502 C183.006,275.502 181.41,271.683 181.41,271.683 ZM182.393,176.477 C183.254,175.711 184.107,174.927 184.952,174.126 C184.952,174.126 187.303,176.668 187.303,176.668 C186.435,177.488 185.556,178.296 184.669,179.088 C184.669,179.088 182.393,176.477 182.393,176.477 ZM187.488,218.404 C187.488,218.404 189.761,221.016 189.761,221.016 C188.869,221.808 187.966,222.59 187.055,223.355 C187.055,223.355 184.859,220.677 184.859,220.677 C185.742,219.936 186.619,219.178 187.488,218.404 ZM189.807,215.626 C190.727,214.867 191.658,214.119 192.596,213.388 C192.596,213.388 194.694,216.145 194.694,216.145 C193.783,216.853 192.879,217.578 191.983,218.319 C191.983,218.319 189.807,215.626 189.807,215.626 ZM193.239,266.784 C193.239,266.784 194.448,270.744 194.448,270.744 C193.139,271.139 191.846,271.553 190.557,271.985 C190.557,271.985 189.231,268.061 189.231,268.061 C190.561,267.616 191.895,267.187 193.239,266.784 ZM202.333,268.576 C201.013,268.902 199.694,269.242 198.382,269.604 C198.382,269.604 197.267,265.616 197.267,265.616 C198.62,265.242 199.974,264.892 201.33,264.558 C201.33,264.558 202.333,268.576 202.333,268.576 ZM210.311,266.851 C208.976,267.104 207.64,267.374 206.308,267.662 C206.308,267.662 205.42,263.619 205.42,263.619 C206.787,263.323 208.159,263.044 209.534,262.788 C209.534,262.788 210.311,266.851 210.311,266.851 ZM218.375,265.569 C217.029,265.741 215.687,265.936 214.343,266.154 C214.343,266.154 213.671,262.066 213.671,262.066 C215.055,261.845 216.444,261.642 217.836,261.463 C217.836,261.463 218.375,265.569 218.375,265.569 ZM226.512,264.725 C225.148,264.833 223.794,264.953 222.436,265.092 C222.436,265.092 221.995,260.976 221.995,260.976 C223.382,260.833 224.776,260.711 226.169,260.601 C226.169,260.601 226.512,264.725 226.512,264.725 ZM234.657,264.333 C233.296,264.363 231.937,264.408 230.573,264.472 C230.573,264.472 230.362,260.341 230.362,260.341 C231.754,260.273 233.154,260.226 234.549,260.198 C234.549,260.198 234.657,264.333 234.657,264.333 ZM242.935,260.243 C242.935,260.243 242.826,264.383 242.826,264.383 C241.459,264.338 240.099,264.309 238.738,264.302 C238.738,264.302 238.745,260.164 238.745,260.164 C240.14,260.174 241.536,260.204 242.935,260.243 ZM259.64,261.711 C259.64,261.711 259.081,265.809 259.081,265.809 C257.732,265.617 256.381,265.442 255.025,265.286 C255.025,265.286 255.487,261.175 255.487,261.175 C256.871,261.338 258.256,261.516 259.64,261.711 ZM267.905,263.122 C267.905,263.122 267.115,267.184 267.115,267.184 C265.78,266.915 264.442,266.669 263.101,266.438 C263.101,266.438 263.784,262.361 263.784,262.361 C265.159,262.595 266.536,262.85 267.905,263.122 Z "/></svg>