<?xml version="1.0" encoding="utf-8"?><!DOCTYPE svg PUBLIC "-//W3C//DTD SVG 1.1//EN" "http://www.w3.org/Graphics/SVG/1.1/DTD/svg11.dtd"><svg version="1.1" baseProfile="full" xmlns="http://www.w3.org/2000/svg" xmlns:xlink="http://www.w3.org/1999/xlink" xmlns:ev="http://www.w3.org/2001/xml-events"   height="424px"   width="318px" ><path opacity="0.22" fill="rgb( 18, 109, 128 )" d="M317.355,289.908 C317.355,289.908 313.224,289.707 313.224,289.707 C313.291,288.308 313.383,286.911 313.496,285.515 C313.496,285.515 317.625,285.847 317.625,285.847 C317.515,287.193 317.426,288.55 317.355,289.908 ZM316.476,298.785 C316.476,298.785 312.409,297.995 312.409,297.995 C312.668,296.669 312.906,295.331 313.129,293.989 C313.129,293.989 317.211,294.65 317.211,294.65 C316.989,296.033 316.743,297.411 316.476,298.785 ZM314.665,306.962 C314.665,306.962 310.647,305.955 310.647,305.955 C310.978,304.641 311.29,303.319 311.585,301.989 C311.585,301.989 315.627,302.876 315.627,302.876 C315.324,304.246 315.004,305.608 314.665,306.962 ZM312.405,315.035 C312.405,315.035 308.444,313.826 308.444,313.826 C308.844,312.524 309.232,311.219 309.6,309.909 C309.6,309.909 313.586,311.013 313.586,311.013 C313.21,312.363 312.813,313.701 312.405,315.035 ZM309.685,322.995 C309.685,322.995 305.804,321.568 305.804,321.568 C306.277,320.286 306.738,318.997 307.178,317.707 C307.178,317.707 311.1,319.037 311.1,319.037 C310.643,320.367 310.174,321.685 309.685,322.995 ZM306.535,330.797 C306.535,330.797 302.744,329.145 302.744,329.145 C303.294,327.891 303.819,326.638 304.328,325.377 C304.328,325.377 308.169,326.916 308.169,326.916 C307.643,328.218 307.102,329.512 306.535,330.797 ZM302.97,338.402 C302.97,338.402 299.268,336.557 299.268,336.557 C299.878,335.34 300.476,334.114 301.054,332.881 C301.054,332.881 304.806,334.622 304.806,334.622 C304.211,335.896 303.597,337.153 302.97,338.402 ZM298.984,345.798 C298.984,345.798 295.395,343.75 295.395,343.75 C296.07,342.57 296.733,341.377 297.379,340.176 C297.379,340.176 301.026,342.126 301.026,342.126 C300.363,343.36 299.684,344.585 298.984,345.798 ZM294.599,352.98 C294.599,352.98 291.13,350.723 291.13,350.723 C291.874,349.587 292.598,348.438 293.305,347.273 C293.305,347.273 296.846,349.417 296.846,349.417 C296.115,350.614 295.366,351.803 294.599,352.98 ZM289.84,359.884 C289.84,359.884 286.485,357.465 286.485,357.465 C287.29,356.357 288.078,355.249 288.854,354.125 C288.854,354.125 292.266,356.462 292.266,356.462 C291.474,357.611 290.661,358.751 289.84,359.884 ZM284.703,366.526 C284.703,366.526 281.493,363.922 281.493,363.922 C282.354,362.866 283.203,361.802 284.04,360.722 C284.04,360.722 287.314,363.245 287.314,363.245 C286.461,364.349 285.588,365.445 284.703,366.526 ZM279.221,372.882 C279.221,372.882 276.149,370.108 276.149,370.108 C277.071,369.097 277.976,368.081 278.865,367.05 C278.865,367.05 282.002,369.742 282.002,369.742 C281.089,370.797 280.159,371.841 279.221,372.882 ZM273.4,378.923 C273.4,378.923 270.489,375.988 270.489,375.988 C271.46,375.033 272.418,374.066 273.364,373.087 C273.364,373.087 276.347,375.94 276.347,375.94 C275.377,376.952 274.395,377.943 273.4,378.923 ZM264.507,381.559 C265.53,380.655 266.54,379.741 267.538,378.81 C267.538,378.81 270.36,381.832 270.36,381.832 C269.337,382.779 268.303,383.718 267.256,384.646 C267.256,384.646 264.507,381.559 264.507,381.559 ZM263.123,116.364 C263.123,116.364 267.12,115.312 267.12,115.312 C267.48,116.662 267.821,118.022 268.147,119.379 C268.147,119.379 264.128,120.325 264.128,120.325 C263.811,119 263.474,117.682 263.123,116.364 ZM260.799,108.523 C260.799,108.523 264.728,107.253 264.728,107.253 C265.163,108.583 265.58,109.92 265.979,111.262 C265.979,111.262 262.014,112.427 262.014,112.427 C261.627,111.121 261.222,109.818 260.799,108.523 ZM258.045,100.821 C258.045,100.821 261.902,99.3400000000001 261.902,99.3400000000001 C262.408,100.646 262.895,101.96 263.366,103.278 C263.366,103.278 259.474,104.654 259.474,104.654 C259.015,103.371 258.539,102.092 258.045,100.821 ZM254.881,93.2790000000005 C254.881,93.2790000000005 258.647,91.585 258.647,91.585 C259.225,92.8630000000003 259.785,94.1499999999996 260.327,95.4440000000004 C260.327,95.4440000000004 256.514,97.027 256.514,97.027 C255.988,95.7690000000002 255.444,94.5209999999997 254.881,93.2790000000005 ZM251.306,85.9059999999999 C251.306,85.9059999999999 254.977,84.0150000000003 254.977,84.0150000000003 C255.623,85.2640000000001 256.252,86.5159999999996 256.863,87.7809999999999 C256.863,87.7809999999999 253.141,89.567 253.141,89.567 C252.546,88.3400000000001 251.937,87.1170000000002 251.306,85.9059999999999 ZM247.332,78.741 C247.332,78.741 250.893,76.6540000000005 250.893,76.6540000000005 C251.605,77.8620000000001 252.302,79.0799999999999 252.982,80.3019999999997 C252.982,80.3019999999997 249.369,82.3019999999997 249.369,82.3019999999997 C248.705,81.1080000000002 248.028,79.9210000000003 247.332,78.741 ZM242.978,71.8019999999997 C242.978,71.8019999999997 246.415,69.5190000000002 246.415,69.5190000000002 C247.197,70.6880000000001 247.962,71.8670000000002 248.706,73.0609999999997 C248.706,73.0609999999997 245.203,75.2380000000003 245.203,75.2380000000003 C244.478,74.085 243.737,72.9390000000003 242.978,71.8019999999997 ZM238.238,65.1049999999996 C238.238,65.1049999999996 241.547,62.6350000000002 241.547,62.6350000000002 C242.392,63.7619999999997 243.219,64.8980000000001 244.029,66.0469999999996 C244.029,66.0469999999996 240.651,68.4200000000001 240.651,68.4200000000001 C239.864,67.3029999999999 239.06,66.1999999999998 238.238,65.1049999999996 ZM233.142,58.6769999999997 C233.142,58.6769999999997 236.304,56.0249999999996 236.304,56.0249999999996 C237.209,57.1040000000003 238.101,58.1940000000004 238.973,59.2950000000001 C238.973,59.2950000000001 235.734,61.8540000000003 235.734,61.8540000000003 C234.886,60.7849999999999 234.025,59.723 233.142,58.6769999999997 ZM227.703,52.5410000000002 C227.703,52.5410000000002 230.713,49.7250000000004 230.713,49.7250000000004 C231.673,50.7470000000003 232.62,51.7849999999999 233.547,52.835 C233.547,52.835 230.457,55.5649999999996 230.457,55.5649999999996 C229.552,54.5479999999998 228.636,53.5379999999996 227.703,52.5410000000002 ZM221.947,46.7280000000001 C221.947,46.7280000000001 224.802,43.7449999999999 224.802,43.7449999999999 C225.814,44.7190000000001 226.817,45.701 227.803,46.6959999999999 C227.803,46.6959999999999 224.867,49.5940000000001 224.867,49.5940000000001 C223.909,48.6229999999996 222.937,47.6700000000001 221.947,46.7280000000001 ZM215.878,41.2309999999998 C215.878,41.2309999999998 218.566,38.1019999999999 218.566,38.1019999999999 C219.631,39.018 220.684,39.9459999999999 221.721,40.8869999999997 C221.721,40.8869999999997 218.948,43.9369999999999 218.948,43.9369999999999 C217.939,43.0209999999997 216.916,42.1210000000001 215.878,41.2309999999998 ZM210.179,108.084 C210.179,108.084 211.824,104.298 211.824,104.298 C213.116,104.854 214.397,105.426 215.67,106.023 C215.67,106.023 213.912,109.758 213.912,109.758 C212.677,109.183 211.433,108.625 210.179,108.084 ZM209.525,36.0799999999999 C209.525,36.0799999999999 212.03,32.8059999999996 212.03,32.8059999999996 C213.148,33.6599999999999 214.248,34.5299999999997 215.333,35.4110000000001 C215.333,35.4110000000001 212.739,38.6139999999996 212.739,38.6139999999996 C211.68,37.7579999999998 210.608,36.9129999999996 209.525,36.0799999999999 ZM204.521,156.785 C205.886,156.451 207.254,156.135 208.629,155.844 C208.629,155.844 209.472,159.885 209.472,159.885 C208.141,160.171 206.812,160.476 205.485,160.8 C205.485,160.8 204.521,156.785 204.521,156.785 ZM202.894,31.2749999999996 C202.894,31.2749999999996 205.227,27.8720000000003 205.227,27.8720000000003 C206.386,28.665 207.531,29.4740000000002 208.662,30.2929999999997 C208.662,30.2929999999997 206.24,33.634 206.24,33.634 C205.139,32.8329999999996 204.022,32.0500000000002 202.894,31.2749999999996 ZM196.021,26.8419999999996 C196.021,26.8419999999996 198.16,23.3140000000003 198.16,23.3140000000003 C199.361,24.0429999999997 200.548,24.7879999999996 201.722,25.5439999999999 C201.722,25.5439999999999 199.489,29.0159999999996 199.489,29.0159999999996 C198.347,28.2799999999997 197.191,27.5529999999999 196.021,26.8419999999996 ZM192.645,420.732 C192.645,420.732 191.909,416.67 191.909,416.67 C193.255,416.429 194.598,416.17 195.927,415.896 C195.927,415.896 196.768,419.935 196.768,419.935 C195.398,420.217 194.023,420.483 192.645,420.732 ZM188.921,22.7799999999997 C188.921,22.7799999999997 190.872,19.1409999999996 190.872,19.1409999999996 C192.1,19.8019999999997 193.324,20.4799999999996 194.542,21.1779999999999 C194.542,21.1779999999999 192.497,24.7610000000004 192.497,24.7610000000004 C191.311,24.0820000000003 190.117,23.4229999999998 188.921,22.7799999999997 ZM193.671,164.207 C192.378,164.64 191.086,165.087 189.802,165.558 C189.802,165.558 188.397,161.676 188.397,161.676 C189.719,161.193 191.048,160.727 192.379,160.284 C192.379,160.284 193.671,164.207 193.671,164.207 ZM184.334,421.986 C184.334,421.986 183.824,417.891 183.824,417.891 C185.183,417.722 186.533,417.536 187.875,417.335 C187.875,417.335 188.497,421.413 188.497,421.413 C187.115,421.623 185.724,421.816 184.334,421.986 ZM181.612,19.1099999999997 C181.612,19.1099999999997 183.356,15.366 183.356,15.366 C184.622,15.9620000000004 185.886,16.5739999999996 187.141,17.2089999999998 C187.141,17.2089999999998 185.288,20.8969999999999 185.288,20.8969999999999 C184.068,20.2830000000004 182.843,19.6840000000002 181.612,19.1099999999997 ZM185.963,167.019 C184.698,167.521 183.437,168.037 182.182,168.573 C182.182,168.573 180.571,164.777 180.571,164.777 C181.859,164.223 183.157,163.689 184.459,163.176 C184.459,163.176 185.963,167.019 185.963,167.019 ZM175.681,418.665 C177.043,418.573 178.402,418.464 179.754,418.331 C179.754,418.331 180.154,422.441 180.154,422.441 C178.761,422.574 177.363,422.691 175.96,422.784 C175.96,422.784 175.681,418.665 175.681,418.665 ZM174.115,15.8289999999997 C174.115,15.8289999999997 175.651,12 175.651,12 C176.948,12.5249999999996 178.243,13.0659999999998 179.526,13.6289999999999 C179.526,13.6289999999999 177.884,17.4139999999998 177.884,17.4139999999998 C176.629,16.8680000000004 175.372,16.3389999999999 174.115,15.8289999999997 ZM178.445,170.232 C177.207,170.801 175.979,171.389 174.757,171.997 C174.757,171.997 172.935,168.289 172.935,168.289 C174.196,167.671 175.461,167.064 176.733,166.477 C176.733,166.477 178.445,170.232 178.445,170.232 ZM167.511,419.012 C168.878,418.992 170.24,418.951 171.596,418.895 C171.596,418.895 171.766,423.021 171.766,423.021 C170.373,423.078 168.975,423.119 167.572,423.138 C167.572,423.138 167.511,419.012 167.511,419.012 ZM171.11,173.862 C169.906,174.498 168.711,175.152 167.52,175.823 C167.52,175.823 165.505,172.223 165.505,172.223 C166.729,171.535 167.961,170.862 169.198,170.21 C169.198,170.21 171.11,173.862 171.11,173.862 ZM166.452,12.9639999999999 C166.452,12.9639999999999 167.779,9.0600000000004 167.779,9.0600000000004 C169.103,9.51500000000033 170.421,9.98599999999988 171.735,10.4740000000002 C171.735,10.4740000000002 170.304,14.3459999999995 170.304,14.3459999999995 C169.022,13.8680000000004 167.736,13.4059999999999 166.452,12.9639999999999 ZM158.297,176.558 C159.481,175.798 160.675,175.063 161.873,174.343 C161.873,174.343 163.989,177.881 163.989,177.881 C162.824,178.583 161.663,179.303 160.511,180.036 C160.511,180.036 158.297,176.558 158.297,176.558 ZM158.646,10.5320000000002 C158.646,10.5320000000002 159.755,6.55299999999988 159.755,6.55299999999988 C161.103,6.9340000000002 162.444,7.33500000000004 163.785,7.7529999999997 C163.785,7.7529999999997 162.566,11.6949999999997 162.566,11.6949999999997 C161.265,11.29 159.956,10.8990000000003 158.646,10.5320000000002 ZM151.337,181.268 C152.479,180.45 153.63,179.649 154.786,178.866 C154.786,178.866 157.091,182.289 157.091,182.289 C155.962,183.05 154.845,183.833 153.732,184.629 C153.732,184.629 151.337,181.268 151.337,181.268 ZM150.72,8.52800000000025 C150.72,8.52800000000025 151.608,4.49300000000039 151.608,4.49300000000039 C152.975,4.80199999999968 154.344,5.1239999999998 155.701,5.47400000000016 C155.701,5.47400000000016 154.692,9.47400000000016 154.692,9.47400000000016 C153.374,9.13900000000012 152.048,8.82200000000012 150.72,8.52800000000025 ZM144.64,186.356 C145.736,185.475 146.842,184.614 147.953,183.768 C147.953,183.768 150.446,187.058 150.446,187.058 C149.363,187.881 148.286,188.719 147.218,189.576 C147.218,189.576 144.64,186.356 144.64,186.356 ZM142.696,6.95700000000033 C142.696,6.95700000000033 143.355,2.88100000000031 143.355,2.88100000000031 C144.738,3.10900000000038 146.113,3.35699999999997 147.492,3.63000000000011 C147.492,3.63000000000011 146.715,7.68299999999999 146.715,7.68299999999999 C145.375,7.42399999999998 144.035,7.17900000000009 142.696,6.95700000000033 ZM140.975,194.864 C140.975,194.864 138.229,191.782 138.229,191.782 C139.269,190.854 140.325,189.934 141.397,189.027 C141.397,189.027 144.059,192.179 144.059,192.179 C143.015,193.063 141.988,193.959 140.975,194.864 ZM134.618,5.83799999999974 C134.618,5.83799999999974 135.063,1.72800000000007 135.063,1.72800000000007 C136.444,1.88600000000042 137.827,2.05699999999979 139.217,2.24799999999959 C139.217,2.24799999999959 138.668,6.34299999999985 138.668,6.34299999999985 C137.314,6.15499999999975 135.968,5.98599999999988 134.618,5.83799999999974 ZM139.014,416.746 C139.014,416.746 138.291,420.809 138.291,420.809 C136.908,420.563 135.53,420.301 134.16,420.02 C134.16,420.02 134.996,415.981 134.996,415.981 C136.33,416.255 137.668,416.509 139.014,416.746 ZM125.971,418.117 C125.971,418.117 127.026,414.127 127.026,414.127 C128.345,414.474 129.666,414.8 130.996,415.107 C130.996,415.107 130.054,419.129 130.054,419.129 C128.688,418.806 127.326,418.472 125.971,418.117 ZM126.5,5.15300000000025 C126.5,5.15300000000025 126.717,1.02999999999975 126.717,1.02999999999975 C128.108,1.10900000000038 129.497,1.20499999999993 130.891,1.31900000000041 C130.891,1.31900000000041 130.572,5.4369999999999 130.572,5.4369999999999 C129.215,5.32700000000023 127.855,5.22900000000027 126.5,5.15300000000025 ZM117.907,415.76 C117.907,415.76 119.18,411.833 119.18,411.833 C120.476,412.249 121.778,412.652 123.087,413.035 C123.087,413.035 121.927,416.993 121.927,416.993 C120.581,416.602 119.239,416.19 117.907,415.76 ZM118.349,4.92100000000028 C118.349,4.92100000000028 118.339,0.78600000000006 118.339,0.78600000000006 C119.74,0.79100000000017 121.138,0.80799999999999 122.538,0.85499999999956 C122.538,0.85499999999956 122.422,4.98099999999977 122.422,4.98099999999977 C121.065,4.94200000000001 119.707,4.91899999999987 118.349,4.92100000000028 ZM109.953,412.962 C109.953,412.962 111.441,409.109 111.441,409.109 C112.714,409.597 113.996,410.073 115.288,410.524 C115.288,410.524 113.913,414.417 113.913,414.417 C112.585,413.95 111.263,413.466 109.953,412.962 ZM109.965,1.0029999999997 C111.358,0.93299999999999 112.754,0.875 114.144,0.83600000000024 C114.144,0.83600000000024 114.277,4.96900000000005 114.277,4.96900000000005 C112.917,5.00699999999961 111.554,5.05699999999979 110.197,5.12899999999991 C110.197,5.12899999999991 109.965,1.0029999999997 109.965,1.0029999999997 ZM102.17,409.726 C102.17,409.726 103.872,405.962 103.872,405.962 C105.117,406.522 106.37,407.062 107.633,407.586 C107.633,407.586 106.04,411.398 106.04,411.398 C104.741,410.858 103.451,410.302 102.17,409.726 ZM101.607,1.67900000000009 C102.999,1.52400000000034 104.391,1.39300000000003 105.789,1.28399999999965 C105.789,1.28399999999965 106.126,5.40599999999995 106.126,5.40599999999995 C104.768,5.51100000000042 103.416,5.63900000000012 102.068,5.78099999999995 C102.068,5.78099999999995 101.607,1.67900000000009 101.607,1.67900000000009 ZM94.58,406.071 C94.58,406.071 96.4880000000001,402.411 96.4880000000001,402.411 C97.699,403.036 98.92,403.644 100.15,404.237 C100.15,404.237 98.352,407.952 98.352,407.952 C97.0839999999999,407.344 95.827,406.719 94.58,406.071 ZM93.298,2.79600000000028 C94.675,2.57099999999991 96.0599999999999,2.36499999999978 97.443,2.17799999999988 C97.443,2.17799999999988 98.01,6.27700000000004 98.01,6.27700000000004 C96.66,6.45700000000033 95.3150000000001,6.65800000000036 93.971,6.8739999999998 C93.971,6.8739999999998 93.298,2.79600000000028 93.298,2.79600000000028 ZM87.2190000000001,402.016 C87.2190000000001,402.016 89.313,398.454 89.313,398.454 C90.491,399.143 91.678,399.82 92.876,400.481 C92.876,400.481 90.871,404.091 90.871,404.091 C89.645,403.415 88.426,402.722 87.2190000000001,402.016 ZM85.0650000000001,4.36499999999978 C86.427,4.07099999999991 87.795,3.78999999999996 89.167,3.52499999999964 C89.167,3.52499999999964 89.965,7.58299999999963 89.965,7.58299999999963 C88.626,7.83899999999994 87.2910000000001,8.11200000000008 85.9589999999999,8.40499999999975 C85.9589999999999,8.40499999999975 85.0650000000001,4.36499999999978 85.0650000000001,4.36499999999978 ZM83.615,399.836 C82.425,399.09 81.247,398.332 80.078,397.555 C80.078,397.555 82.374,394.121 82.374,394.121 C83.51,394.875 84.6559999999999,395.616 85.814,396.337 C85.814,396.337 83.615,399.836 83.615,399.836 ZM76.917,6.38699999999972 C78.2670000000001,6.01000000000022 79.616,5.65700000000015 80.97,5.31999999999971 C80.97,5.31999999999971 81.985,9.32999999999993 81.985,9.32999999999993 C80.664,9.65800000000036 79.347,10.0020000000004 78.0359999999999,10.3630000000003 C78.0359999999999,10.3630000000003 76.917,6.38699999999972 76.917,6.38699999999972 ZM76.61,395.189 C75.462,394.383 74.326,393.56 73.202,392.722 C73.202,392.722 75.6799999999999,389.417 75.6799999999999,389.417 C76.771,390.232 77.875,391.03 78.991,391.811 C78.991,391.811 76.61,395.189 76.61,395.189 ZM68.899,8.84199999999964 C70.222,8.39900000000034 71.553,7.97299999999996 72.889,7.55599999999959 C72.889,7.55599999999959 74.125,11.5079999999998 74.125,11.5079999999998 C72.817,11.9099999999999 71.522,12.3230000000003 70.232,12.7579999999998 C70.232,12.7579999999998 68.899,8.84199999999964 68.899,8.84199999999964 ZM72.434,386.931 C72.434,386.931 69.867,390.171 69.867,390.171 C68.7670000000001,389.305 67.6799999999999,388.422 66.605,387.527 C66.605,387.527 69.2569999999999,384.36 69.2569999999999,384.36 C70.303,385.23 71.3630000000001,386.088 72.434,386.931 ZM61.025,11.7280000000001 C62.321,11.2120000000004 63.629,10.7139999999999 64.941,10.2349999999997 C64.941,10.2349999999997 66.381,14.1109999999999 66.381,14.1109999999999 C65.103,14.5820000000003 63.831,15.0649999999996 62.562,15.5680000000002 C62.562,15.5680000000002 61.025,11.7280000000001 61.025,11.7280000000001 ZM66.15,381.703 C66.15,381.703 63.413,384.799 63.413,384.799 C62.362,383.876 61.324,382.937 60.299,381.986 C60.299,381.986 63.12,378.963 63.12,378.963 C64.117,379.889 65.127,380.805 66.15,381.703 ZM54.308,376.101 C54.308,376.101 57.287,373.24 57.287,373.24 C58.2329999999999,374.219 59.193,375.182 60.165,376.138 C60.165,376.138 57.259,379.08 57.259,379.08 C56.2619999999999,378.101 55.278,377.105 54.308,376.101 ZM53.316,15.0439999999999 C54.581,14.4589999999998 55.86,13.8909999999996 57.1420000000001,13.3339999999998 C57.1420000000001,13.3339999999998 58.802,17.125 58.802,17.125 C57.546,17.6700000000001 56.304,18.223 55.0650000000001,18.7950000000001 C55.0650000000001,18.7950000000001 53.316,15.0439999999999 53.316,15.0439999999999 ZM45.793,18.7749999999996 C47.0309999999999,18.1180000000004 48.279,17.4759999999997 49.538,16.8540000000003 C49.538,16.8540000000003 51.377,20.5630000000001 51.377,20.5630000000001 C50.159,21.1629999999996 48.953,21.7830000000004 47.752,22.4250000000002 C47.752,22.4250000000002 45.793,18.7749999999996 45.793,18.7749999999996 ZM38.49,22.9219999999996 C39.688,22.1980000000003 40.895,21.4899999999998 42.1130000000001,20.8019999999997 C42.1130000000001,20.8019999999997 44.163,24.393 44.163,24.393 C42.982,25.0659999999998 41.8049999999999,25.7550000000001 40.638,26.4589999999998 C40.638,26.4589999999998 38.49,22.9219999999996 38.49,22.9219999999996 ZM31.423,27.4570000000003 C32.582,26.6629999999996 33.75,25.8940000000002 34.924,25.1369999999997 C34.924,25.1369999999997 37.173,28.6130000000003 37.173,28.6130000000003 C36.03,29.3500000000004 34.8920000000001,30.1000000000004 33.768,30.8670000000002 C33.768,30.8670000000002 31.423,27.4570000000003 31.423,27.4570000000003 ZM24.612,32.3770000000004 C25.726,31.5249999999996 26.85,30.6859999999997 27.99,29.8680000000004 C27.99,29.8680000000004 30.415,33.223 30.415,33.223 C29.3049999999999,34.0219999999999 28.215,34.8329999999996 27.136,35.6589999999997 C27.136,35.6589999999997 24.612,32.3770000000004 24.612,32.3770000000004 ZM18.085,37.6670000000004 C19.155,36.7539999999999 20.228,35.8590000000004 21.314,34.9809999999998 C21.314,34.9809999999998 23.93,38.1859999999997 23.93,38.1859999999997 C22.872,39.0479999999998 21.82,39.924 20.785,40.8090000000002 C20.785,40.8090000000002 18.085,37.6670000000004 18.085,37.6670000000004 ZM11.868,43.308 C12.877,42.3370000000004 13.899,41.3869999999997 14.928,40.4470000000001 C14.928,40.4470000000001 17.724,43.5060000000003 17.724,43.5060000000003 C16.718,44.4219999999996 15.72,45.3490000000002 14.738,46.29 C14.738,46.29 11.868,43.308 11.868,43.308 ZM5.976,49.2730000000001 C6.93299999999999,48.2479999999996 7.89999999999998,47.2380000000003 8.88,46.2449999999999 C8.88,46.2449999999999 11.828,49.1589999999997 11.828,49.1589999999997 C10.874,50.1220000000003 9.935,51.1019999999999 9.005,52.0959999999995 C9.005,52.0959999999995 5.976,49.2730000000001 5.976,49.2730000000001 ZM3.61099999999999,58.1959999999999 C3.61099999999999,58.1959999999999 0.43200000000002,55.5469999999996 0.43200000000002,55.5469999999996 C1.32600000000002,54.4700000000003 2.238,53.4089999999997 3.166,52.3620000000001 C3.166,52.3620000000001 6.26600000000002,55.1139999999996 6.26600000000002,55.1139999999996 C5.36900000000003,56.1229999999996 4.48399999999998,57.1540000000005 3.61099999999999,58.1959999999999 ZM147.101,417.944 C147.101,417.944 146.608,422.038 146.608,422.038 C145.211,421.873 143.823,421.684 142.44,421.478 C142.44,421.478 143.046,417.399 143.046,417.399 C144.393,417.597 145.745,417.779 147.101,417.944 ZM155.251,418.701 C155.251,418.701 154.972,422.82 154.972,422.82 C153.571,422.727 152.174,422.615 150.784,422.486 C150.784,422.486 151.172,418.375 151.172,418.375 C152.526,418.504 153.886,418.609 155.251,418.701 ZM163.42,419.015 C163.42,419.015 163.372,423.143 163.372,423.143 C161.967,423.126 160.567,423.09 159.172,423.038 C159.172,423.038 159.329,418.911 159.329,418.911 C160.688,418.963 162.052,419 163.42,419.015 ZM200.446,157.84 C200.446,157.84 201.516,161.832 201.516,161.832 C200.198,162.189 198.888,162.568 197.579,162.966 C197.579,162.966 196.395,159.007 196.395,159.007 C197.741,158.599 199.091,158.209 200.446,157.84 ZM204.95,418.004 C203.596,418.363 202.238,418.701 200.871,419.024 C200.871,419.024 199.917,415.01 199.917,415.01 C201.243,414.695 202.569,414.365 203.883,414.014 C203.883,414.014 204.95,418.004 204.95,418.004 ZM213.011,415.626 C211.676,416.057 210.335,416.477 208.988,416.867 C208.988,416.867 207.824,412.91 207.824,412.91 C209.13,412.527 210.431,412.124 211.725,411.701 C211.725,411.701 213.011,415.626 213.011,415.626 ZM216.887,154.3 C216.887,154.3 217.526,158.384 217.526,158.384 C216.179,158.601 214.833,158.832 213.488,159.082 C213.488,159.082 212.749,155.016 212.749,155.016 C214.127,154.761 215.508,154.522 216.887,154.3 ZM220.934,412.809 C219.628,413.317 218.318,413.804 216.992,414.272 C216.992,414.272 215.602,410.387 215.602,410.387 C216.887,409.928 218.165,409.456 219.43,408.964 C219.43,408.964 220.934,412.809 220.934,412.809 ZM219.456,107.849 C220.709,108.475 221.956,109.118 223.19,109.773 C223.19,109.773 221.243,113.419 221.243,113.419 C220.038,112.778 218.825,112.151 217.6,111.539 C217.6,111.539 219.456,107.849 219.456,107.849 ZM225.635,157.325 C224.279,157.464 222.924,157.619 221.571,157.797 C221.571,157.797 221.054,153.696 221.054,153.696 C222.447,153.516 223.838,153.353 225.234,153.212 C225.234,153.212 225.635,157.325 225.635,157.325 ZM228.659,409.577 C227.389,410.145 226.112,410.702 224.818,411.245 C224.818,411.245 223.21,407.441 223.21,407.441 C224.471,406.913 225.716,406.373 226.953,405.812 C226.953,405.812 228.659,409.577 228.659,409.577 ZM224.825,115.39 C224.825,115.39 226.88,111.804 226.88,111.804 C228.1,112.501 229.308,113.21 230.507,113.939 C230.507,113.939 228.353,117.464 228.353,117.464 C227.187,116.757 226.012,116.063 224.825,115.39 ZM233.789,156.707 C232.43,156.771 231.071,156.856 229.713,156.96 C229.713,156.96 229.413,152.837 229.413,152.837 C230.811,152.73 232.211,152.644 233.61,152.578 C233.61,152.578 233.789,156.707 233.789,156.707 ZM231.828,119.633 C231.828,119.633 234.069,116.161 234.069,116.161 C235.249,116.919 236.417,117.695 237.575,118.486 C237.575,118.486 235.234,121.89 235.234,121.89 C234.11,121.121 232.975,120.368 231.828,119.633 ZM236.198,405.925 C234.961,406.566 233.716,407.191 232.458,407.803 C232.458,407.803 230.64,404.096 230.64,404.096 C231.864,403.499 233.085,402.891 234.29,402.266 C234.29,402.266 236.198,405.925 236.198,405.925 ZM241.959,156.535 C240.598,156.527 239.235,156.537 237.874,156.566 C237.874,156.566 237.804,152.43 237.804,152.43 C239.203,152.402 240.603,152.394 242.001,152.402 C242.001,152.402 241.959,156.535 241.959,156.535 ZM238.579,124.241 C238.579,124.241 241.011,120.898 241.011,120.898 C242.145,121.719 243.268,122.556 244.378,123.406 C244.378,123.406 241.858,126.68 241.858,126.68 C240.776,125.853 239.683,125.039 238.579,124.241 ZM243.535,401.867 C242.326,402.576 241.114,403.274 239.885,403.946 C239.885,403.946 237.888,400.335 237.888,400.335 C239.076,399.678 240.256,399.005 241.425,398.313 C241.425,398.313 243.535,401.867 243.535,401.867 ZM250.633,397.413 C249.469,398.184 248.297,398.945 247.12,399.686 C247.12,399.686 244.905,396.196 244.905,396.196 C246.057,395.471 247.205,394.733 248.337,393.98 C248.337,393.98 250.633,397.413 250.633,397.413 ZM250.121,156.807 C248.764,156.724 247.403,156.659 246.043,156.614 C246.043,156.614 246.197,152.483 246.197,152.483 C247.594,152.528 248.992,152.594 250.387,152.678 C250.387,152.678 250.121,156.807 250.121,156.807 ZM247.679,126.002 C248.766,126.881 249.843,127.777 250.905,128.685 C250.905,128.685 248.21,131.821 248.21,131.821 C247.176,130.936 246.129,130.063 245.07,129.207 C245.07,129.207 247.679,126.002 247.679,126.002 ZM257.132,134.32 C257.132,134.32 254.271,137.301 254.271,137.301 C253.286,136.361 252.288,135.438 251.277,134.523 C251.277,134.523 254.061,131.464 254.061,131.464 C255.097,132.402 256.121,133.356 257.132,134.32 ZM257.485,392.573 C256.365,393.415 255.234,394.238 254.085,395.044 C254.085,395.044 251.7,391.666 251.7,391.666 C252.816,390.885 253.916,390.086 255.003,389.277 C255.003,389.277 257.485,392.573 257.485,392.573 ZM254.578,152.993 C255.968,153.117 257.36,153.261 258.746,153.42 C258.746,153.42 258.256,157.525 258.256,157.525 C256.904,157.369 255.552,157.235 254.195,157.114 C254.195,157.114 254.578,152.993 254.578,152.993 ZM264.07,387.379 C262.999,388.273 261.912,389.156 260.816,390.022 C260.816,390.022 258.245,386.782 258.245,386.782 C259.316,385.94 260.371,385.081 261.418,384.21 C261.418,384.21 264.07,387.379 264.07,387.379 Z "/></svg>