<svg xmlns="http://www.w3.org/2000/svg" xmlns:xlink="http://www.w3.org/1999/xlink" width="145" height="472" viewBox="0 0 145 472"><svg baseProfile="full" height="34" width="41" viewBox="-6 -6 41 34" id="checkmark" y="0"><defs><filter filterUnits="userSpaceOnUse" x="63" y="2346" width="32" height="25"><feOffset in="SourceAlpha" dy="1"/><feGaussianBlur result="blurOut"/><feFlood flood-color="rgb( 255, 255, 255 )" result="floodOut"/><feComposite operator="atop" in="floodOut" in2="blurOut"/><feComponentTransfer><feFuncA type="linear" slope=".22"/></feComponentTransfer><feMerge><feMergeNode/><feMergeNode in="SourceGraphic"/></feMerge></filter><filter id="aaa"><feOffset in="SourceAlpha"/><feGaussianBlur result="blurOut" stdDeviation="1.414"/><feFlood flood-color="rgb( 74, 74, 74 )" result="floodOut"/><feComposite operator="out" in="floodOut" in2="blurOut" result="compOut"/><feComposite operator="in" in="compOut" in2="SourceAlpha"/><feComponentTransfer><feFuncA type="linear" slope=".17"/></feComponentTransfer><feBlend in2="SourceGraphic"/></filter><linearGradient id="aab" x1="0%" x2="0%" y1="100%" y2="0%"><stop offset="0%" stop-color="#f11352"/><stop offset="100%" stop-color="#ff8caa"/></linearGradient></defs><path fill-opacity=".702" fill="rgb( 252, 85, 111 )" d="M11.317 14.897L25.457 0l3.537 3.548-17.677 18.446L.007 9.936l3.536-3.55 7.774 8.51z" filter="url(#aaa)"/><path fill="url(#aab)" d="M11.317 14.897L25.457 0l3.537 3.548-17.677 18.446L.007 9.936l3.536-3.55 7.774 8.51z"/></svg>
<svg baseProfile="full" height="58" width="59" viewBox="-6 -6 59 58" id="coins" y="34"><defs><filter filterUnits="userSpaceOnUse" x="289" y="1688" width="50" height="49"><feOffset in="SourceAlpha" dy="1"/><feGaussianBlur result="blurOut"/><feFlood flood-color="rgb( 255, 255, 255 )" result="floodOut"/><feComposite operator="atop" in="floodOut" in2="blurOut"/><feComponentTransfer><feFuncA type="linear" slope=".22"/></feComponentTransfer><feMerge><feMergeNode/><feMergeNode in="SourceGraphic"/></feMerge></filter><filter id="aba"><feOffset in="SourceAlpha"/><feGaussianBlur result="blurOut" stdDeviation="1.414"/><feFlood flood-color="rgb( 74, 74, 74 )" result="floodOut"/><feComposite operator="out" in="floodOut" in2="blurOut" result="compOut"/><feComposite operator="in" in="compOut" in2="SourceAlpha"/><feComponentTransfer><feFuncA type="linear" slope=".17"/></feComponentTransfer><feBlend in2="SourceGraphic"/></filter><linearGradient id="abb" x1="0%" x2="0%" y1="100%" y2="0%"><stop offset="0%" stop-color="#f11352"/><stop offset="100%" stop-color="#ff8caa"/></linearGradient></defs><path fill-opacity=".702" fill="rgb( 190, 49, 62 )" d="M43.388 37.478l-6.716-6.573v-2.36c-.732.097-1.465.165-2.187.218l-2.356-2.306c6.32-.037 10.185-1.663 10.545-2.404-.364-.75-4.31-2.41-10.764-2.41-1.62 0-3.1.11-4.412.282l-3.113-3.046c.112-.018.232-.03.342-.05v-2.977c-1.058.142-2.118.237-3.13.298l-2.385-2.334.13.002c2.004 0 3.818-.162 5.384-.406v-2.978c-1.89.253-3.813.373-5.386.373-1.124 0-2.26-.06-3.37-.165l-2.95-2.89c1.628.372 3.744.645 6.32.645 6.46.003 11-1.654 11.36-2.404-.36-.75-4.9-2.408-11.356-2.408-4.396 0-7.476.79-9.026 1.523L8.54 3.368c2.347-1.492 6.68-2.19 10.804-2.19 5.255 0 13.644 1.264 13.758 4.74h.008V19.26c5.162.177 11.853 1.498 11.96 4.718h.015v10.986c0 1.005-.638 1.84-1.697 2.514zm.458 8.43L.85 3.61 3.613.832l42.995 42.302-2.76 2.777zM9.17 16.83c.075.42 1.36 1.175 3.697 1.728l2.974 2.91c-2.57-.255-4.983-.793-6.67-1.653v2.433c.127.695 3.53 2.297 9.576 2.4v-.337l3.097 3.03c-.243-.097-.49-.194-.702-.302v2.434c.083.46 1.85 1.318 4.794 1.876l2.875 2.814c-2.933-.232-5.873-.79-7.67-1.705v2.51c.19.617 4.226 2.295 10.87 2.33l2.4 2.346c-.73.042-1.466.065-2.195.065-6.2 0-13.47-1.484-13.47-4.74V32.47c-5.927-.137-11.97-1.626-11.97-4.727v-15.15l2.395 2.343v1.892zm0 10.912c.182.597 3.4 2.175 9.575 2.318v-3.01c-3.592-.058-7.262-.64-9.576-1.82v2.51z" filter="url(#aba)"/><path fill="url(#abb)" d="M43.388 37.478l-6.716-6.573v-2.36c-.732.097-1.465.165-2.187.218l-2.356-2.306c6.32-.037 10.185-1.663 10.545-2.404-.364-.75-4.31-2.41-10.764-2.41-1.62 0-3.1.11-4.412.282l-3.113-3.046c.112-.018.232-.03.342-.05v-2.977c-1.058.142-2.118.237-3.13.298l-2.385-2.334.13.002c2.004 0 3.818-.162 5.384-.406v-2.978c-1.89.253-3.813.373-5.386.373-1.124 0-2.26-.06-3.37-.165l-2.95-2.89c1.628.372 3.744.645 6.32.645 6.46.003 11-1.654 11.36-2.404-.36-.75-4.9-2.408-11.356-2.408-4.396 0-7.476.79-9.026 1.523L8.54 3.368c2.347-1.492 6.68-2.19 10.804-2.19 5.255 0 13.644 1.264 13.758 4.74h.008V19.26c5.162.177 11.853 1.498 11.96 4.718h.015v10.986c0 1.005-.638 1.84-1.697 2.514zm.458 8.43L.85 3.61 3.613.832l42.995 42.302-2.76 2.777zM9.17 16.83c.075.42 1.36 1.175 3.697 1.728l2.974 2.91c-2.57-.255-4.983-.793-6.67-1.653v2.433c.127.695 3.53 2.297 9.576 2.4v-.337l3.097 3.03c-.243-.097-.49-.194-.702-.302v2.434c.083.46 1.85 1.318 4.794 1.876l2.875 2.814c-2.933-.232-5.873-.79-7.67-1.705v2.51c.19.617 4.226 2.295 10.87 2.33l2.4 2.346c-.73.042-1.466.065-2.195.065-6.2 0-13.47-1.484-13.47-4.74V32.47c-5.927-.137-11.97-1.626-11.97-4.727v-15.15l2.395 2.343v1.892zm0 10.912c.182.597 3.4 2.175 9.575 2.318v-3.01c-3.592-.058-7.262-.64-9.576-1.82v2.51z"/></svg>
<svg baseProfile="full" height="172" width="145" viewBox="-6 -6 145 172" id="logo" y="92"><path fill="rgb( 255, 255, 255 )" d="M1.118 140.98v-2.24H133v2.24H1.118zm128.528-10.07l-.627-.095-.076-.02-22.86-3.378-.36-.53L68.577 72.25l-30.11 52.874-25.027 4.083-.32-.38L0 113.427v-97.88l.35-.263L20.758 0l1.145.855 19.24 14.552v26.058l10.063-17.613 24.417-6.177 14.89 21.717V15.836l19.572-14.69 19.563 14.69v112.63-.002 2.446zm-21.863-6.198l18.276 2.805-48.827-70.465-7.21 12.66 37.76 55zM38.216 16.872l-16.58-12.42V75.6l16.58-29.018v-29.71zm14.91 9.516L18.71 86.618V5.19L2.926 17.013v95.333l10.848 12.737 58.27-103.48-18.917 4.784zm56.04-20.91L93.436 17.3v26.358l15.73 22.94V5.478zM126.72 17.3L112.09 6.314V76.04L75.116 22.11 16.788 125.693l19.83-3.233 40.376-70.896 49.728 71.772V17.3zM6.635 150.295c.48.16.844.375 1.087.646.44.51.66 1.08.66 1.718 0 .77-.248 1.34-.744 1.716-.168.13-.285.214-.35.247-.066.033-.183.087-.35.16.606.13 1.09.407 1.45.825.36.418.54.934.54 1.554 0 .684-.234 1.29-.7 1.812-.543.61-1.488.916-2.834.916h-4.29v-9.83h3.813c.664 0 1.237.08 1.718.24zM3.29 158.03h1.502c.625 0 1.096-.078 1.408-.233.314-.154.47-.46.47-.914s-.165-.754-.497-.9c-.332-.144-.863-.218-1.592-.218H3.29v2.265zm0-6.118v2.123h1.04c.608 0 1.06-.065 1.354-.197.294-.13.442-.414.442-.85s-.136-.724-.407-.865c-.27-.14-.73-.21-1.375-.21H3.29zm18.05.1h-4.88v2.023h4.39v1.87h-4.39v2.04h5.034v1.94H14.27v-9.83h7.07v1.956zm9.143 6.046c.4 0 .717-.088.946-.26.227-.175.342-.408.342-.704 0-.295-.122-.53-.365-.702-.243-.174-.725-.35-1.444-.528-1.14-.272-1.976-.626-2.504-1.062-.53-.436-.793-1.12-.793-2.054 0-.932.334-1.652 1.003-2.16.67-.504 1.503-.757 2.504-.757.654 0 1.31.115 1.963.34.654.224 1.225.543 1.71.955l-1.107 1.604c-.85-.648-1.73-.97-2.636-.97-.365 0-.653.085-.863.26-.21.172-.313.402-.313.687 0 .287.128.514.386.683.257.168.85.367 1.78.596.93.23 1.653.574 2.167 1.034.513.46.77 1.13.77 2.01 0 .882-.33 1.597-.988 2.146-.66.547-1.527.823-2.602.823-1.552 0-2.95-.58-4.192-1.733l1.303-1.602c1.06.927 2.036 1.392 2.934 1.392zm15.846-6.103H43.55v7.93h-2.188v-7.93h-2.777v-1.9h7.74v1.9zm15.37 3.754l1.737-5.656h2.286l1.725 5.654 1.948-5.655h2.37l-3.422 9.83H66.72l-2.146-6.834-2.132 6.835h-1.626l-3.422-9.83h2.37l1.935 5.653zm19.814-5.656l4.235 9.83h-2.33l-.91-2.123H78.4l-.91 2.125h-2.328l4.235-9.83h2.118zm.168 5.78l-1.22-2.854-1.234 2.855h2.453zm10.896 2.096h4.178v1.956H90.39v-9.83h2.19v7.875zm11.47 0h4.18v1.956h-6.368v-9.83h2.188v7.875zm16.352-5.92h-4.88v2.025h4.39v1.87h-4.39v2.04h5.034v1.94h-7.222v-9.83h7.068v1.956zm12.537-.055h-2.778v7.93h-2.19v-7.93h-2.776v-1.9h7.742v1.9z"/></svg>
<svg baseProfile="full" height="47" width="52" viewBox="-6 -6 52 47" id="money" y="264"><defs><filter filterUnits="userSpaceOnUse" x="179" y="1820" width="41" height="37"><feOffset in="SourceAlpha" dy="1"/><feGaussianBlur result="blurOut"/><feFlood flood-color="rgb( 255, 255, 255 )" result="floodOut"/><feComposite operator="atop" in="floodOut" in2="blurOut"/><feComponentTransfer><feFuncA type="linear" slope=".22"/></feComponentTransfer><feMerge><feMergeNode/><feMergeNode in="SourceGraphic"/></feMerge></filter><filter id="ada"><feOffset in="SourceAlpha"/><feGaussianBlur result="blurOut" stdDeviation="1.414"/><feFlood flood-color="rgb( 74, 74, 74 )" result="floodOut"/><feComposite operator="out" in="floodOut" in2="blurOut" result="compOut"/><feComposite operator="in" in="compOut" in2="SourceAlpha"/><feComponentTransfer><feFuncA type="linear" slope=".17"/></feComponentTransfer><feBlend in2="SourceGraphic"/></filter><linearGradient id="adb" x1="0%" x2="0%" y1="100%" y2="0%"><stop offset="0%" stop-color="#f11352"/><stop offset="100%" stop-color="#ff8caa"/></linearGradient></defs><path fill-opacity=".702" fill="rgb( 190, 49, 62 )" d="M.996 34V.015h38.007V34H.996zm2.376-2.34H29.53l-1.197-1.18H3.373v1.18zm0-3.524h22.586l-1.197-1.18H3.374v1.18zm0-3.52h19.013l-1.198-1.182H3.372v1.18zm0-3.524h3.56c0-1.937-1.597-3.513-3.56-3.514v3.514zm0-18.736V5.87c1.963-.003 3.56-1.578 3.56-3.514h-3.56zm33.255 0h-3.58c0 1.937 1.598 3.513 3.563 3.513.005 0 .01-.004.017-.004v-3.51zm0 5.854h-.017c-3.276 0-5.94-2.626-5.94-5.854H9.308c0 3.227-2.663 5.854-5.935 5.855v7.028c3.272 0 5.935 2.626 5.935 5.855H30.67c0-3.23 2.664-5.855 5.94-5.855h.017V8.21zm0 9.37l-.017-.002c-1.965 0-3.563 1.576-3.563 3.514h3.58V17.58zM20 18.77c-3.93 0-7.127-3.16-7.127-7.047 0-3.886 3.198-7.047 7.126-7.047 3.927 0 7.125 3.16 7.125 7.047 0 3.886-3.198 7.048-7.127 7.048zm.017-10c.373 0 .72.167.946.462l.945-.71c-.337-.435-.802-.73-1.324-.854V6.454h-1.188V7.69c-1.007.27-1.754 1.17-1.754 2.25 0 1.29 1.065 2.342 2.375 2.342.655 0 1.188.525 1.188 1.17 0 .646-.533 1.172-1.188 1.172-.362 0-.698-.16-.926-.437l-.923.735c.32.39.75.656 1.23.783v1.31h1.188V15.72c1.036-.253 1.808-1.17 1.808-2.268 0-1.29-1.064-2.34-2.375-2.34-.654 0-1.188-.527-1.188-1.172 0-.647.533-1.17 1.187-1.17z" filter="url(#ada)"/><path fill="url(#adb)" d="M.996 34V.015h38.007V34H.996zm2.376-2.34H29.53l-1.197-1.18H3.373v1.18zm0-3.524h22.586l-1.197-1.18H3.374v1.18zm0-3.52h19.013l-1.198-1.182H3.372v1.18zm0-3.524h3.56c0-1.937-1.597-3.513-3.56-3.514v3.514zm0-18.736V5.87c1.963-.003 3.56-1.578 3.56-3.514h-3.56zm33.255 0h-3.58c0 1.937 1.598 3.513 3.563 3.513.005 0 .01-.004.017-.004v-3.51zm0 5.854h-.017c-3.276 0-5.94-2.626-5.94-5.854H9.308c0 3.227-2.663 5.854-5.935 5.855v7.028c3.272 0 5.935 2.626 5.935 5.855H30.67c0-3.23 2.664-5.855 5.94-5.855h.017V8.21zm0 9.37l-.017-.002c-1.965 0-3.563 1.576-3.563 3.514h3.58V17.58zM20 18.77c-3.93 0-7.127-3.16-7.127-7.047 0-3.886 3.198-7.047 7.126-7.047 3.927 0 7.125 3.16 7.125 7.047 0 3.886-3.198 7.048-7.127 7.048zm.017-10c.373 0 .72.167.946.462l.945-.71c-.337-.435-.802-.73-1.324-.854V6.454h-1.188V7.69c-1.007.27-1.754 1.17-1.754 2.25 0 1.29 1.065 2.342 2.375 2.342.655 0 1.188.525 1.188 1.17 0 .646-.533 1.172-1.188 1.172-.362 0-.698-.16-.926-.437l-.923.735c.32.39.75.656 1.23.783v1.31h1.188V15.72c1.036-.253 1.808-1.17 1.808-2.268 0-1.29-1.064-2.34-2.375-2.34-.654 0-1.188-.527-1.188-1.172 0-.647.533-1.17 1.187-1.17z"/></svg>
<svg baseProfile="full" height="55" width="38" viewBox="-6 -6 38 55" id="phone" y="311"><defs><filter filterUnits="userSpaceOnUse" x="406" y="1816" width="29" height="46"><feOffset in="SourceAlpha" dy="1"/><feGaussianBlur result="blurOut"/><feFlood flood-color="rgb( 255, 255, 255 )" result="floodOut"/><feComposite operator="atop" in="floodOut" in2="blurOut"/><feComponentTransfer><feFuncA type="linear" slope=".22"/></feComponentTransfer><feMerge><feMergeNode/><feMergeNode in="SourceGraphic"/></feMerge></filter><filter id="aea"><feOffset in="SourceAlpha"/><feGaussianBlur result="blurOut" stdDeviation="1.414"/><feFlood flood-color="rgb( 74, 74, 74 )" result="floodOut"/><feComposite operator="out" in="floodOut" in2="blurOut" result="compOut"/><feComposite operator="in" in="compOut" in2="SourceAlpha"/><feComponentTransfer><feFuncA type="linear" slope=".17"/></feComponentTransfer><feBlend in2="SourceGraphic"/></filter><linearGradient id="aeb" x1="0%" x2="0%" y1="100%" y2="0%"><stop offset="0%" stop-color="#f11352"/><stop offset="100%" stop-color="#ff8caa"/></linearGradient></defs><path fill-opacity=".702" fill="rgb( 190, 49, 62 )" d="M21.62.22H3.66C1.644.22.002 1.856.002 3.87v35.195c0 2.014 1.642 3.652 3.66 3.652H21.62c2.018 0 3.658-1.64 3.658-3.653V3.872c0-2.015-1.64-3.653-3.66-3.653zM10.64 2.875h3.99c.367 0 .666.296.666.664 0 .366-.3.663-.665.663h-3.99c-.37 0-.665-.297-.665-.664 0-.37.297-.665.665-.665zm1.998 37.187c-1.1 0-1.994-.893-1.994-1.993s.894-1.99 1.994-1.99c1.102 0 1.995.89 1.995 1.99s-.893 1.992-1.995 1.992zm9.974-6.64H2.66V6.86h19.954v26.563z" filter="url(#aea)"/><path fill="url(#aeb)" d="M21.62.22H3.66C1.644.22.002 1.856.002 3.87v35.195c0 2.014 1.642 3.652 3.66 3.652H21.62c2.018 0 3.658-1.64 3.658-3.653V3.872c0-2.015-1.64-3.653-3.66-3.653zM10.64 2.875h3.99c.367 0 .666.296.666.664 0 .366-.3.663-.665.663h-3.99c-.37 0-.665-.297-.665-.664 0-.37.297-.665.665-.665zm1.998 37.187c-1.1 0-1.994-.893-1.994-1.993s.894-1.99 1.994-1.99c1.102 0 1.995.89 1.995 1.99s-.893 1.992-1.995 1.992zm9.974-6.64H2.66V6.86h19.954v26.563z"/></svg>
<svg baseProfile="full" height="59" width="60" viewBox="-6 -6 60 59" id="satellite" y="366"><defs><filter filterUnits="userSpaceOnUse" x="93" y="1688" width="50" height="50"><feOffset in="SourceAlpha" dy="1"/><feGaussianBlur result="blurOut"/><feFlood flood-color="rgb( 255, 255, 255 )" result="floodOut"/><feComposite operator="atop" in="floodOut" in2="blurOut"/><feComponentTransfer><feFuncA type="linear" slope=".22"/></feComponentTransfer><feMerge><feMergeNode/><feMergeNode in="SourceGraphic"/></feMerge></filter><filter id="afa"><feOffset in="SourceAlpha"/><feGaussianBlur result="blurOut" stdDeviation="1.414"/><feFlood flood-color="rgb( 74, 74, 74 )" result="floodOut"/><feComposite operator="out" in="floodOut" in2="blurOut" result="compOut"/><feComposite operator="in" in="compOut" in2="SourceAlpha"/><feComponentTransfer><feFuncA type="linear" slope=".17"/></feComponentTransfer><feBlend in2="SourceGraphic"/></filter><linearGradient id="afb" x1="0%" x2="0%" y1="100%" y2="0%"><stop offset="0%" stop-color="#f11352"/><stop offset="100%" stop-color="#ff8caa"/></linearGradient></defs><path fill-opacity=".702" fill="rgb( 252, 26, 95 )" d="M38.15 11.758c-.258 0-.504-.045-.743-.107l-1.972 1.965c.795 1.19 1.224 2.587 1.224 4.05 0 1.962-.77 3.805-2.165 5.192l-4.707 4.682 2.08 2.07 2.61-2.598 12.528 12.462-7.308 7.27L27.172 34.28l2.61-2.596-2.08-2.07-4.694 4.668-1.748-1.738c.113.56.173 1.14.173 1.732 0 2.436-.995 4.642-2.6 6.24L6.303 28.05c1.604-1.6 3.82-2.588 6.27-2.588.597 0 1.18.06 1.742.172l-1.748-1.738 4.694-4.67-2.097-2.086-2.61 2.598L.026 7.278 7.334.007 19.86 12.47l-2.608 2.595 2.098 2.087 4.705-4.68c1.396-1.39 3.248-2.15 5.22-2.15 1.47 0 2.875.424 4.072 1.215l1.963-1.954c-.066-.245-.112-.5-.112-.765 0-1.622 1.32-2.935 2.952-2.935 1.63 0 2.954 1.313 2.954 2.937 0 1.62-1.323 2.936-2.953 2.938zm1.55 30.83l3.132-3.116-8.352-8.308-3.132 3.115 8.352 8.31zM7.334 4.163L4.202 7.277l8.352 8.31 3.132-3.118-8.352-8.31zM32.408 14.55c-1.674-1.67-4.59-1.666-6.265 0l-9.4 9.348 2.496 2.48 9.526-9.48 3.758 3.738c.755-.815 1.18-1.857 1.18-2.972 0-1.177-.46-2.283-1.297-3.115zM11.08 38.18h.003c.326 0 .64-.07.934-.205l1.246 2.663c-.686.317-1.42.478-2.18.478h-.003c-1.378 0-2.676-.534-3.65-1.503-.977-.974-1.515-2.264-1.515-3.637 0-.8.18-1.567.535-2.28L9.096 35c-.15.306-.228.634-.228.977 0 .588.23 1.142.65 1.558.417.417.974.646 1.563.646zm-7.236-5.87c-.585 1.137-.882 2.372-.882 3.668 0 4.453 3.642 8.077 8.12 8.077 1.3 0 2.542-.296 3.69-.88l1.342 2.617c-1.568.797-3.26 1.2-5.03 1.2C4.974 46.992.008 42.05.008 35.98c0-1.74.417-3.47 1.204-5.006l2.63 1.337z" filter="url(#afa)"/><path fill="url(#afb)" d="M38.15 11.758c-.258 0-.504-.045-.743-.107l-1.972 1.965c.795 1.19 1.224 2.587 1.224 4.05 0 1.962-.77 3.805-2.165 5.192l-4.707 4.682 2.08 2.07 2.61-2.598 12.528 12.462-7.308 7.27L27.172 34.28l2.61-2.596-2.08-2.07-4.694 4.668-1.748-1.738c.113.56.173 1.14.173 1.732 0 2.436-.995 4.642-2.6 6.24L6.303 28.05c1.604-1.6 3.82-2.588 6.27-2.588.597 0 1.18.06 1.742.172l-1.748-1.738 4.694-4.67-2.097-2.086-2.61 2.598L.026 7.278 7.334.007 19.86 12.47l-2.608 2.595 2.098 2.087 4.705-4.68c1.396-1.39 3.248-2.15 5.22-2.15 1.47 0 2.875.424 4.072 1.215l1.963-1.954c-.066-.245-.112-.5-.112-.765 0-1.622 1.32-2.935 2.952-2.935 1.63 0 2.954 1.313 2.954 2.937 0 1.62-1.323 2.936-2.953 2.938zm1.55 30.83l3.132-3.116-8.352-8.308-3.132 3.115 8.352 8.31zM7.334 4.163L4.202 7.277l8.352 8.31 3.132-3.118-8.352-8.31zM32.408 14.55c-1.674-1.67-4.59-1.666-6.265 0l-9.4 9.348 2.496 2.48 9.526-9.48 3.758 3.738c.755-.815 1.18-1.857 1.18-2.972 0-1.177-.46-2.283-1.297-3.115zM11.08 38.18h.003c.326 0 .64-.07.934-.205l1.246 2.663c-.686.317-1.42.478-2.18.478h-.003c-1.378 0-2.676-.534-3.65-1.503-.977-.974-1.515-2.264-1.515-3.637 0-.8.18-1.567.535-2.28L9.096 35c-.15.306-.228.634-.228.977 0 .588.23 1.142.65 1.558.417.417.974.646 1.563.646zm-7.236-5.87c-.585 1.137-.882 2.372-.882 3.668 0 4.453 3.642 8.077 8.12 8.077 1.3 0 2.542-.296 3.69-.88l1.342 2.617c-1.568.797-3.26 1.2-5.03 1.2C4.974 46.992.008 42.05.008 35.98c0-1.74.417-3.47 1.204-5.006l2.63 1.337z"/></svg>
<svg baseProfile="full" height="47" width="43" viewBox="-6 -6 43 47" id="shield" y="425"><defs><filter filterUnits="userSpaceOnUse" x="507" y="1694" width="33" height="38"><feOffset in="SourceAlpha" dy="1"/><feGaussianBlur result="blurOut"/><feFlood flood-color="rgb( 255, 255, 255 )" result="floodOut"/><feComposite operator="atop" in="floodOut" in2="blurOut"/><feComponentTransfer><feFuncA type="linear" slope=".22"/></feComponentTransfer><feMerge><feMergeNode/><feMergeNode in="SourceGraphic"/></feMerge></filter><filter id="aga"><feOffset in="SourceAlpha"/><feGaussianBlur result="blurOut" stdDeviation="1.414"/><feFlood flood-color="rgb( 74, 74, 74 )" result="floodOut"/><feComposite operator="out" in="floodOut" in2="blurOut" result="compOut"/><feComposite operator="in" in="compOut" in2="SourceAlpha"/><feComponentTransfer><feFuncA type="linear" slope=".17"/></feComponentTransfer><feBlend in2="SourceGraphic"/></filter><linearGradient id="agb" x1="0%" x2="0%" y1="100%" y2="0%"><stop offset="0%" stop-color="#f11352"/><stop offset="100%" stop-color="#ff8caa"/></linearGradient></defs><path fill-opacity=".702" fill="rgb( 190, 49, 62 )" d="M.987.005v13.54c0 3.394 1.048 14.955 14.527 21.223l.492.228.486-.242c12.613-6.307 14.496-16.085 14.496-21.352V.005h-30zm2.223 13.54V2.19h22.227v6.906l-2.402-1.93-8.837 10.618L9.943 13.6l-2.357 2.32 6.86 6.745 10.99-13.21v5.85c0 5.407-2.184 12.946-9.22 17.114-.086.042-.16.09-.245.135C4.14 26.792 3.21 16.572 3.21 13.545z" filter="url(#aga)"/><path fill="url(#agb)" d="M.987.005v13.54c0 3.394 1.048 14.955 14.527 21.223l.492.228.486-.242c12.613-6.307 14.496-16.085 14.496-21.352V.005h-30zm2.223 13.54V2.19h22.227v6.906l-2.402-1.93-8.837 10.618L9.943 13.6l-2.357 2.32 6.86 6.745 10.99-13.21v5.85c0 5.407-2.184 12.946-9.22 17.114-.086.042-.16.09-.245.135C4.14 26.792 3.21 16.572 3.21 13.545z"/></svg>
</svg>