<svg xmlns="http://www.w3.org/2000/svg" xmlns:xlink="http://www.w3.org/1999/xlink" width="382" height="946" viewBox="0 0 382 946"><svg baseProfile="full" height="101" width="98" viewBox="-10 -10 98 101" id="Mbank_b2с_v2.psd (all selected layers)" y="0"><path fill="rgb( 255, 255, 255 )" d="M19.75 80V0H78v80H19.75zm30.48-19.66c2.567 0 4.725-2.157 4.725-4.723s-2.158-4.724-4.724-4.724c-2.564 0-4.722 2.158-4.722 4.724 0 2.566 2.158 4.724 4.724 4.724zm.118-40.123c-5.016 0-9.68 2.042-12.772 5.657L42.3 31.18c1.807-2.157 4.257-3.615 7.173-3.615 3.207 0 4.55 1.517 4.55 3.325 0 4.024-8.516 4.84-8.516 11.78 0 2.04.7 3.79 1.925 5.132l6.356-1.866c-.583-.525-1.05-1.516-1.05-2.45 0-4.898 9.74-5.54 9.74-14.054 0-5.424-4.607-9.215-12.13-9.215zm-30.6 40.215v19.58H0l19.747-19.58z"/></svg>
<svg baseProfile="full" height="216" width="382" viewBox="-10 -10 382 216" id="app-store-red" y="101"><defs><linearGradient id="aba" x1="0%" x2="20.791%" y1="97.815%" y2="0%"><stop offset="0%" stop-color="#ec2845"/><stop offset="100%" stop-color="#f77d8f"/></linearGradient></defs><path fill="rgb( 242, 65, 92 )" d="M0 196V0h362v196H0zM50.29 26.84H40.12v18.884h2.44v-8.546h7.143V35.16H42.56v-6.274h7.73V26.84zm19.294 4.988c0-1.457-.533-2.746-1.485-3.586-1.18-1.064-2.86-1.54-5.465-1.54-1.68 0-3.446.14-4.68.392v18.63h2.44v-8.18h2.296c2.214.083 3.223 1.063 3.783 3.67.532 2.353.953 3.978 1.26 4.51h2.522c-.392-.73-.84-2.55-1.457-5.183-.45-1.96-1.317-3.304-2.774-3.81v-.082c1.99-.673 3.558-2.326 3.558-4.82zm18.255 11.85h-8.18V36.87H87v-2.016h-7.34v-5.968h7.76V26.84h-10.2v18.884h10.62V43.68zm17.974 0h-8.18V36.87h7.34v-2.016h-7.34v-5.968h7.76V26.84H95.197v18.884h10.618V43.68zm31.837-8.264h-2.24c-.364 2.38-.953 4.202-1.82 5.52-1.206-1.346-3-3.42-4.595-5.268v-.084c2.997-1.485 4.146-3.054 4.146-5.043 0-2.438-1.82-4.008-4.173-4.008-3.138 0-4.79 2.353-4.79 4.65 0 1.345.587 2.718 1.568 3.95v.084c-2.157 1.177-3.698 2.942-3.698 5.52 0 2.83 2.13 5.294 5.8 5.294 2.072 0 3.893-.643 5.518-2.156.728.785 1.233 1.318 1.765 1.85h2.914c-1.12-1.205-2.1-2.27-3.11-3.335 1.402-1.654 2.214-4.008 2.718-6.977zm30.97-8.573h-2.467v7.9h-9.133v-7.9h-2.436v18.885h2.437V36.87h9.135v8.854h2.466V26.84zm16.347 0h-2.94l-6.417 18.885h2.522l1.962-5.94h6.695l2.015 5.94h2.606l-6.443-18.883zm27.584 0h-2.297v7.9c0 2.944.056 5.24.28 7.76l-.056.03c-.896-1.933-1.99-3.922-3.39-6.135l-6.05-9.553h-2.662v18.884h2.297v-8.07c0-3.137-.056-5.406-.196-7.787l.084-.03c.953 2.045 2.214 4.2 3.53 6.303l5.996 9.582h2.466V26.84zm21.28 2.215c-1.653-1.54-4.147-2.353-7.65-2.353-1.932 0-3.696.17-5.18.394V45.67c1.23.14 2.69.223 4.425.223 3.67 0 6.584-.95 8.348-2.716 1.765-1.737 2.718-4.258 2.718-7.34 0-3.054-.98-5.24-2.66-6.78zm15.675 5.968c-2.605-1.01-3.754-1.877-3.754-3.643 0-1.29.98-2.83 3.56-2.83 1.71 0 2.97.56 3.585.897l.673-1.99c-.842-.476-2.243-.924-4.176-.924-3.67 0-6.107 2.185-6.107 5.127 0 2.66 1.905 4.258 4.987 5.35 2.55.98 3.558 1.99 3.558 3.754 0 1.906-1.457 3.223-3.95 3.223-1.682 0-3.278-.56-4.37-1.233l-.617 2.045c1.008.67 2.997 1.203 4.818 1.203 4.456 0 6.613-2.522 6.613-5.436 0-2.773-1.625-4.314-4.82-5.546zm19.993-8.49c-5.044 0-8.77 3.923-8.77 9.92 0 5.714 3.502 9.58 8.49 9.58 4.818 0 8.768-3.446 8.768-9.946 0-5.603-3.334-9.553-8.49-9.553zm33.436.31h-3.11l-3.36 9.132c-.842 2.38-1.514 4.454-1.99 6.36h-.084c-.476-1.962-1.12-4.035-1.905-6.36l-3.222-9.133h-3.11l-1.316 18.884h2.324l.505-8.097c.168-2.83.308-5.996.364-8.35h.055c.533 2.24 1.29 4.678 2.186 7.34l3.054 8.992h1.85l3.333-9.16c.953-2.605 1.737-4.96 2.38-7.17h.085c-.028 2.352.14 5.518.28 8.15l.477 8.294h2.38l-1.177-18.883zM322.67 43.68h-8.18v-6.81h7.34v-2.016h-7.34v-5.968h7.76V26.84h-10.197v18.884h10.617V43.68zm31.818 23.793H7.51v121.055h346.98V67.473zM49.465 88.397H83.59c3.268 0 5.91 2.632 5.91 5.878v68.947c0 3.246-2.642 5.88-5.91 5.88H49.465c-3.263 0-5.906-2.634-5.906-5.88V94.275c0-3.246 2.64-5.878 5.904-5.878zm20.924 5.006h-7.72v2.55h7.72v-2.55zm-3.858 72.612c2.078 0 3.763-1.676 3.763-3.747 0-2.067-1.685-3.746-3.763-3.746-2.08 0-3.77 1.68-3.77 3.746 0 2.07 1.69 3.747 3.77 3.747zm-18.548-9.857h37.09V101.34h-37.09v54.818zm85.43-30.727l9.867 30.22h-5.947l-2.75-8.563h-9.642l-2.612 8.563h-5.724l9.733-30.22h7.074zm.224 17.487l-2.39-7.442c-.585-1.838-1.08-3.9-1.53-5.65h-.09c-.452 1.75-.903 3.857-1.443 5.65l-2.343 7.442h7.795zm2.99-32.69l-1.682 5.072h-2.164l5.506-16.125h2.524l5.53 16.124h-2.236l-1.73-5.073h-5.747zm3.727-6.268c-.36-1.053-.6-2.01-.84-2.943h-.05c-.24.957-.504 1.938-.817 2.918l-1.587 4.665h4.88l-1.585-4.642zm10.886 6.267c.386 1.053.698 2.01.94 2.966h.072c.264-.957.6-1.913.986-2.966l2.26-6.506h2.21l-4.568 11.58h-2.02l-4.42-11.58h2.26l2.283 6.506zm.783 26.952h.09c1.622-2.466 4.19-3.857 7.525-3.857 5.047 0 9.237 4.305 9.237 11.118 0 7.89-5.002 11.703-10.003 11.703-2.75 0-5.047-1.166-6.173-2.914h-.09v11.297h-5.543V141.08c0-2.87-.09-5.203-.18-7.265h4.866l.27 3.363zm.585 9.324c0 .538.045 1.03.18 1.524.54 2.242 2.524 3.856 4.867 3.856 3.515 0 5.588-2.914 5.588-7.218 0-3.855-1.893-6.995-5.453-6.995-2.298 0-4.416 1.66-4.956 4.08-.135.45-.226.943-.226 1.39v3.364zm19.637-47.353c.793 0 1.298.575 1.298 1.318.024.717-.505 1.29-1.346 1.29-.747 0-1.275-.573-1.275-1.29 0-.743.553-1.317 1.322-1.317zm1.058 16.15h-2.116v-11.58h2.115v11.578zm5.08 21.88h.09c1.623-2.466 4.19-3.857 7.526-3.857 5.047 0 9.237 4.305 9.237 11.118 0 7.89-5 11.703-10.003 11.703-2.75 0-5.047-1.166-6.174-2.914h-.09v11.297h-5.54V141.08c0-2.87-.09-5.203-.18-7.265h4.865l.27 3.363zm.586 9.324c0 .538.046 1.03.18 1.524.54 2.242 2.524 3.856 4.867 3.856 3.515 0 5.588-2.914 5.588-7.218 0-3.855-1.893-6.995-5.453-6.995-2.298 0-4.416 1.66-4.956 4.08-.136.45-.226.943-.226 1.39v3.364zm15.097-34.196V98.313h2.092v7.272h.047c.745-1.292 2.092-2.13 3.967-2.13 2.885 0 4.93 2.393 4.905 5.91 0 4.138-2.62 6.195-5.22 6.195-1.682 0-3.03-.646-3.894-2.176h-.072l-.096 1.914h-1.828c.048-.79.096-1.962.096-2.99zm2.092-1.65c0 .263.047.526.095.765.41 1.46 1.635 2.464 3.174 2.464 2.21 0 3.533-1.794 3.533-4.45 0-2.32-1.202-4.305-3.462-4.305-1.442 0-2.79.98-3.22 2.584-.05.24-.12.526-.12.862v2.08zm13.7 4.64h-2.118V98.314h2.116V115.3zm6.69 36.272c3.56 0 5.544-1.66 5.544-4.125 0-2.287-1.532-3.632-5.408-5.02-5-1.795-8.2-4.44-8.2-8.79 0-4.93 4.145-8.697 10.724-8.697 3.29 0 5.724.718 7.3 1.524l-1.35 4.44c-1.083-.584-3.2-1.436-6.04-1.436-3.514 0-5.046 1.883-5.046 3.632 0 2.33 1.757 3.407 5.813 4.976 5.272 1.974 7.84 4.618 7.84 8.967 0 4.844-3.695 9.06-11.535 9.06-3.2 0-6.534-.898-8.2-1.885l1.215-4.573c1.803 1.032 4.507 1.93 7.345 1.93zm18.927-48.114c3.342 0 5.602 2.417 5.602 5.957 0 4.282-2.98 6.147-5.795 6.147-3.15 0-5.578-2.296-5.578-5.956 0-3.875 2.55-6.148 5.77-6.148zm-.096 10.526c2.02 0 3.535-1.89 3.535-4.497 0-1.962-.985-4.45-3.486-4.45-2.5 0-3.583 2.296-3.583 4.497 0 2.536 1.466 4.45 3.534 4.45zm-2.11 14.902l5.407-1.3v6.23h5.272v4.125h-5.273v9.64c0 2.644.72 4.033 2.84 4.033.945 0 1.666-.134 2.162-.27l.09 4.215c-.81.314-2.254.538-4.01.538-2.03 0-3.74-.673-4.778-1.794-1.172-1.255-1.712-3.228-1.712-6.097V137.94h-3.154v-4.125h3.155v-4.93zm10.473-13.586v-8.445c0-1.196-.024-2.177-.097-3.133h1.876l.12 1.913h.048c.578-1.1 1.925-2.177 3.848-2.177 1.61 0 4.112.957 4.112 4.928v6.914h-2.116v-6.675c0-1.866-.698-3.42-2.693-3.42-1.393 0-2.475.98-2.835 2.153-.097.263-.145.622-.145.98v6.962h-2.116zm14.085 18.024c6.533 0 10.904 4.573 10.904 11.208 0 8.025-5.678 11.612-11.265 11.612-6.22 0-10.996-4.26-10.996-11.253 0-7.175 4.73-11.57 11.356-11.57zm-.18 18.83c3.153 0 5.36-3.094 5.36-7.487 0-3.408-1.53-7.308-5.316-7.308-3.92 0-5.497 3.766-5.497 7.398 0 4.214 2.072 7.397 5.452 7.397zm14.597-46.615h.05c.335-.598.864-1.124 1.513-1.482.625-.36 1.37-.6 2.164-.6 1.563 0 4.063.958 4.063 4.953v6.89h-2.115v-6.65c0-1.866-.698-3.446-2.693-3.446-1.372 0-2.454.957-2.838 2.106-.12.286-.146.598-.146 1.004v6.986h-2.115V98.313h2.114v7.224zm5.86 32.448h.18c1.082-3.093 3.65-4.663 5.993-4.663.54 0 .857.045 1.307.135v5.2c-.45-.09-.946-.18-1.622-.18-2.658 0-4.46 1.704-4.957 4.17-.09.494-.18 1.076-.18 1.704v11.3h-5.542v-14.795c0-2.96-.045-5.066-.18-7.04h4.82l.18 4.17zm20.143-4.663c7.12 0 9.463 5.828 9.463 10.626 0 1.03-.09 1.838-.18 2.33h-14.69c.136 3.947 3.245 5.65 6.76 5.65 2.568 0 4.416-.36 6.083-.986l.81 3.81c-1.892.763-4.505 1.346-7.66 1.346-7.12 0-11.31-4.35-11.31-11.03 0-6.052 3.695-11.746 10.725-11.746zm4.236 9.102c.045-2.02-.857-5.336-4.55-5.336-3.426 0-4.868 3.093-5.093 5.336h9.644zm-9.663-32.533h-8.174c.048 2.85 1.875 4.02 3.99 4.02 1.516 0 2.43-.263 3.223-.597l.36 1.507c-.745.334-2.02.717-3.87.717-3.583 0-5.723-2.345-5.723-5.838s2.068-6.245 5.458-6.245c3.8 0 4.81 3.326 4.81 5.455 0 .43-.05.766-.073.98zm-4.904-4.926c-2.14 0-3.078 1.962-3.246 3.42h6.18c.023-1.34-.554-3.42-2.934-3.42zm-23.193 6.603c0 1.435.41 2.248 1.587 2.248.553 0 .962-.07 1.226-.143l.097 1.58c-.41.167-1.058.287-1.876.287-.987 0-1.78-.31-2.285-.886-.6-.622-.817-1.65-.817-3.015v-6.315h-1.804v-1.603h1.805v-2.776l2.067-.55v3.326h3.03v1.603h-3.03v6.243zm-41.958-1.675h-8.174c.05 2.848 1.876 4.02 3.99 4.02 1.516 0 2.43-.264 3.223-.598l.36 1.507c-.744.335-2.02.718-3.87.718-3.582 0-5.722-2.345-5.722-5.838s2.07-6.244 5.46-6.244c3.8 0 4.81 3.326 4.81 5.455 0 .43-.05.767-.074.98zm-4.905-4.927c-2.14 0-3.077 1.962-3.246 3.42h6.18c.024-1.34-.553-3.42-2.934-3.42zm-29.103 8.875h-.073c-.65.91-1.9 1.722-3.558 1.722-2.357 0-3.56-1.65-3.56-3.325 0-2.798 2.5-4.33 6.997-4.306v-.24c0-.955-.264-2.68-2.645-2.68-1.082 0-2.212.337-3.03.864l-.48-1.388c.962-.622 2.356-1.03 3.823-1.03 3.56 0 4.425 2.418 4.425 4.738v4.33c0 1.005.047 1.985.19 2.775h-1.922l-.17-1.46zm-.145-4.45c-2.308-.047-4.928.36-4.928 2.608 0 1.364.913 2.01 1.995 2.01 1.514 0 2.475-.957 2.812-1.938.072-.215.12-.454.12-.67v-2.01zM176.81 98.315h2.115V115.3h-2.115V98.313zm-10.933 15.525h-.072c-.65.91-1.9 1.722-3.558 1.722-2.356 0-3.56-1.65-3.56-3.325 0-2.798 2.502-4.33 6.998-4.306v-.24c0-.955-.265-2.68-2.645-2.68-1.082 0-2.212.337-3.03.864l-.48-1.388c.962-.622 2.356-1.03 3.823-1.03 3.558 0 4.424 2.418 4.424 4.738v4.33c0 1.005.048 1.985.192 2.775h-1.924l-.17-1.46zm-.144-4.45c-2.308-.047-4.93.36-4.93 2.608 0 1.364.915 2.01 1.997 2.01 1.515 0 2.476-.957 2.813-1.938.072-.215.12-.454.12-.67v-2.01zM269.36 44.042c-3.84 0-6.024-3.614-6.024-7.648 0-4.146 2.017-7.87 6.05-7.87 4.063 0 6.024 3.92 6.024 7.674 0 4.286-2.185 7.844-6.05 7.844zm-43.458-.11c-.952 0-1.85-.03-2.465-.14V28.885c.644-.14 1.597-.252 2.857-.252 5.155 0 7.677 2.83 7.65 7.284 0 5.098-2.83 8.013-8.042 8.013zm-43.455-11.516c.364-1.148.672-2.297.952-3.417h.054c.28 1.09.56 2.21.98 3.443l1.85 5.435h-5.687l1.85-5.464zM124.4 40.372c0-1.99 1.43-3.194 2.438-3.838 2.102 2.41 4.203 4.706 5.323 5.94-.894.98-2.267 1.71-3.892 1.71-2.27 0-3.866-1.654-3.866-3.812zm2.018-9.413c0-1.46.813-2.747 2.38-2.747 1.542 0 2.187 1.288 2.187 2.437 0 1.598-1.233 2.607-3.138 3.7-.812-1.01-1.43-2.046-1.43-3.39zm-66.023 4.733V28.8c.392-.11 1.233-.223 2.41-.223 2.577.028 4.34 1.093 4.34 3.53 0 2.158-1.65 3.586-4.257 3.586h-2.493z"/><path fill="url(#aba)" d="M0 196V0h362v196H0zM50.29 26.84H40.12v18.884h2.44v-8.546h7.143V35.16H42.56v-6.274h7.73V26.84zm19.294 4.988c0-1.457-.533-2.746-1.485-3.586-1.18-1.064-2.86-1.54-5.465-1.54-1.68 0-3.446.14-4.68.392v18.63h2.44v-8.18h2.296c2.214.083 3.223 1.063 3.783 3.67.532 2.353.953 3.978 1.26 4.51h2.522c-.392-.73-.84-2.55-1.457-5.183-.45-1.96-1.317-3.304-2.774-3.81v-.082c1.99-.673 3.558-2.326 3.558-4.82zm18.255 11.85h-8.18V36.87H87v-2.016h-7.34v-5.968h7.76V26.84h-10.2v18.884h10.62V43.68zm17.974 0h-8.18V36.87h7.34v-2.016h-7.34v-5.968h7.76V26.84H95.197v18.884h10.618V43.68zm31.837-8.264h-2.24c-.364 2.38-.953 4.202-1.82 5.52-1.206-1.346-3-3.42-4.595-5.268v-.084c2.997-1.485 4.146-3.054 4.146-5.043 0-2.438-1.82-4.008-4.173-4.008-3.138 0-4.79 2.353-4.79 4.65 0 1.345.587 2.718 1.568 3.95v.084c-2.157 1.177-3.698 2.942-3.698 5.52 0 2.83 2.13 5.294 5.8 5.294 2.072 0 3.893-.643 5.518-2.156.728.785 1.233 1.318 1.765 1.85h2.914c-1.12-1.205-2.1-2.27-3.11-3.335 1.402-1.654 2.214-4.008 2.718-6.977zm30.97-8.573h-2.467v7.9h-9.133v-7.9h-2.436v18.885h2.437V36.87h9.135v8.854h2.466V26.84zm16.347 0h-2.94l-6.417 18.885h2.522l1.962-5.94h6.695l2.015 5.94h2.606l-6.443-18.883zm27.584 0h-2.297v7.9c0 2.944.056 5.24.28 7.76l-.056.03c-.896-1.933-1.99-3.922-3.39-6.135l-6.05-9.553h-2.662v18.884h2.297v-8.07c0-3.137-.056-5.406-.196-7.787l.084-.03c.953 2.045 2.214 4.2 3.53 6.303l5.996 9.582h2.466V26.84zm21.28 2.215c-1.653-1.54-4.147-2.353-7.65-2.353-1.932 0-3.696.17-5.18.394V45.67c1.23.14 2.69.223 4.425.223 3.67 0 6.584-.95 8.348-2.716 1.765-1.737 2.718-4.258 2.718-7.34 0-3.054-.98-5.24-2.66-6.78zm15.675 5.968c-2.605-1.01-3.754-1.877-3.754-3.643 0-1.29.98-2.83 3.56-2.83 1.71 0 2.97.56 3.585.897l.673-1.99c-.842-.476-2.243-.924-4.176-.924-3.67 0-6.107 2.185-6.107 5.127 0 2.66 1.905 4.258 4.987 5.35 2.55.98 3.558 1.99 3.558 3.754 0 1.906-1.457 3.223-3.95 3.223-1.682 0-3.278-.56-4.37-1.233l-.617 2.045c1.008.67 2.997 1.203 4.818 1.203 4.456 0 6.613-2.522 6.613-5.436 0-2.773-1.625-4.314-4.82-5.546zm19.993-8.49c-5.044 0-8.77 3.923-8.77 9.92 0 5.714 3.502 9.58 8.49 9.58 4.818 0 8.768-3.446 8.768-9.946 0-5.603-3.334-9.553-8.49-9.553zm33.436.31h-3.11l-3.36 9.132c-.842 2.38-1.514 4.454-1.99 6.36h-.084c-.476-1.962-1.12-4.035-1.905-6.36l-3.222-9.133h-3.11l-1.316 18.884h2.324l.505-8.097c.168-2.83.308-5.996.364-8.35h.055c.533 2.24 1.29 4.678 2.186 7.34l3.054 8.992h1.85l3.333-9.16c.953-2.605 1.737-4.96 2.38-7.17h.085c-.028 2.352.14 5.518.28 8.15l.477 8.294h2.38l-1.177-18.883zM322.67 43.68h-8.18v-6.81h7.34v-2.016h-7.34v-5.968h7.76V26.84h-10.197v18.884h10.617V43.68zm31.818 23.793H7.51v121.055h346.98V67.473zM49.465 88.397H83.59c3.268 0 5.91 2.632 5.91 5.878v68.947c0 3.246-2.642 5.88-5.91 5.88H49.465c-3.263 0-5.906-2.634-5.906-5.88V94.275c0-3.246 2.64-5.878 5.904-5.878zm20.924 5.006h-7.72v2.55h7.72v-2.55zm-3.858 72.612c2.078 0 3.763-1.676 3.763-3.747 0-2.067-1.685-3.746-3.763-3.746-2.08 0-3.77 1.68-3.77 3.746 0 2.07 1.69 3.747 3.77 3.747zm-18.548-9.857h37.09V101.34h-37.09v54.818zm85.43-30.727l9.867 30.22h-5.947l-2.75-8.563h-9.642l-2.612 8.563h-5.724l9.733-30.22h7.074zm.224 17.487l-2.39-7.442c-.585-1.838-1.08-3.9-1.53-5.65h-.09c-.452 1.75-.903 3.857-1.443 5.65l-2.343 7.442h7.795zm2.99-32.69l-1.682 5.072h-2.164l5.506-16.125h2.524l5.53 16.124h-2.236l-1.73-5.073h-5.747zm3.727-6.268c-.36-1.053-.6-2.01-.84-2.943h-.05c-.24.957-.504 1.938-.817 2.918l-1.587 4.665h4.88l-1.585-4.642zm10.886 6.267c.386 1.053.698 2.01.94 2.966h.072c.264-.957.6-1.913.986-2.966l2.26-6.506h2.21l-4.568 11.58h-2.02l-4.42-11.58h2.26l2.283 6.506zm.783 26.952h.09c1.622-2.466 4.19-3.857 7.525-3.857 5.047 0 9.237 4.305 9.237 11.118 0 7.89-5.002 11.703-10.003 11.703-2.75 0-5.047-1.166-6.173-2.914h-.09v11.297h-5.543V141.08c0-2.87-.09-5.203-.18-7.265h4.866l.27 3.363zm.585 9.324c0 .538.045 1.03.18 1.524.54 2.242 2.524 3.856 4.867 3.856 3.515 0 5.588-2.914 5.588-7.218 0-3.855-1.893-6.995-5.453-6.995-2.298 0-4.416 1.66-4.956 4.08-.135.45-.226.943-.226 1.39v3.364zm19.637-47.353c.793 0 1.298.575 1.298 1.318.024.717-.505 1.29-1.346 1.29-.747 0-1.275-.573-1.275-1.29 0-.743.553-1.317 1.322-1.317zm1.058 16.15h-2.116v-11.58h2.115v11.578zm5.08 21.88h.09c1.623-2.466 4.19-3.857 7.526-3.857 5.047 0 9.237 4.305 9.237 11.118 0 7.89-5 11.703-10.003 11.703-2.75 0-5.047-1.166-6.174-2.914h-.09v11.297h-5.54V141.08c0-2.87-.09-5.203-.18-7.265h4.865l.27 3.363zm.586 9.324c0 .538.046 1.03.18 1.524.54 2.242 2.524 3.856 4.867 3.856 3.515 0 5.588-2.914 5.588-7.218 0-3.855-1.893-6.995-5.453-6.995-2.298 0-4.416 1.66-4.956 4.08-.136.45-.226.943-.226 1.39v3.364zm15.097-34.196V98.313h2.092v7.272h.047c.745-1.292 2.092-2.13 3.967-2.13 2.885 0 4.93 2.393 4.905 5.91 0 4.138-2.62 6.195-5.22 6.195-1.682 0-3.03-.646-3.894-2.176h-.072l-.096 1.914h-1.828c.048-.79.096-1.962.096-2.99zm2.092-1.65c0 .263.047.526.095.765.41 1.46 1.635 2.464 3.174 2.464 2.21 0 3.533-1.794 3.533-4.45 0-2.32-1.202-4.305-3.462-4.305-1.442 0-2.79.98-3.22 2.584-.05.24-.12.526-.12.862v2.08zm13.7 4.64h-2.118V98.314h2.116V115.3zm6.69 36.272c3.56 0 5.544-1.66 5.544-4.125 0-2.287-1.532-3.632-5.408-5.02-5-1.795-8.2-4.44-8.2-8.79 0-4.93 4.145-8.697 10.724-8.697 3.29 0 5.724.718 7.3 1.524l-1.35 4.44c-1.083-.584-3.2-1.436-6.04-1.436-3.514 0-5.046 1.883-5.046 3.632 0 2.33 1.757 3.407 5.813 4.976 5.272 1.974 7.84 4.618 7.84 8.967 0 4.844-3.695 9.06-11.535 9.06-3.2 0-6.534-.898-8.2-1.885l1.215-4.573c1.803 1.032 4.507 1.93 7.345 1.93zm18.927-48.114c3.342 0 5.602 2.417 5.602 5.957 0 4.282-2.98 6.147-5.795 6.147-3.15 0-5.578-2.296-5.578-5.956 0-3.875 2.55-6.148 5.77-6.148zm-.096 10.526c2.02 0 3.535-1.89 3.535-4.497 0-1.962-.985-4.45-3.486-4.45-2.5 0-3.583 2.296-3.583 4.497 0 2.536 1.466 4.45 3.534 4.45zm-2.11 14.902l5.407-1.3v6.23h5.272v4.125h-5.273v9.64c0 2.644.72 4.033 2.84 4.033.945 0 1.666-.134 2.162-.27l.09 4.215c-.81.314-2.254.538-4.01.538-2.03 0-3.74-.673-4.778-1.794-1.172-1.255-1.712-3.228-1.712-6.097V137.94h-3.154v-4.125h3.155v-4.93zm10.473-13.586v-8.445c0-1.196-.024-2.177-.097-3.133h1.876l.12 1.913h.048c.578-1.1 1.925-2.177 3.848-2.177 1.61 0 4.112.957 4.112 4.928v6.914h-2.116v-6.675c0-1.866-.698-3.42-2.693-3.42-1.393 0-2.475.98-2.835 2.153-.097.263-.145.622-.145.98v6.962h-2.116zm14.085 18.024c6.533 0 10.904 4.573 10.904 11.208 0 8.025-5.678 11.612-11.265 11.612-6.22 0-10.996-4.26-10.996-11.253 0-7.175 4.73-11.57 11.356-11.57zm-.18 18.83c3.153 0 5.36-3.094 5.36-7.487 0-3.408-1.53-7.308-5.316-7.308-3.92 0-5.497 3.766-5.497 7.398 0 4.214 2.072 7.397 5.452 7.397zm14.597-46.615h.05c.335-.598.864-1.124 1.513-1.482.625-.36 1.37-.6 2.164-.6 1.563 0 4.063.958 4.063 4.953v6.89h-2.115v-6.65c0-1.866-.698-3.446-2.693-3.446-1.372 0-2.454.957-2.838 2.106-.12.286-.146.598-.146 1.004v6.986h-2.115V98.313h2.114v7.224zm5.86 32.448h.18c1.082-3.093 3.65-4.663 5.993-4.663.54 0 .857.045 1.307.135v5.2c-.45-.09-.946-.18-1.622-.18-2.658 0-4.46 1.704-4.957 4.17-.09.494-.18 1.076-.18 1.704v11.3h-5.542v-14.795c0-2.96-.045-5.066-.18-7.04h4.82l.18 4.17zm20.143-4.663c7.12 0 9.463 5.828 9.463 10.626 0 1.03-.09 1.838-.18 2.33h-14.69c.136 3.947 3.245 5.65 6.76 5.65 2.568 0 4.416-.36 6.083-.986l.81 3.81c-1.892.763-4.505 1.346-7.66 1.346-7.12 0-11.31-4.35-11.31-11.03 0-6.052 3.695-11.746 10.725-11.746zm4.236 9.102c.045-2.02-.857-5.336-4.55-5.336-3.426 0-4.868 3.093-5.093 5.336h9.644zm-9.663-32.533h-8.174c.048 2.85 1.875 4.02 3.99 4.02 1.516 0 2.43-.263 3.223-.597l.36 1.507c-.745.334-2.02.717-3.87.717-3.583 0-5.723-2.345-5.723-5.838s2.068-6.245 5.458-6.245c3.8 0 4.81 3.326 4.81 5.455 0 .43-.05.766-.073.98zm-4.904-4.926c-2.14 0-3.078 1.962-3.246 3.42h6.18c.023-1.34-.554-3.42-2.934-3.42zm-23.193 6.603c0 1.435.41 2.248 1.587 2.248.553 0 .962-.07 1.226-.143l.097 1.58c-.41.167-1.058.287-1.876.287-.987 0-1.78-.31-2.285-.886-.6-.622-.817-1.65-.817-3.015v-6.315h-1.804v-1.603h1.805v-2.776l2.067-.55v3.326h3.03v1.603h-3.03v6.243zm-41.958-1.675h-8.174c.05 2.848 1.876 4.02 3.99 4.02 1.516 0 2.43-.264 3.223-.598l.36 1.507c-.744.335-2.02.718-3.87.718-3.582 0-5.722-2.345-5.722-5.838s2.07-6.244 5.46-6.244c3.8 0 4.81 3.326 4.81 5.455 0 .43-.05.767-.074.98zm-4.905-4.927c-2.14 0-3.077 1.962-3.246 3.42h6.18c.024-1.34-.553-3.42-2.934-3.42zm-29.103 8.875h-.073c-.65.91-1.9 1.722-3.558 1.722-2.357 0-3.56-1.65-3.56-3.325 0-2.798 2.5-4.33 6.997-4.306v-.24c0-.955-.264-2.68-2.645-2.68-1.082 0-2.212.337-3.03.864l-.48-1.388c.962-.622 2.356-1.03 3.823-1.03 3.56 0 4.425 2.418 4.425 4.738v4.33c0 1.005.047 1.985.19 2.775h-1.922l-.17-1.46zm-.145-4.45c-2.308-.047-4.928.36-4.928 2.608 0 1.364.913 2.01 1.995 2.01 1.514 0 2.475-.957 2.812-1.938.072-.215.12-.454.12-.67v-2.01zM176.81 98.315h2.115V115.3h-2.115V98.313zm-10.933 15.525h-.072c-.65.91-1.9 1.722-3.558 1.722-2.356 0-3.56-1.65-3.56-3.325 0-2.798 2.502-4.33 6.998-4.306v-.24c0-.955-.265-2.68-2.645-2.68-1.082 0-2.212.337-3.03.864l-.48-1.388c.962-.622 2.356-1.03 3.823-1.03 3.558 0 4.424 2.418 4.424 4.738v4.33c0 1.005.048 1.985.192 2.775h-1.924l-.17-1.46zm-.144-4.45c-2.308-.047-4.93.36-4.93 2.608 0 1.364.915 2.01 1.997 2.01 1.515 0 2.476-.957 2.813-1.938.072-.215.12-.454.12-.67v-2.01zM269.36 44.042c-3.84 0-6.024-3.614-6.024-7.648 0-4.146 2.017-7.87 6.05-7.87 4.063 0 6.024 3.92 6.024 7.674 0 4.286-2.185 7.844-6.05 7.844zm-43.458-.11c-.952 0-1.85-.03-2.465-.14V28.885c.644-.14 1.597-.252 2.857-.252 5.155 0 7.677 2.83 7.65 7.284 0 5.098-2.83 8.013-8.042 8.013zm-43.455-11.516c.364-1.148.672-2.297.952-3.417h.054c.28 1.09.56 2.21.98 3.443l1.85 5.435h-5.687l1.85-5.464zM124.4 40.372c0-1.99 1.43-3.194 2.438-3.838 2.102 2.41 4.203 4.706 5.323 5.94-.894.98-2.267 1.71-3.892 1.71-2.27 0-3.866-1.654-3.866-3.812zm2.018-9.413c0-1.46.813-2.747 2.38-2.747 1.542 0 2.187 1.288 2.187 2.437 0 1.598-1.233 2.607-3.138 3.7-.812-1.01-1.43-2.046-1.43-3.39zm-66.023 4.733V28.8c.392-.11 1.233-.223 2.41-.223 2.577.028 4.34 1.093 4.34 3.53 0 2.158-1.65 3.586-4.257 3.586h-2.493z"/></svg>
<svg baseProfile="full" height="42" width="49" viewBox="-10 -10 49 42" id="checkmark" y="317"><defs><filter filterUnits="userSpaceOnUse" x="63" y="2346" width="32" height="25"><feOffset in="SourceAlpha" dy="1"/><feGaussianBlur result="blurOut"/><feFlood flood-color="rgb( 255, 255, 255 )" result="floodOut"/><feComposite operator="atop" in="floodOut" in2="blurOut"/><feComponentTransfer><feFuncA type="linear" slope=".22"/></feComponentTransfer><feMerge><feMergeNode/><feMergeNode in="SourceGraphic"/></feMerge></filter><filter id="aca"><feOffset in="SourceAlpha"/><feGaussianBlur result="blurOut" stdDeviation="1.414"/><feFlood flood-color="rgb( 74, 74, 74 )" result="floodOut"/><feComposite operator="out" in="floodOut" in2="blurOut" result="compOut"/><feComposite operator="in" in="compOut" in2="SourceAlpha"/><feComponentTransfer><feFuncA type="linear" slope=".17"/></feComponentTransfer><feBlend in2="SourceGraphic"/></filter><linearGradient id="acb" x1="0%" x2="0%" y1="100%" y2="0%"><stop offset="0%" stop-color="#f11352"/><stop offset="100%" stop-color="#ff8caa"/></linearGradient></defs><path fill-opacity=".702" fill="rgb( 252, 85, 111 )" d="M11.317 14.897L25.457 0l3.537 3.548-17.677 18.446L.007 9.936l3.536-3.55 7.774 8.51z" filter="url(#aca)"/><path fill="url(#acb)" d="M11.317 14.897L25.457 0l3.537 3.548-17.677 18.446L.007 9.936l3.536-3.55 7.774 8.51z"/></svg>
<svg baseProfile="full" height="66" width="67" viewBox="-10 -10 67 66" id="coins" y="359"><defs><filter filterUnits="userSpaceOnUse" x="289" y="1688" width="50" height="49"><feOffset in="SourceAlpha" dy="1"/><feGaussianBlur result="blurOut"/><feFlood flood-color="rgb( 255, 255, 255 )" result="floodOut"/><feComposite operator="atop" in="floodOut" in2="blurOut"/><feComponentTransfer><feFuncA type="linear" slope=".22"/></feComponentTransfer><feMerge><feMergeNode/><feMergeNode in="SourceGraphic"/></feMerge></filter><filter id="ada"><feOffset in="SourceAlpha"/><feGaussianBlur result="blurOut" stdDeviation="1.414"/><feFlood flood-color="rgb( 74, 74, 74 )" result="floodOut"/><feComposite operator="out" in="floodOut" in2="blurOut" result="compOut"/><feComposite operator="in" in="compOut" in2="SourceAlpha"/><feComponentTransfer><feFuncA type="linear" slope=".17"/></feComponentTransfer><feBlend in2="SourceGraphic"/></filter><linearGradient id="adb" x1="0%" x2="0%" y1="100%" y2="0%"><stop offset="0%" stop-color="#f11352"/><stop offset="100%" stop-color="#ff8caa"/></linearGradient></defs><path fill-opacity=".702" fill="rgb( 190, 49, 62 )" d="M43.388 37.478l-6.716-6.573v-2.36c-.732.097-1.465.165-2.187.218l-2.356-2.306c6.32-.037 10.185-1.663 10.545-2.404-.364-.75-4.31-2.41-10.764-2.41-1.62 0-3.1.11-4.412.282l-3.113-3.046c.112-.018.232-.03.342-.05v-2.977c-1.058.142-2.118.237-3.13.298l-2.385-2.334.13.002c2.004 0 3.818-.162 5.384-.406v-2.978c-1.89.253-3.813.373-5.386.373-1.124 0-2.26-.06-3.37-.165l-2.95-2.89c1.628.372 3.744.645 6.32.645 6.46.003 11-1.654 11.36-2.404-.36-.75-4.9-2.408-11.356-2.408-4.396 0-7.476.79-9.026 1.523L8.54 3.368c2.347-1.492 6.68-2.19 10.804-2.19 5.255 0 13.644 1.264 13.758 4.74h.008V19.26c5.162.177 11.853 1.498 11.96 4.718h.015v10.986c0 1.005-.638 1.84-1.697 2.514zm.458 8.43L.85 3.61 3.613.832l42.995 42.302-2.76 2.777zM9.17 16.83c.075.42 1.36 1.175 3.697 1.728l2.974 2.91c-2.57-.255-4.983-.793-6.67-1.653v2.433c.127.695 3.53 2.297 9.576 2.4v-.337l3.097 3.03c-.243-.097-.49-.194-.702-.302v2.434c.083.46 1.85 1.318 4.794 1.876l2.875 2.814c-2.933-.232-5.873-.79-7.67-1.705v2.51c.19.617 4.226 2.295 10.87 2.33l2.4 2.346c-.73.042-1.466.065-2.195.065-6.2 0-13.47-1.484-13.47-4.74V32.47c-5.927-.137-11.97-1.626-11.97-4.727v-15.15l2.395 2.343v1.892zm0 10.912c.182.597 3.4 2.175 9.575 2.318v-3.01c-3.592-.058-7.262-.64-9.576-1.82v2.51z" filter="url(#ada)"/><path fill="url(#adb)" d="M43.388 37.478l-6.716-6.573v-2.36c-.732.097-1.465.165-2.187.218l-2.356-2.306c6.32-.037 10.185-1.663 10.545-2.404-.364-.75-4.31-2.41-10.764-2.41-1.62 0-3.1.11-4.412.282l-3.113-3.046c.112-.018.232-.03.342-.05v-2.977c-1.058.142-2.118.237-3.13.298l-2.385-2.334.13.002c2.004 0 3.818-.162 5.384-.406v-2.978c-1.89.253-3.813.373-5.386.373-1.124 0-2.26-.06-3.37-.165l-2.95-2.89c1.628.372 3.744.645 6.32.645 6.46.003 11-1.654 11.36-2.404-.36-.75-4.9-2.408-11.356-2.408-4.396 0-7.476.79-9.026 1.523L8.54 3.368c2.347-1.492 6.68-2.19 10.804-2.19 5.255 0 13.644 1.264 13.758 4.74h.008V19.26c5.162.177 11.853 1.498 11.96 4.718h.015v10.986c0 1.005-.638 1.84-1.697 2.514zm.458 8.43L.85 3.61 3.613.832l42.995 42.302-2.76 2.777zM9.17 16.83c.075.42 1.36 1.175 3.697 1.728l2.974 2.91c-2.57-.255-4.983-.793-6.67-1.653v2.433c.127.695 3.53 2.297 9.576 2.4v-.337l3.097 3.03c-.243-.097-.49-.194-.702-.302v2.434c.083.46 1.85 1.318 4.794 1.876l2.875 2.814c-2.933-.232-5.873-.79-7.67-1.705v2.51c.19.617 4.226 2.295 10.87 2.33l2.4 2.346c-.73.042-1.466.065-2.195.065-6.2 0-13.47-1.484-13.47-4.74V32.47c-5.927-.137-11.97-1.626-11.97-4.727v-15.15l2.395 2.343v1.892zm0 10.912c.182.597 3.4 2.175 9.575 2.318v-3.01c-3.592-.058-7.262-.64-9.576-1.82v2.51z"/></svg>
<svg baseProfile="full" height="180" width="153" viewBox="-10 -10 153 180" id="logo" y="425"><path fill="rgb( 255, 255, 255 )" d="M1.118 140.98v-2.24H133v2.24H1.118zm128.528-10.07l-.627-.095-.076-.02-22.86-3.378-.36-.53L68.577 72.25l-30.11 52.874-25.027 4.083-.32-.38L0 113.427v-97.88l.35-.263L20.758 0l1.145.855 19.24 14.552v26.058l10.063-17.613 24.417-6.177 14.89 21.717V15.836l19.572-14.69 19.563 14.69v112.63-.002 2.446zm-21.863-6.198l18.276 2.805-48.827-70.465-7.21 12.66 37.76 55zM38.216 16.872l-16.58-12.42V75.6l16.58-29.018v-29.71zm14.91 9.516L18.71 86.618V5.19L2.926 17.013v95.333l10.848 12.737 58.27-103.48-18.917 4.784zm56.04-20.91L93.436 17.3v26.358l15.73 22.94V5.478zM126.72 17.3L112.09 6.314V76.04L75.116 22.11 16.788 125.693l19.83-3.233 40.376-70.896 49.728 71.772V17.3zM6.635 150.295c.48.16.844.375 1.087.646.44.51.66 1.08.66 1.718 0 .77-.248 1.34-.744 1.716-.168.13-.285.214-.35.247-.066.033-.183.087-.35.16.606.13 1.09.407 1.45.825.36.418.54.934.54 1.554 0 .684-.234 1.29-.7 1.812-.543.61-1.488.916-2.834.916h-4.29v-9.83h3.813c.664 0 1.237.08 1.718.24zM3.29 158.03h1.502c.625 0 1.096-.078 1.408-.233.314-.154.47-.46.47-.914s-.165-.754-.497-.9c-.332-.144-.863-.218-1.592-.218H3.29v2.265zm0-6.118v2.123h1.04c.608 0 1.06-.065 1.354-.197.294-.13.442-.414.442-.85s-.136-.724-.407-.865c-.27-.14-.73-.21-1.375-.21H3.29zm18.05.1h-4.88v2.023h4.39v1.87h-4.39v2.04h5.034v1.94H14.27v-9.83h7.07v1.956zm9.143 6.046c.4 0 .717-.088.946-.26.227-.175.342-.408.342-.704 0-.295-.122-.53-.365-.702-.243-.174-.725-.35-1.444-.528-1.14-.272-1.976-.626-2.504-1.062-.53-.436-.793-1.12-.793-2.054 0-.932.334-1.652 1.003-2.16.67-.504 1.503-.757 2.504-.757.654 0 1.31.115 1.963.34.654.224 1.225.543 1.71.955l-1.107 1.604c-.85-.648-1.73-.97-2.636-.97-.365 0-.653.085-.863.26-.21.172-.313.402-.313.687 0 .287.128.514.386.683.257.168.85.367 1.78.596.93.23 1.653.574 2.167 1.034.513.46.77 1.13.77 2.01 0 .882-.33 1.597-.988 2.146-.66.547-1.527.823-2.602.823-1.552 0-2.95-.58-4.192-1.733l1.303-1.602c1.06.927 2.036 1.392 2.934 1.392zm15.846-6.103H43.55v7.93h-2.188v-7.93h-2.777v-1.9h7.74v1.9zm15.37 3.754l1.737-5.656h2.286l1.725 5.654 1.948-5.655h2.37l-3.422 9.83H66.72l-2.146-6.834-2.132 6.835h-1.626l-3.422-9.83h2.37l1.935 5.653zm19.814-5.656l4.235 9.83h-2.33l-.91-2.123H78.4l-.91 2.125h-2.328l4.235-9.83h2.118zm.168 5.78l-1.22-2.854-1.234 2.855h2.453zm10.896 2.096h4.178v1.956H90.39v-9.83h2.19v7.875zm11.47 0h4.18v1.956h-6.368v-9.83h2.188v7.875zm16.352-5.92h-4.88v2.025h4.39v1.87h-4.39v2.04h5.034v1.94h-7.222v-9.83h7.068v1.956zm12.537-.055h-2.778v7.93h-2.19v-7.93h-2.776v-1.9h7.742v1.9z"/></svg>
<svg baseProfile="full" height="55" width="60" viewBox="-10 -10 60 55" id="money" y="605"><defs><filter filterUnits="userSpaceOnUse" x="179" y="1820" width="41" height="37"><feOffset in="SourceAlpha" dy="1"/><feGaussianBlur result="blurOut"/><feFlood flood-color="rgb( 255, 255, 255 )" result="floodOut"/><feComposite operator="atop" in="floodOut" in2="blurOut"/><feComponentTransfer><feFuncA type="linear" slope=".22"/></feComponentTransfer><feMerge><feMergeNode/><feMergeNode in="SourceGraphic"/></feMerge></filter><filter id="afa"><feOffset in="SourceAlpha"/><feGaussianBlur result="blurOut" stdDeviation="1.414"/><feFlood flood-color="rgb( 74, 74, 74 )" result="floodOut"/><feComposite operator="out" in="floodOut" in2="blurOut" result="compOut"/><feComposite operator="in" in="compOut" in2="SourceAlpha"/><feComponentTransfer><feFuncA type="linear" slope=".17"/></feComponentTransfer><feBlend in2="SourceGraphic"/></filter><linearGradient id="afb" x1="0%" x2="0%" y1="100%" y2="0%"><stop offset="0%" stop-color="#f11352"/><stop offset="100%" stop-color="#ff8caa"/></linearGradient></defs><path fill-opacity=".702" fill="rgb( 190, 49, 62 )" d="M.996 34V.015h38.007V34H.996zm2.376-2.34H29.53l-1.197-1.18H3.373v1.18zm0-3.524h22.586l-1.197-1.18H3.374v1.18zm0-3.52h19.013l-1.198-1.182H3.372v1.18zm0-3.524h3.56c0-1.937-1.597-3.513-3.56-3.514v3.514zm0-18.736V5.87c1.963-.003 3.56-1.578 3.56-3.514h-3.56zm33.255 0h-3.58c0 1.937 1.598 3.513 3.563 3.513.005 0 .01-.004.017-.004v-3.51zm0 5.854h-.017c-3.276 0-5.94-2.626-5.94-5.854H9.308c0 3.227-2.663 5.854-5.935 5.855v7.028c3.272 0 5.935 2.626 5.935 5.855H30.67c0-3.23 2.664-5.855 5.94-5.855h.017V8.21zm0 9.37l-.017-.002c-1.965 0-3.563 1.576-3.563 3.514h3.58V17.58zM20 18.77c-3.93 0-7.127-3.16-7.127-7.047 0-3.886 3.198-7.047 7.126-7.047 3.927 0 7.125 3.16 7.125 7.047 0 3.886-3.198 7.048-7.127 7.048zm.017-10c.373 0 .72.167.946.462l.945-.71c-.337-.435-.802-.73-1.324-.854V6.454h-1.188V7.69c-1.007.27-1.754 1.17-1.754 2.25 0 1.29 1.065 2.342 2.375 2.342.655 0 1.188.525 1.188 1.17 0 .646-.533 1.172-1.188 1.172-.362 0-.698-.16-.926-.437l-.923.735c.32.39.75.656 1.23.783v1.31h1.188V15.72c1.036-.253 1.808-1.17 1.808-2.268 0-1.29-1.064-2.34-2.375-2.34-.654 0-1.188-.527-1.188-1.172 0-.647.533-1.17 1.187-1.17z" filter="url(#afa)"/><path fill="url(#afb)" d="M.996 34V.015h38.007V34H.996zm2.376-2.34H29.53l-1.197-1.18H3.373v1.18zm0-3.524h22.586l-1.197-1.18H3.374v1.18zm0-3.52h19.013l-1.198-1.182H3.372v1.18zm0-3.524h3.56c0-1.937-1.597-3.513-3.56-3.514v3.514zm0-18.736V5.87c1.963-.003 3.56-1.578 3.56-3.514h-3.56zm33.255 0h-3.58c0 1.937 1.598 3.513 3.563 3.513.005 0 .01-.004.017-.004v-3.51zm0 5.854h-.017c-3.276 0-5.94-2.626-5.94-5.854H9.308c0 3.227-2.663 5.854-5.935 5.855v7.028c3.272 0 5.935 2.626 5.935 5.855H30.67c0-3.23 2.664-5.855 5.94-5.855h.017V8.21zm0 9.37l-.017-.002c-1.965 0-3.563 1.576-3.563 3.514h3.58V17.58zM20 18.77c-3.93 0-7.127-3.16-7.127-7.047 0-3.886 3.198-7.047 7.126-7.047 3.927 0 7.125 3.16 7.125 7.047 0 3.886-3.198 7.048-7.127 7.048zm.017-10c.373 0 .72.167.946.462l.945-.71c-.337-.435-.802-.73-1.324-.854V6.454h-1.188V7.69c-1.007.27-1.754 1.17-1.754 2.25 0 1.29 1.065 2.342 2.375 2.342.655 0 1.188.525 1.188 1.17 0 .646-.533 1.172-1.188 1.172-.362 0-.698-.16-.926-.437l-.923.735c.32.39.75.656 1.23.783v1.31h1.188V15.72c1.036-.253 1.808-1.17 1.808-2.268 0-1.29-1.064-2.34-2.375-2.34-.654 0-1.188-.527-1.188-1.172 0-.647.533-1.17 1.187-1.17z"/></svg>
<svg baseProfile="full" height="63" width="46" viewBox="-10 -10 46 63" id="phone" y="660"><defs><filter filterUnits="userSpaceOnUse" x="406" y="1816" width="29" height="46"><feOffset in="SourceAlpha" dy="1"/><feGaussianBlur result="blurOut"/><feFlood flood-color="rgb( 255, 255, 255 )" result="floodOut"/><feComposite operator="atop" in="floodOut" in2="blurOut"/><feComponentTransfer><feFuncA type="linear" slope=".22"/></feComponentTransfer><feMerge><feMergeNode/><feMergeNode in="SourceGraphic"/></feMerge></filter><filter id="aga"><feOffset in="SourceAlpha"/><feGaussianBlur result="blurOut" stdDeviation="1.414"/><feFlood flood-color="rgb( 74, 74, 74 )" result="floodOut"/><feComposite operator="out" in="floodOut" in2="blurOut" result="compOut"/><feComposite operator="in" in="compOut" in2="SourceAlpha"/><feComponentTransfer><feFuncA type="linear" slope=".17"/></feComponentTransfer><feBlend in2="SourceGraphic"/></filter><linearGradient id="agb" x1="0%" x2="0%" y1="100%" y2="0%"><stop offset="0%" stop-color="#f11352"/><stop offset="100%" stop-color="#ff8caa"/></linearGradient></defs><path fill-opacity=".702" fill="rgb( 190, 49, 62 )" d="M21.62.22H3.66C1.644.22.002 1.856.002 3.87v35.195c0 2.014 1.642 3.652 3.66 3.652H21.62c2.018 0 3.658-1.64 3.658-3.653V3.872c0-2.015-1.64-3.653-3.66-3.653zM10.64 2.875h3.99c.367 0 .666.296.666.664 0 .366-.3.663-.665.663h-3.99c-.37 0-.665-.297-.665-.664 0-.37.297-.665.665-.665zm1.998 37.187c-1.1 0-1.994-.893-1.994-1.993s.894-1.99 1.994-1.99c1.102 0 1.995.89 1.995 1.99s-.893 1.992-1.995 1.992zm9.974-6.64H2.66V6.86h19.954v26.563z" filter="url(#aga)"/><path fill="url(#agb)" d="M21.62.22H3.66C1.644.22.002 1.856.002 3.87v35.195c0 2.014 1.642 3.652 3.66 3.652H21.62c2.018 0 3.658-1.64 3.658-3.653V3.872c0-2.015-1.64-3.653-3.66-3.653zM10.64 2.875h3.99c.367 0 .666.296.666.664 0 .366-.3.663-.665.663h-3.99c-.37 0-.665-.297-.665-.664 0-.37.297-.665.665-.665zm1.998 37.187c-1.1 0-1.994-.893-1.994-1.993s.894-1.99 1.994-1.99c1.102 0 1.995.89 1.995 1.99s-.893 1.992-1.995 1.992zm9.974-6.64H2.66V6.86h19.954v26.563z"/></svg>
<svg baseProfile="full" height="67" width="68" viewBox="-10 -10 68 67" id="satellite" y="723"><defs><filter filterUnits="userSpaceOnUse" x="93" y="1688" width="50" height="50"><feOffset in="SourceAlpha" dy="1"/><feGaussianBlur result="blurOut"/><feFlood flood-color="rgb( 255, 255, 255 )" result="floodOut"/><feComposite operator="atop" in="floodOut" in2="blurOut"/><feComponentTransfer><feFuncA type="linear" slope=".22"/></feComponentTransfer><feMerge><feMergeNode/><feMergeNode in="SourceGraphic"/></feMerge></filter><filter id="aha"><feOffset in="SourceAlpha"/><feGaussianBlur result="blurOut" stdDeviation="1.414"/><feFlood flood-color="rgb( 74, 74, 74 )" result="floodOut"/><feComposite operator="out" in="floodOut" in2="blurOut" result="compOut"/><feComposite operator="in" in="compOut" in2="SourceAlpha"/><feComponentTransfer><feFuncA type="linear" slope=".17"/></feComponentTransfer><feBlend in2="SourceGraphic"/></filter><linearGradient id="ahb" x1="0%" x2="0%" y1="100%" y2="0%"><stop offset="0%" stop-color="#f11352"/><stop offset="100%" stop-color="#ff8caa"/></linearGradient></defs><path fill-opacity=".702" fill="rgb( 252, 26, 95 )" d="M38.15 11.758c-.258 0-.504-.045-.743-.107l-1.972 1.965c.795 1.19 1.224 2.587 1.224 4.05 0 1.962-.77 3.805-2.165 5.192l-4.707 4.682 2.08 2.07 2.61-2.598 12.528 12.462-7.308 7.27L27.172 34.28l2.61-2.596-2.08-2.07-4.694 4.668-1.748-1.738c.113.56.173 1.14.173 1.732 0 2.436-.995 4.642-2.6 6.24L6.303 28.05c1.604-1.6 3.82-2.588 6.27-2.588.597 0 1.18.06 1.742.172l-1.748-1.738 4.694-4.67-2.097-2.086-2.61 2.598L.026 7.278 7.334.007 19.86 12.47l-2.608 2.595 2.098 2.087 4.705-4.68c1.396-1.39 3.248-2.15 5.22-2.15 1.47 0 2.875.424 4.072 1.215l1.963-1.954c-.066-.245-.112-.5-.112-.765 0-1.622 1.32-2.935 2.952-2.935 1.63 0 2.954 1.313 2.954 2.937 0 1.62-1.323 2.936-2.953 2.938zm1.55 30.83l3.132-3.116-8.352-8.308-3.132 3.115 8.352 8.31zM7.334 4.163L4.202 7.277l8.352 8.31 3.132-3.118-8.352-8.31zM32.408 14.55c-1.674-1.67-4.59-1.666-6.265 0l-9.4 9.348 2.496 2.48 9.526-9.48 3.758 3.738c.755-.815 1.18-1.857 1.18-2.972 0-1.177-.46-2.283-1.297-3.115zM11.08 38.18h.003c.326 0 .64-.07.934-.205l1.246 2.663c-.686.317-1.42.478-2.18.478h-.003c-1.378 0-2.676-.534-3.65-1.503-.977-.974-1.515-2.264-1.515-3.637 0-.8.18-1.567.535-2.28L9.096 35c-.15.306-.228.634-.228.977 0 .588.23 1.142.65 1.558.417.417.974.646 1.563.646zm-7.236-5.87c-.585 1.137-.882 2.372-.882 3.668 0 4.453 3.642 8.077 8.12 8.077 1.3 0 2.542-.296 3.69-.88l1.342 2.617c-1.568.797-3.26 1.2-5.03 1.2C4.974 46.992.008 42.05.008 35.98c0-1.74.417-3.47 1.204-5.006l2.63 1.337z" filter="url(#aha)"/><path fill="url(#ahb)" d="M38.15 11.758c-.258 0-.504-.045-.743-.107l-1.972 1.965c.795 1.19 1.224 2.587 1.224 4.05 0 1.962-.77 3.805-2.165 5.192l-4.707 4.682 2.08 2.07 2.61-2.598 12.528 12.462-7.308 7.27L27.172 34.28l2.61-2.596-2.08-2.07-4.694 4.668-1.748-1.738c.113.56.173 1.14.173 1.732 0 2.436-.995 4.642-2.6 6.24L6.303 28.05c1.604-1.6 3.82-2.588 6.27-2.588.597 0 1.18.06 1.742.172l-1.748-1.738 4.694-4.67-2.097-2.086-2.61 2.598L.026 7.278 7.334.007 19.86 12.47l-2.608 2.595 2.098 2.087 4.705-4.68c1.396-1.39 3.248-2.15 5.22-2.15 1.47 0 2.875.424 4.072 1.215l1.963-1.954c-.066-.245-.112-.5-.112-.765 0-1.622 1.32-2.935 2.952-2.935 1.63 0 2.954 1.313 2.954 2.937 0 1.62-1.323 2.936-2.953 2.938zm1.55 30.83l3.132-3.116-8.352-8.308-3.132 3.115 8.352 8.31zM7.334 4.163L4.202 7.277l8.352 8.31 3.132-3.118-8.352-8.31zM32.408 14.55c-1.674-1.67-4.59-1.666-6.265 0l-9.4 9.348 2.496 2.48 9.526-9.48 3.758 3.738c.755-.815 1.18-1.857 1.18-2.972 0-1.177-.46-2.283-1.297-3.115zM11.08 38.18h.003c.326 0 .64-.07.934-.205l1.246 2.663c-.686.317-1.42.478-2.18.478h-.003c-1.378 0-2.676-.534-3.65-1.503-.977-.974-1.515-2.264-1.515-3.637 0-.8.18-1.567.535-2.28L9.096 35c-.15.306-.228.634-.228.977 0 .588.23 1.142.65 1.558.417.417.974.646 1.563.646zm-7.236-5.87c-.585 1.137-.882 2.372-.882 3.668 0 4.453 3.642 8.077 8.12 8.077 1.3 0 2.542-.296 3.69-.88l1.342 2.617c-1.568.797-3.26 1.2-5.03 1.2C4.974 46.992.008 42.05.008 35.98c0-1.74.417-3.47 1.204-5.006l2.63 1.337z"/></svg>
<svg baseProfile="full" height="55" width="51" viewBox="-10 -10 51 55" id="shield" y="790"><defs><filter filterUnits="userSpaceOnUse" x="507" y="1694" width="33" height="38"><feOffset in="SourceAlpha" dy="1"/><feGaussianBlur result="blurOut"/><feFlood flood-color="rgb( 255, 255, 255 )" result="floodOut"/><feComposite operator="atop" in="floodOut" in2="blurOut"/><feComponentTransfer><feFuncA type="linear" slope=".22"/></feComponentTransfer><feMerge><feMergeNode/><feMergeNode in="SourceGraphic"/></feMerge></filter><filter id="aia"><feOffset in="SourceAlpha"/><feGaussianBlur result="blurOut" stdDeviation="1.414"/><feFlood flood-color="rgb( 74, 74, 74 )" result="floodOut"/><feComposite operator="out" in="floodOut" in2="blurOut" result="compOut"/><feComposite operator="in" in="compOut" in2="SourceAlpha"/><feComponentTransfer><feFuncA type="linear" slope=".17"/></feComponentTransfer><feBlend in2="SourceGraphic"/></filter><linearGradient id="aib" x1="0%" x2="0%" y1="100%" y2="0%"><stop offset="0%" stop-color="#f11352"/><stop offset="100%" stop-color="#ff8caa"/></linearGradient></defs><path fill-opacity=".702" fill="rgb( 190, 49, 62 )" d="M.987.005v13.54c0 3.394 1.048 14.955 14.527 21.223l.492.228.486-.242c12.613-6.307 14.496-16.085 14.496-21.352V.005h-30zm2.223 13.54V2.19h22.227v6.906l-2.402-1.93-8.837 10.618L9.943 13.6l-2.357 2.32 6.86 6.745 10.99-13.21v5.85c0 5.407-2.184 12.946-9.22 17.114-.086.042-.16.09-.245.135C4.14 26.792 3.21 16.572 3.21 13.545z" filter="url(#aia)"/><path fill="url(#aib)" d="M.987.005v13.54c0 3.394 1.048 14.955 14.527 21.223l.492.228.486-.242c12.613-6.307 14.496-16.085 14.496-21.352V.005h-30zm2.223 13.54V2.19h22.227v6.906l-2.402-1.93-8.837 10.618L9.943 13.6l-2.357 2.32 6.86 6.745 10.99-13.21v5.85c0 5.407-2.184 12.946-9.22 17.114-.086.042-.16.09-.245.135C4.14 26.792 3.21 16.572 3.21 13.545z"/></svg>
<svg baseProfile="full" height="101" width="98" viewBox="-10 -10 98 101" id="Прямоугольник 15" y="845"><path fill="rgb( 255, 255, 255 )" d="M19.75 80V0H78v80H19.75zm30.48-19.66c2.567 0 4.725-2.157 4.725-4.723s-2.158-4.724-4.724-4.724c-2.564 0-4.722 2.158-4.722 4.724 0 2.566 2.158 4.724 4.724 4.724zm.118-40.123c-5.016 0-9.68 2.042-12.772 5.657L42.3 31.18c1.807-2.157 4.257-3.615 7.173-3.615 3.207 0 4.55 1.517 4.55 3.325 0 4.024-8.516 4.84-8.516 11.78 0 2.04.7 3.79 1.925 5.132l6.356-1.866c-.583-.525-1.05-1.516-1.05-2.45 0-4.898 9.74-5.54 9.74-14.054 0-5.424-4.607-9.215-12.13-9.215zm-30.6 40.215v19.58H0l19.747-19.58z"/></svg>
</svg>