<?xml version="1.0" encoding="utf-8"?><!DOCTYPE svg PUBLIC "-//W3C//DTD SVG 1.1//EN" "http://www.w3.org/Graphics/SVG/1.1/DTD/svg11.dtd"><svg version="1.1" baseProfile="full" xmlns="http://www.w3.org/2000/svg" xmlns:xlink="http://www.w3.org/1999/xlink" xmlns:ev="http://www.w3.org/2001/xml-events"   height="196px"   width="362px" ><defs><linearGradient id="PSgrad_0" x1="0%" x2="20.791%" y1="97.815%" y2="0%">  <stop offset="0%" stop-color="rgb(236,40,69)" stop-opacity="1" />  <stop offset="100%" stop-color="rgb(247,125,143)" stop-opacity="1" /></linearGradient></defs><path fill="rgb( 242, 65, 92 )" d="M0,196 C0,196 0,0.0010000000002 0,0.0010000000002 C0,0.0010000000002 362,0.0010000000002 362,0.0010000000002 C362,0.0010000000002 362,196 362,196 C362,196 0,196 0,196 ZM50.291,26.8409999999999 C50.291,26.8409999999999 40.121,26.8409999999999 40.121,26.8409999999999 C40.121,26.8409999999999 40.121,45.7240000000002 40.121,45.7240000000002 C40.121,45.7240000000002 42.559,45.7240000000002 42.559,45.7240000000002 C42.559,45.7240000000002 42.559,37.1779999999999 42.559,37.1779999999999 C42.559,37.1779999999999 49.703,37.1779999999999 49.703,37.1779999999999 C49.703,37.1779999999999 49.703,35.1610000000001 49.703,35.1610000000001 C49.703,35.1610000000001 42.559,35.1610000000001 42.559,35.1610000000001 C42.559,35.1610000000001 42.559,28.886 42.559,28.886 C42.559,28.886 50.291,28.886 50.291,28.886 C50.291,28.886 50.291,26.8409999999999 50.291,26.8409999999999 ZM69.584,31.828 C69.584,30.3710000000001 69.051,29.0819999999999 68.099,28.2420000000002 C66.922,27.1779999999999 65.241,26.701 62.636,26.701 C60.955,26.701 59.19,26.8409999999999 57.957,27.0940000000001 C57.957,27.0940000000001 57.957,45.7240000000002 57.957,45.7240000000002 C57.957,45.7240000000002 60.395,45.7240000000002 60.395,45.7240000000002 C60.395,45.7240000000002 60.395,37.5430000000001 60.395,37.5430000000001 C60.395,37.5430000000001 62.692,37.5430000000001 62.692,37.5430000000001 C64.905,37.627 65.914,38.607 66.474,41.2130000000002 C67.006,43.567 67.427,45.192 67.735,45.7240000000002 C67.735,45.7240000000002 70.256,45.7240000000002 70.256,45.7240000000002 C69.864,44.9949999999999 69.416,43.174 68.799,40.5410000000002 C68.351,38.5790000000002 67.483,37.2350000000001 66.026,36.73 C66.026,36.73 66.026,36.6469999999999 66.026,36.6469999999999 C68.015,35.9740000000002 69.584,34.3209999999999 69.584,31.828 ZM87.839,43.6790000000001 C87.839,43.6790000000001 79.659,43.6790000000001 79.659,43.6790000000001 C79.659,43.6790000000001 79.659,36.8699999999999 79.659,36.8699999999999 C79.659,36.8699999999999 86.999,36.8699999999999 86.999,36.8699999999999 C86.999,36.8699999999999 86.999,34.8539999999998 86.999,34.8539999999998 C86.999,34.8539999999998 79.659,34.8539999999998 79.659,34.8539999999998 C79.659,34.8539999999998 79.659,28.886 79.659,28.886 C79.659,28.886 87.419,28.886 87.419,28.886 C87.419,28.886 87.419,26.8409999999999 87.419,26.8409999999999 C87.419,26.8409999999999 77.221,26.8409999999999 77.221,26.8409999999999 C77.221,26.8409999999999 77.221,45.7240000000002 77.221,45.7240000000002 C77.221,45.7240000000002 87.839,45.7240000000002 87.839,45.7240000000002 C87.839,45.7240000000002 87.839,43.6790000000001 87.839,43.6790000000001 ZM105.815,43.6790000000001 C105.815,43.6790000000001 97.634,43.6790000000001 97.634,43.6790000000001 C97.634,43.6790000000001 97.634,36.8699999999999 97.634,36.8699999999999 C97.634,36.8699999999999 104.974,36.8699999999999 104.974,36.8699999999999 C104.974,36.8699999999999 104.974,34.8539999999998 104.974,34.8539999999998 C104.974,34.8539999999998 97.634,34.8539999999998 97.634,34.8539999999998 C97.634,34.8539999999998 97.634,28.886 97.634,28.886 C97.634,28.886 105.395,28.886 105.395,28.886 C105.395,28.886 105.395,26.8409999999999 105.395,26.8409999999999 C105.395,26.8409999999999 95.197,26.8409999999999 95.197,26.8409999999999 C95.197,26.8409999999999 95.197,45.7240000000002 95.197,45.7240000000002 C95.197,45.7240000000002 105.815,45.7240000000002 105.815,45.7240000000002 C105.815,45.7240000000002 105.815,43.6790000000001 105.815,43.6790000000001 ZM137.652,35.4140000000002 C137.652,35.4140000000002 135.411,35.4140000000002 135.411,35.4140000000002 C135.047,37.7950000000001 134.458,39.616 133.59,40.933 C132.385,39.5880000000002 130.592,37.5149999999999 128.996,35.6660000000002 C128.996,35.6660000000002 128.996,35.5819999999999 128.996,35.5819999999999 C131.993,34.0970000000002 133.142,32.5279999999998 133.142,30.5390000000002 C133.142,28.1030000000001 131.321,26.5329999999999 128.968,26.5329999999999 C125.83,26.5329999999999 124.177,28.886 124.177,31.1840000000002 C124.177,32.5279999999998 124.765,33.9009999999998 125.746,35.1329999999998 C125.746,35.1329999999998 125.746,35.2170000000001 125.746,35.2170000000001 C123.589,36.3939999999998 122.048,38.1590000000001 122.048,40.7370000000001 C122.048,43.567 124.177,46.0309999999999 127.847,46.0309999999999 C129.92,46.0309999999999 131.741,45.3870000000002 133.366,43.8739999999998 C134.094,44.6590000000001 134.599,45.192 135.131,45.7240000000002 C135.131,45.7240000000002 138.044,45.7240000000002 138.044,45.7240000000002 C136.924,44.5189999999998 135.943,43.4549999999999 134.935,42.3890000000001 C136.336,40.7370000000001 137.148,38.3829999999998 137.652,35.4140000000002 ZM168.62,26.8409999999999 C168.62,26.8409999999999 166.154,26.8409999999999 166.154,26.8409999999999 C166.154,26.8409999999999 166.154,34.741 166.154,34.741 C166.154,34.741 157.021,34.741 157.021,34.741 C157.021,34.741 157.021,26.8409999999999 157.021,26.8409999999999 C157.021,26.8409999999999 154.584,26.8409999999999 154.584,26.8409999999999 C154.584,26.8409999999999 154.584,45.7240000000002 154.584,45.7240000000002 C154.584,45.7240000000002 157.021,45.7240000000002 157.021,45.7240000000002 C157.021,45.7240000000002 157.021,36.8699999999999 157.021,36.8699999999999 C157.021,36.8699999999999 166.154,36.8699999999999 166.154,36.8699999999999 C166.154,36.8699999999999 166.154,45.7240000000002 166.154,45.7240000000002 C166.154,45.7240000000002 168.62,45.7240000000002 168.62,45.7240000000002 C168.62,45.7240000000002 168.62,26.8409999999999 168.62,26.8409999999999 ZM184.968,26.8409999999999 C184.968,26.8409999999999 182.027,26.8409999999999 182.027,26.8409999999999 C182.027,26.8409999999999 175.611,45.7240000000002 175.611,45.7240000000002 C175.611,45.7240000000002 178.132,45.7240000000002 178.132,45.7240000000002 C178.132,45.7240000000002 180.094,39.7840000000001 180.094,39.7840000000001 C180.094,39.7840000000001 186.789,39.7840000000001 186.789,39.7840000000001 C186.789,39.7840000000001 188.806,45.7240000000002 188.806,45.7240000000002 C188.806,45.7240000000002 191.412,45.7240000000002 191.412,45.7240000000002 C191.412,45.7240000000002 184.968,26.8409999999999 184.968,26.8409999999999 ZM212.552,26.8409999999999 C212.552,26.8409999999999 210.254,26.8409999999999 210.254,26.8409999999999 C210.254,26.8409999999999 210.254,34.741 210.254,34.741 C210.254,37.683 210.31,39.98 210.535,42.5010000000002 C210.535,42.5010000000002 210.478,42.5300000000002 210.478,42.5300000000002 C209.582,40.596 208.489,38.607 207.089,36.3939999999998 C207.089,36.3939999999998 201.037,26.8409999999999 201.037,26.8409999999999 C201.037,26.8409999999999 198.376,26.8409999999999 198.376,26.8409999999999 C198.376,26.8409999999999 198.376,45.7240000000002 198.376,45.7240000000002 C198.376,45.7240000000002 200.673,45.7240000000002 200.673,45.7240000000002 C200.673,45.7240000000002 200.673,37.6550000000002 200.673,37.6550000000002 C200.673,34.5169999999998 200.617,32.248 200.477,29.8670000000002 C200.477,29.8670000000002 200.561,29.8389999999999 200.561,29.8389999999999 C201.513,31.884 202.774,34.0410000000002 204.091,36.1419999999998 C204.091,36.1419999999998 210.086,45.7240000000002 210.086,45.7240000000002 C210.086,45.7240000000002 212.552,45.7240000000002 212.552,45.7240000000002 C212.552,45.7240000000002 212.552,26.8409999999999 212.552,26.8409999999999 ZM233.83,29.0540000000001 C232.178,27.5140000000001 229.684,26.701 226.182,26.701 C224.249,26.701 222.485,26.8690000000001 221,27.0940000000001 C221,27.0940000000001 221,45.6669999999999 221,45.6669999999999 C222.232,45.808 223.689,45.8910000000001 225.426,45.8910000000001 C229.096,45.8910000000001 232.01,44.9389999999999 233.774,43.174 C235.539,41.4369999999999 236.492,38.9160000000002 236.492,35.8339999999998 C236.492,32.7800000000002 235.511,30.5949999999998 233.83,29.0540000000001 ZM249.506,35.0219999999999 C246.901,34.0129999999999 245.752,33.145 245.752,31.3789999999999 C245.752,30.0909999999999 246.733,28.5500000000002 249.31,28.5500000000002 C251.019,28.5500000000002 252.28,29.1109999999999 252.896,29.4470000000001 C252.896,29.4470000000001 253.569,27.4580000000001 253.569,27.4580000000001 C252.728,26.9810000000002 251.327,26.5329999999999 249.394,26.5329999999999 C245.724,26.5329999999999 243.287,28.7179999999998 243.287,31.6599999999999 C243.287,34.3209999999999 245.192,35.9180000000001 248.274,37.0100000000002 C250.823,37.991 251.832,38.9989999999998 251.832,40.7640000000001 C251.832,42.6700000000001 250.375,43.9870000000001 247.881,43.9870000000001 C246.2,43.9870000000001 244.604,43.4259999999999 243.511,42.7539999999999 C243.511,42.7539999999999 242.895,44.799 242.895,44.799 C243.903,45.471 245.892,46.0039999999999 247.713,46.0039999999999 C252.168,46.0039999999999 254.325,43.482 254.325,40.5680000000002 C254.325,37.7950000000001 252.7,36.2539999999999 249.506,35.0219999999999 ZM269.499,26.5329999999999 C264.456,26.5329999999999 260.73,30.4549999999999 260.73,36.451 C260.73,42.1660000000002 264.232,46.0309999999999 269.219,46.0309999999999 C274.038,46.0309999999999 277.988,42.5859999999998 277.988,36.0859999999998 C277.988,30.4830000000002 274.654,26.5329999999999 269.499,26.5329999999999 ZM302.936,26.8409999999999 C302.936,26.8409999999999 299.827,26.8409999999999 299.827,26.8409999999999 C299.827,26.8409999999999 296.465,35.9740000000002 296.465,35.9740000000002 C295.624,38.355 294.952,40.4279999999999 294.476,42.3330000000001 C294.476,42.3330000000001 294.392,42.3330000000001 294.392,42.3330000000001 C293.916,40.3719999999998 293.271,38.299 292.487,35.9740000000002 C292.487,35.9740000000002 289.265,26.8409999999999 289.265,26.8409999999999 C289.265,26.8409999999999 286.155,26.8409999999999 286.155,26.8409999999999 C286.155,26.8409999999999 284.839,45.7240000000002 284.839,45.7240000000002 C284.839,45.7240000000002 287.164,45.7240000000002 287.164,45.7240000000002 C287.164,45.7240000000002 287.668,37.627 287.668,37.627 C287.836,34.7979999999998 287.976,31.6320000000001 288.032,29.279 C288.032,29.279 288.088,29.279 288.088,29.279 C288.621,31.52 289.377,33.9569999999999 290.274,36.6179999999999 C290.274,36.6179999999999 293.327,45.6109999999999 293.327,45.6109999999999 C293.327,45.6109999999999 295.176,45.6109999999999 295.176,45.6109999999999 C295.176,45.6109999999999 298.51,36.451 298.51,36.451 C299.463,33.8449999999998 300.247,31.491 300.891,29.279 C300.891,29.279 300.975,29.279 300.975,29.279 C300.947,31.6320000000001 301.115,34.7979999999998 301.255,37.431 C301.255,37.431 301.732,45.7240000000002 301.732,45.7240000000002 C301.732,45.7240000000002 304.113,45.7240000000002 304.113,45.7240000000002 C304.113,45.7240000000002 302.936,26.8409999999999 302.936,26.8409999999999 ZM322.672,43.6790000000001 C322.672,43.6790000000001 314.492,43.6790000000001 314.492,43.6790000000001 C314.492,43.6790000000001 314.492,36.8699999999999 314.492,36.8699999999999 C314.492,36.8699999999999 321.832,36.8699999999999 321.832,36.8699999999999 C321.832,36.8699999999999 321.832,34.8539999999998 321.832,34.8539999999998 C321.832,34.8539999999998 314.492,34.8539999999998 314.492,34.8539999999998 C314.492,34.8539999999998 314.492,28.886 314.492,28.886 C314.492,28.886 322.252,28.886 322.252,28.886 C322.252,28.886 322.252,26.8409999999999 322.252,26.8409999999999 C322.252,26.8409999999999 312.055,26.8409999999999 312.055,26.8409999999999 C312.055,26.8409999999999 312.055,45.7240000000002 312.055,45.7240000000002 C312.055,45.7240000000002 322.672,45.7240000000002 322.672,45.7240000000002 C322.672,45.7240000000002 322.672,43.6790000000001 322.672,43.6790000000001 ZM354.49,67.473 C354.49,67.473 7.511,67.473 7.511,67.473 C7.511,67.473 7.511,188.528 7.511,188.528 C7.511,188.528 354.49,188.528 354.49,188.528 C354.49,188.528 354.49,67.473 354.49,67.473 ZM49.465,88.3969999999999 C49.465,88.3969999999999 83.59,88.3969999999999 83.59,88.3969999999999 C86.858,88.3969999999999 89.499,91.029 89.499,94.2750000000001 C89.499,94.2750000000001 89.499,163.222 89.499,163.222 C89.499,166.468 86.858,169.101 83.59,169.101 C83.59,169.101 49.465,169.101 49.465,169.101 C46.202,169.101 43.559,166.468 43.559,163.222 C43.559,163.222 43.559,94.2750000000001 43.559,94.2750000000001 C43.559,91.029 46.202,88.3969999999999 49.465,88.3969999999999 ZM70.389,93.4029999999998 C70.389,93.4029999999998 62.67,93.4029999999998 62.67,93.4029999999998 C62.67,93.4029999999998 62.67,95.9540000000002 62.67,95.9540000000002 C62.67,95.9540000000002 70.389,95.9540000000002 70.389,95.9540000000002 C70.389,95.9540000000002 70.389,93.4029999999998 70.389,93.4029999999998 ZM66.533,166.015 C68.611,166.015 70.296,164.339 70.296,162.268 C70.296,160.201 68.611,158.522 66.533,158.522 C64.452,158.522 62.762,160.201 62.762,162.268 C62.762,164.339 64.452,166.015 66.533,166.015 ZM47.985,156.158 C47.985,156.158 85.075,156.158 85.075,156.158 C85.075,156.158 85.075,101.34 85.075,101.34 C85.075,101.34 47.985,101.34 47.985,101.34 C47.985,101.34 47.985,156.158 47.985,156.158 ZM133.414,125.431 C133.414,125.431 143.282,155.649 143.282,155.649 C143.282,155.649 137.334,155.649 137.334,155.649 C137.334,155.649 134.585,147.086 134.585,147.086 C134.585,147.086 124.942,147.086 124.942,147.086 C124.942,147.086 122.329,155.649 122.329,155.649 C122.329,155.649 116.606,155.649 116.606,155.649 C116.606,155.649 126.339,125.431 126.339,125.431 C126.339,125.431 133.414,125.431 133.414,125.431 ZM133.639,142.916 C133.639,142.916 131.251,135.474 131.251,135.474 C130.665,133.636 130.169,131.573 129.719,129.825 C129.719,129.825 129.629,129.825 129.629,129.825 C129.178,131.573 128.727,133.681 128.187,135.474 C128.187,135.474 125.844,142.916 125.844,142.916 C125.844,142.916 133.639,142.916 133.639,142.916 ZM136.631,110.226 C136.631,110.226 134.948,115.298 134.948,115.298 C134.948,115.298 132.784,115.298 132.784,115.298 C132.784,115.298 138.29,99.174 138.29,99.174 C138.29,99.174 140.814,99.174 140.814,99.174 C140.814,99.174 146.344,115.298 146.344,115.298 C146.344,115.298 144.108,115.298 144.108,115.298 C144.108,115.298 142.377,110.226 142.377,110.226 C142.377,110.226 136.631,110.226 136.631,110.226 ZM140.357,103.958 C139.997,102.906 139.756,101.95 139.516,101.016 C139.516,101.016 139.468,101.016 139.468,101.016 C139.227,101.973 138.963,102.954 138.65,103.934 C138.65,103.934 137.063,108.599 137.063,108.599 C137.063,108.599 141.944,108.599 141.944,108.599 C141.944,108.599 140.357,103.958 140.357,103.958 ZM151.243,110.226 C151.628,111.279 151.94,112.235 152.181,113.192 C152.181,113.192 152.253,113.192 152.253,113.192 C152.517,112.235 152.854,111.279 153.239,110.226 C153.239,110.226 155.499,103.72 155.499,103.72 C155.499,103.72 157.711,103.72 157.711,103.72 C157.711,103.72 153.142,115.298 153.142,115.298 C153.142,115.298 151.123,115.298 151.123,115.298 C151.123,115.298 146.699,103.72 146.699,103.72 C146.699,103.72 148.959,103.72 148.959,103.72 C148.959,103.72 151.243,110.226 151.243,110.226 ZM152.025,137.178 C152.025,137.178 152.115,137.178 152.115,137.178 C153.737,134.713 156.306,133.322 159.64,133.322 C164.687,133.322 168.877,137.627 168.877,144.44 C168.877,152.331 163.875,156.142 158.874,156.142 C156.125,156.142 153.827,154.976 152.701,153.228 C152.701,153.228 152.61,153.228 152.61,153.228 C152.61,153.228 152.61,164.526 152.61,164.526 C152.61,164.526 147.068,164.526 147.068,164.526 C147.068,164.526 147.068,141.079 147.068,141.079 C147.068,138.209 146.978,135.877 146.888,133.815 C146.888,133.815 151.754,133.815 151.754,133.815 C151.754,133.815 152.025,137.178 152.025,137.178 ZM152.61,146.503 C152.61,147.041 152.655,147.534 152.791,148.027 C153.331,150.269 155.314,151.883 157.657,151.883 C161.172,151.883 163.245,148.969 163.245,144.665 C163.245,140.81 161.352,137.67 157.792,137.67 C155.494,137.67 153.376,139.329 152.836,141.75 C152.701,142.199 152.61,142.692 152.61,143.141 C152.61,143.141 152.61,146.503 152.61,146.503 ZM172.247,99.1500000000001 C173.04,99.1500000000001 173.545,99.7240000000002 173.545,100.467 C173.569,101.184 173.04,101.758 172.199,101.758 C171.453,101.758 170.925,101.184 170.925,100.467 C170.925,99.7240000000002 171.478,99.1500000000001 172.247,99.1500000000001 ZM173.305,115.298 C173.305,115.298 171.189,115.298 171.189,115.298 C171.189,115.298 171.189,103.72 171.189,103.72 C171.189,103.72 173.305,103.72 173.305,103.72 C173.305,103.72 173.305,115.298 173.305,115.298 ZM178.386,137.178 C178.386,137.178 178.476,137.178 178.476,137.178 C180.098,134.713 182.666,133.322 186.001,133.322 C191.048,133.322 195.238,137.627 195.238,144.44 C195.238,152.331 190.237,156.142 185.235,156.142 C182.486,156.142 180.188,154.976 179.061,153.228 C179.061,153.228 178.971,153.228 178.971,153.228 C178.971,153.228 178.971,164.526 178.971,164.526 C178.971,164.526 173.429,164.526 173.429,164.526 C173.429,164.526 173.429,141.079 173.429,141.079 C173.429,138.209 173.339,135.877 173.249,133.815 C173.249,133.815 178.115,133.815 178.115,133.815 C178.115,133.815 178.386,137.178 178.386,137.178 ZM178.971,146.503 C178.971,147.041 179.017,147.534 179.152,148.027 C179.692,150.269 181.675,151.883 184.018,151.883 C187.533,151.883 189.606,148.969 189.606,144.665 C189.606,140.81 187.713,137.67 184.153,137.67 C181.855,137.67 179.737,139.329 179.197,141.75 C179.061,142.199 178.971,142.692 178.971,143.141 C178.971,143.141 178.971,146.503 178.971,146.503 ZM194.068,112.307 C194.068,112.307 194.068,98.3130000000001 194.068,98.3130000000001 C194.068,98.3130000000001 196.16,98.3130000000001 196.16,98.3130000000001 C196.16,98.3130000000001 196.16,105.585 196.16,105.585 C196.16,105.585 196.208,105.585 196.208,105.585 C196.953,104.293 198.3,103.456 200.175,103.456 C203.06,103.456 205.104,105.848 205.08,109.365 C205.08,113.503 202.459,115.56 199.862,115.56 C198.179,115.56 196.833,114.914 195.967,113.384 C195.967,113.384 195.895,113.384 195.895,113.384 C195.895,113.384 195.799,115.298 195.799,115.298 C195.799,115.298 193.972,115.298 193.972,115.298 C194.02,114.508 194.068,113.336 194.068,112.307 ZM196.16,110.657 C196.16,110.92 196.208,111.183 196.256,111.422 C196.665,112.881 197.891,113.886 199.43,113.886 C201.642,113.886 202.964,112.092 202.964,109.437 C202.964,107.116 201.762,105.131 199.502,105.131 C198.059,105.131 196.713,106.111 196.28,107.714 C196.232,107.953 196.16,108.24 196.16,108.576 C196.16,108.576 196.16,110.657 196.16,110.657 ZM209.859,115.298 C209.859,115.298 207.743,115.298 207.743,115.298 C207.743,115.298 207.743,98.3130000000001 207.743,98.3130000000001 C207.743,98.3130000000001 209.859,98.3130000000001 209.859,98.3130000000001 C209.859,98.3130000000001 209.859,115.298 209.859,115.298 ZM216.552,151.569 C220.112,151.569 222.095,149.91 222.095,147.445 C222.095,145.158 220.563,143.813 216.687,142.424 C211.686,140.63 208.486,137.985 208.486,133.636 C208.486,128.705 212.632,124.938 219.211,124.938 C222.5,124.938 224.934,125.656 226.511,126.462 C226.511,126.462 225.159,130.901 225.159,130.901 C224.077,130.318 221.959,129.466 219.121,129.466 C215.606,129.466 214.074,131.349 214.074,133.098 C214.074,135.429 215.831,136.505 219.887,138.074 C225.159,140.048 227.727,142.692 227.727,147.041 C227.727,151.883 224.032,156.098 216.192,156.098 C212.992,156.098 209.658,155.201 207.991,154.214 C207.991,154.214 209.207,149.641 209.207,149.641 C211.01,150.672 213.714,151.569 216.552,151.569 ZM235.478,103.456 C238.82,103.456 241.08,105.873 241.08,109.413 C241.08,113.695 238.099,115.56 235.286,115.56 C232.136,115.56 229.708,113.264 229.708,109.604 C229.708,105.729 232.257,103.456 235.478,103.456 ZM235.382,113.982 C237.402,113.982 238.916,112.092 238.916,109.485 C238.916,107.523 237.931,105.035 235.43,105.035 C232.93,105.035 231.848,107.331 231.848,109.532 C231.848,112.068 233.314,113.982 235.382,113.982 ZM233.271,128.884 C233.271,128.884 238.678,127.584 238.678,127.584 C238.678,127.584 238.678,133.815 238.678,133.815 C238.678,133.815 243.95,133.815 243.95,133.815 C243.95,133.815 243.95,137.939 243.95,137.939 C243.95,137.939 238.678,137.939 238.678,137.939 C238.678,137.939 238.678,147.579 238.678,147.579 C238.678,150.225 239.399,151.614 241.517,151.614 C242.463,151.614 243.184,151.48 243.68,151.345 C243.68,151.345 243.77,155.559 243.77,155.559 C242.959,155.874 241.517,156.098 239.759,156.098 C237.732,156.098 236.019,155.425 234.983,154.304 C233.811,153.049 233.271,151.076 233.271,148.207 C233.271,148.207 233.271,137.939 233.271,137.939 C233.271,137.939 230.116,137.939 230.116,137.939 C230.116,137.939 230.116,133.815 230.116,133.815 C230.116,133.815 233.271,133.815 233.271,133.815 C233.271,133.815 233.271,128.884 233.271,128.884 ZM243.744,115.298 C243.744,115.298 243.744,106.853 243.744,106.853 C243.744,105.657 243.72,104.676 243.647,103.72 C243.647,103.72 245.523,103.72 245.523,103.72 C245.523,103.72 245.643,105.633 245.643,105.633 C245.643,105.633 245.691,105.633 245.691,105.633 C246.268,104.532 247.615,103.456 249.538,103.456 C251.149,103.456 253.65,104.413 253.65,108.384 C253.65,108.384 253.65,115.298 253.65,115.298 C253.65,115.298 251.534,115.298 251.534,115.298 C251.534,115.298 251.534,108.623 251.534,108.623 C251.534,106.757 250.836,105.202 248.841,105.202 C247.446,105.202 246.364,106.183 246.004,107.356 C245.907,107.619 245.859,107.978 245.859,108.336 C245.859,108.336 245.859,115.298 245.859,115.298 C245.859,115.298 243.744,115.298 243.744,115.298 ZM257.829,133.322 C264.363,133.322 268.734,137.895 268.734,144.53 C268.734,152.555 263.056,156.142 257.469,156.142 C251.25,156.142 246.474,151.883 246.474,144.889 C246.474,137.716 251.205,133.322 257.829,133.322 ZM257.649,152.152 C260.803,152.152 263.011,149.058 263.011,144.665 C263.011,141.257 261.479,137.357 257.694,137.357 C253.774,137.357 252.197,141.123 252.197,144.755 C252.197,148.969 254.269,152.152 257.649,152.152 ZM272.247,105.537 C272.247,105.537 272.296,105.537 272.296,105.537 C272.632,104.939 273.161,104.413 273.81,104.055 C274.435,103.696 275.181,103.456 275.974,103.456 C277.537,103.456 280.037,104.413 280.037,108.408 C280.037,108.408 280.037,115.298 280.037,115.298 C280.037,115.298 277.922,115.298 277.922,115.298 C277.922,115.298 277.922,108.647 277.922,108.647 C277.922,106.782 277.224,105.202 275.229,105.202 C273.858,105.202 272.776,106.159 272.392,107.308 C272.271,107.594 272.247,107.906 272.247,108.312 C272.247,108.312 272.247,115.298 272.247,115.298 C272.247,115.298 270.132,115.298 270.132,115.298 C270.132,115.298 270.132,98.3130000000001 270.132,98.3130000000001 C270.132,98.3130000000001 272.247,98.3130000000001 272.247,98.3130000000001 C272.247,98.3130000000001 272.247,105.537 272.247,105.537 ZM278.107,137.985 C278.107,137.985 278.287,137.985 278.287,137.985 C279.369,134.892 281.937,133.322 284.28,133.322 C284.821,133.322 285.137,133.367 285.587,133.457 C285.587,133.457 285.587,138.657 285.587,138.657 C285.137,138.567 284.641,138.478 283.965,138.478 C281.307,138.478 279.504,140.181 279.008,142.647 C278.918,143.141 278.828,143.723 278.828,144.351 C278.828,144.351 278.828,155.649 278.828,155.649 C278.828,155.649 273.286,155.649 273.286,155.649 C273.286,155.649 273.286,140.854 273.286,140.854 C273.286,137.895 273.241,135.788 273.105,133.815 C273.105,133.815 277.927,133.815 277.927,133.815 C277.927,133.815 278.107,137.985 278.107,137.985 ZM298.25,133.322 C305.369,133.322 307.713,139.15 307.713,143.948 C307.713,144.979 307.622,145.786 307.532,146.279 C307.532,146.279 292.843,146.279 292.843,146.279 C292.978,150.225 296.087,151.928 299.602,151.928 C302.17,151.928 304.018,151.569 305.685,150.942 C305.685,150.942 306.496,154.752 306.496,154.752 C304.603,155.515 301.99,156.098 298.836,156.098 C291.716,156.098 287.525,151.748 287.525,145.069 C287.525,139.016 291.22,133.322 298.25,133.322 ZM302.486,142.424 C302.531,140.405 301.629,137.088 297.935,137.088 C294.51,137.088 293.068,140.181 292.843,142.424 C292.843,142.424 302.486,142.424 302.486,142.424 ZM292.823,109.891 C292.823,109.891 284.648,109.891 284.648,109.891 C284.696,112.738 286.523,113.91 288.639,113.91 C290.154,113.91 291.067,113.646 291.861,113.312 C291.861,113.312 292.221,114.819 292.221,114.819 C291.476,115.154 290.202,115.537 288.351,115.537 C284.768,115.537 282.628,113.192 282.628,109.699 C282.628,106.207 284.696,103.456 288.086,103.456 C291.885,103.456 292.895,106.782 292.895,108.911 C292.895,109.341 292.846,109.676 292.823,109.891 ZM287.918,104.963 C285.778,104.963 284.84,106.925 284.672,108.384 C284.672,108.384 290.851,108.384 290.851,108.384 C290.875,107.044 290.298,104.963 287.918,104.963 ZM264.725,111.566 C264.725,113.001 265.134,113.814 266.312,113.814 C266.865,113.814 267.274,113.743 267.538,113.671 C267.538,113.671 267.635,115.249 267.635,115.249 C267.226,115.417 266.577,115.537 265.759,115.537 C264.773,115.537 263.98,115.226 263.475,114.652 C262.874,114.03 262.658,113.001 262.658,111.637 C262.658,111.637 262.658,105.323 262.658,105.323 C262.658,105.323 260.854,105.323 260.854,105.323 C260.854,105.323 260.854,103.72 260.854,103.72 C260.854,103.72 262.658,103.72 262.658,103.72 C262.658,103.72 262.658,100.944 262.658,100.944 C262.658,100.944 264.725,100.394 264.725,100.394 C264.725,100.394 264.725,103.72 264.725,103.72 C264.725,103.72 267.755,103.72 267.755,103.72 C267.755,103.72 267.755,105.323 267.755,105.323 C267.755,105.323 264.725,105.323 264.725,105.323 C264.725,105.323 264.725,111.566 264.725,111.566 ZM222.767,109.891 C222.767,109.891 214.593,109.891 214.593,109.891 C214.641,112.738 216.468,113.91 218.584,113.91 C220.098,113.91 221.012,113.646 221.805,113.312 C221.805,113.312 222.166,114.819 222.166,114.819 C221.421,115.154 220.146,115.537 218.295,115.537 C214.713,115.537 212.573,113.192 212.573,109.699 C212.573,106.207 214.641,103.456 218.031,103.456 C221.829,103.456 222.839,106.782 222.839,108.911 C222.839,109.341 222.791,109.676 222.767,109.891 ZM217.862,104.963 C215.723,104.963 214.785,106.925 214.616,108.384 C214.616,108.384 220.795,108.384 220.795,108.384 C220.82,107.044 220.243,104.963 217.862,104.963 ZM188.759,113.838 C188.759,113.838 188.687,113.838 188.687,113.838 C188.038,114.748 186.788,115.56 185.129,115.56 C182.773,115.56 181.571,113.91 181.571,112.235 C181.571,109.437 184.071,107.906 188.567,107.929 C188.567,107.929 188.567,107.691 188.567,107.691 C188.567,106.734 188.303,105.011 185.922,105.011 C184.84,105.011 183.71,105.346 182.893,105.873 C182.893,105.873 182.412,104.485 182.412,104.485 C183.374,103.863 184.768,103.456 186.235,103.456 C189.793,103.456 190.659,105.873 190.659,108.193 C190.659,108.193 190.659,112.522 190.659,112.522 C190.659,113.528 190.707,114.508 190.851,115.298 C190.851,115.298 188.928,115.298 188.928,115.298 C188.928,115.298 188.759,113.838 188.759,113.838 ZM188.615,109.388 C186.307,109.341 183.687,109.748 183.687,111.996 C183.687,113.36 184.6,114.006 185.682,114.006 C187.197,114.006 188.158,113.049 188.495,112.068 C188.567,111.853 188.615,111.614 188.615,111.398 C188.615,111.398 188.615,109.388 188.615,109.388 ZM176.813,98.3130000000001 C176.813,98.3130000000001 178.928,98.3130000000001 178.928,98.3130000000001 C178.928,98.3130000000001 178.928,115.298 178.928,115.298 C178.928,115.298 176.813,115.298 176.813,115.298 C176.813,115.298 176.813,98.3130000000001 176.813,98.3130000000001 ZM165.88,113.838 C165.88,113.838 165.808,113.838 165.808,113.838 C165.159,114.748 163.909,115.56 162.25,115.56 C159.894,115.56 158.691,113.91 158.691,112.235 C158.691,109.437 161.192,107.906 165.688,107.929 C165.688,107.929 165.688,107.691 165.688,107.691 C165.688,106.734 165.423,105.011 163.043,105.011 C161.961,105.011 160.831,105.346 160.014,105.873 C160.014,105.873 159.533,104.485 159.533,104.485 C160.495,103.863 161.889,103.456 163.356,103.456 C166.914,103.456 167.78,105.873 167.78,108.193 C167.78,108.193 167.78,112.522 167.78,112.522 C167.78,113.528 167.828,114.508 167.972,115.298 C167.972,115.298 166.049,115.298 166.049,115.298 C166.049,115.298 165.88,113.838 165.88,113.838 ZM165.736,109.388 C163.428,109.341 160.807,109.748 160.807,111.996 C160.807,113.36 161.721,114.006 162.803,114.006 C164.318,114.006 165.279,113.049 165.616,112.068 C165.688,111.853 165.736,111.614 165.736,111.398 C165.736,111.398 165.736,109.388 165.736,109.388 ZM269.359,44.0419999999999 C265.521,44.0419999999999 263.336,40.4279999999999 263.336,36.3939999999998 C263.336,32.248 265.353,28.5230000000001 269.387,28.5230000000001 C273.449,28.5230000000001 275.41,32.444 275.41,36.1979999999999 C275.41,40.4839999999999 273.225,44.0419999999999 269.359,44.0419999999999 ZM225.902,43.931 C224.95,43.931 224.053,43.9029999999998 223.437,43.7910000000002 C223.437,43.7910000000002 223.437,28.886 223.437,28.886 C224.081,28.7460000000001 225.034,28.634 226.294,28.634 C231.449,28.634 233.971,31.4639999999999 233.943,35.9180000000001 C233.943,41.0160000000001 231.113,43.931 225.902,43.931 ZM182.447,32.4160000000002 C182.811,31.268 183.119,30.1190000000001 183.399,28.9989999999998 C183.399,28.9989999999998 183.455,28.9989999999998 183.455,28.9989999999998 C183.735,30.0909999999999 184.016,31.2109999999998 184.436,32.444 C184.436,32.444 186.285,37.8789999999999 186.285,37.8789999999999 C186.285,37.8789999999999 180.598,37.8789999999999 180.598,37.8789999999999 C180.598,37.8789999999999 182.447,32.4160000000002 182.447,32.4160000000002 ZM124.401,40.3719999999998 C124.401,38.3829999999998 125.83,37.1779999999999 126.838,36.5340000000001 C128.94,38.944 131.041,41.2399999999998 132.161,42.4740000000002 C131.265,43.4549999999999 129.892,44.183 128.267,44.183 C125.998,44.183 124.401,42.5300000000002 124.401,40.3719999999998 ZM126.418,30.9589999999998 C126.418,29.502 127.231,28.2139999999999 128.799,28.2139999999999 C130.34,28.2139999999999 130.985,29.502 130.985,30.6509999999998 C130.985,32.248 129.752,33.2570000000001 127.847,34.3490000000002 C127.035,33.3400000000001 126.418,32.3040000000001 126.418,30.9589999999998 ZM60.395,35.694 C60.395,35.694 60.395,28.8020000000001 60.395,28.8020000000001 C60.787,28.6900000000001 61.628,28.578 62.804,28.578 C65.382,28.6060000000002 67.146,29.6709999999998 67.146,32.1080000000002 C67.146,34.2660000000001 65.494,35.694 62.888,35.694 C62.888,35.694 60.395,35.694 60.395,35.694 Z "/><path fill="url(#PSgrad_0)" d="M0,196 C0,196 0,0.0010000000002 0,0.0010000000002 C0,0.0010000000002 362,0.0010000000002 362,0.0010000000002 C362,0.0010000000002 362,196 362,196 C362,196 0,196 0,196 ZM50.291,26.8409999999999 C50.291,26.8409999999999 40.121,26.8409999999999 40.121,26.8409999999999 C40.121,26.8409999999999 40.121,45.7240000000002 40.121,45.7240000000002 C40.121,45.7240000000002 42.559,45.7240000000002 42.559,45.7240000000002 C42.559,45.7240000000002 42.559,37.1779999999999 42.559,37.1779999999999 C42.559,37.1779999999999 49.703,37.1779999999999 49.703,37.1779999999999 C49.703,37.1779999999999 49.703,35.1610000000001 49.703,35.1610000000001 C49.703,35.1610000000001 42.559,35.1610000000001 42.559,35.1610000000001 C42.559,35.1610000000001 42.559,28.886 42.559,28.886 C42.559,28.886 50.291,28.886 50.291,28.886 C50.291,28.886 50.291,26.8409999999999 50.291,26.8409999999999 ZM69.584,31.828 C69.584,30.3710000000001 69.051,29.0819999999999 68.099,28.2420000000002 C66.922,27.1779999999999 65.241,26.701 62.636,26.701 C60.955,26.701 59.19,26.8409999999999 57.957,27.0940000000001 C57.957,27.0940000000001 57.957,45.7240000000002 57.957,45.7240000000002 C57.957,45.7240000000002 60.395,45.7240000000002 60.395,45.7240000000002 C60.395,45.7240000000002 60.395,37.5430000000001 60.395,37.5430000000001 C60.395,37.5430000000001 62.692,37.5430000000001 62.692,37.5430000000001 C64.905,37.627 65.914,38.607 66.474,41.2130000000002 C67.006,43.567 67.427,45.192 67.735,45.7240000000002 C67.735,45.7240000000002 70.256,45.7240000000002 70.256,45.7240000000002 C69.864,44.9949999999999 69.416,43.174 68.799,40.5410000000002 C68.351,38.5790000000002 67.483,37.2350000000001 66.026,36.73 C66.026,36.73 66.026,36.6469999999999 66.026,36.6469999999999 C68.015,35.9740000000002 69.584,34.3209999999999 69.584,31.828 ZM87.839,43.6790000000001 C87.839,43.6790000000001 79.659,43.6790000000001 79.659,43.6790000000001 C79.659,43.6790000000001 79.659,36.8699999999999 79.659,36.8699999999999 C79.659,36.8699999999999 86.999,36.8699999999999 86.999,36.8699999999999 C86.999,36.8699999999999 86.999,34.8539999999998 86.999,34.8539999999998 C86.999,34.8539999999998 79.659,34.8539999999998 79.659,34.8539999999998 C79.659,34.8539999999998 79.659,28.886 79.659,28.886 C79.659,28.886 87.419,28.886 87.419,28.886 C87.419,28.886 87.419,26.8409999999999 87.419,26.8409999999999 C87.419,26.8409999999999 77.221,26.8409999999999 77.221,26.8409999999999 C77.221,26.8409999999999 77.221,45.7240000000002 77.221,45.7240000000002 C77.221,45.7240000000002 87.839,45.7240000000002 87.839,45.7240000000002 C87.839,45.7240000000002 87.839,43.6790000000001 87.839,43.6790000000001 ZM105.815,43.6790000000001 C105.815,43.6790000000001 97.634,43.6790000000001 97.634,43.6790000000001 C97.634,43.6790000000001 97.634,36.8699999999999 97.634,36.8699999999999 C97.634,36.8699999999999 104.974,36.8699999999999 104.974,36.8699999999999 C104.974,36.8699999999999 104.974,34.8539999999998 104.974,34.8539999999998 C104.974,34.8539999999998 97.634,34.8539999999998 97.634,34.8539999999998 C97.634,34.8539999999998 97.634,28.886 97.634,28.886 C97.634,28.886 105.395,28.886 105.395,28.886 C105.395,28.886 105.395,26.8409999999999 105.395,26.8409999999999 C105.395,26.8409999999999 95.197,26.8409999999999 95.197,26.8409999999999 C95.197,26.8409999999999 95.197,45.7240000000002 95.197,45.7240000000002 C95.197,45.7240000000002 105.815,45.7240000000002 105.815,45.7240000000002 C105.815,45.7240000000002 105.815,43.6790000000001 105.815,43.6790000000001 ZM137.652,35.4140000000002 C137.652,35.4140000000002 135.411,35.4140000000002 135.411,35.4140000000002 C135.047,37.7950000000001 134.458,39.616 133.59,40.933 C132.385,39.5880000000002 130.592,37.5149999999999 128.996,35.6660000000002 C128.996,35.6660000000002 128.996,35.5819999999999 128.996,35.5819999999999 C131.993,34.0970000000002 133.142,32.5279999999998 133.142,30.5390000000002 C133.142,28.1030000000001 131.321,26.5329999999999 128.968,26.5329999999999 C125.83,26.5329999999999 124.177,28.886 124.177,31.1840000000002 C124.177,32.5279999999998 124.765,33.9009999999998 125.746,35.1329999999998 C125.746,35.1329999999998 125.746,35.2170000000001 125.746,35.2170000000001 C123.589,36.3939999999998 122.048,38.1590000000001 122.048,40.7370000000001 C122.048,43.567 124.177,46.0309999999999 127.847,46.0309999999999 C129.92,46.0309999999999 131.741,45.3870000000002 133.366,43.8739999999998 C134.094,44.6590000000001 134.599,45.192 135.131,45.7240000000002 C135.131,45.7240000000002 138.044,45.7240000000002 138.044,45.7240000000002 C136.924,44.5189999999998 135.943,43.4549999999999 134.935,42.3890000000001 C136.336,40.7370000000001 137.148,38.3829999999998 137.652,35.4140000000002 ZM168.62,26.8409999999999 C168.62,26.8409999999999 166.154,26.8409999999999 166.154,26.8409999999999 C166.154,26.8409999999999 166.154,34.741 166.154,34.741 C166.154,34.741 157.021,34.741 157.021,34.741 C157.021,34.741 157.021,26.8409999999999 157.021,26.8409999999999 C157.021,26.8409999999999 154.584,26.8409999999999 154.584,26.8409999999999 C154.584,26.8409999999999 154.584,45.7240000000002 154.584,45.7240000000002 C154.584,45.7240000000002 157.021,45.7240000000002 157.021,45.7240000000002 C157.021,45.7240000000002 157.021,36.8699999999999 157.021,36.8699999999999 C157.021,36.8699999999999 166.154,36.8699999999999 166.154,36.8699999999999 C166.154,36.8699999999999 166.154,45.7240000000002 166.154,45.7240000000002 C166.154,45.7240000000002 168.62,45.7240000000002 168.62,45.7240000000002 C168.62,45.7240000000002 168.62,26.8409999999999 168.62,26.8409999999999 ZM184.968,26.8409999999999 C184.968,26.8409999999999 182.027,26.8409999999999 182.027,26.8409999999999 C182.027,26.8409999999999 175.611,45.7240000000002 175.611,45.7240000000002 C175.611,45.7240000000002 178.132,45.7240000000002 178.132,45.7240000000002 C178.132,45.7240000000002 180.094,39.7840000000001 180.094,39.7840000000001 C180.094,39.7840000000001 186.789,39.7840000000001 186.789,39.7840000000001 C186.789,39.7840000000001 188.806,45.7240000000002 188.806,45.7240000000002 C188.806,45.7240000000002 191.412,45.7240000000002 191.412,45.7240000000002 C191.412,45.7240000000002 184.968,26.8409999999999 184.968,26.8409999999999 ZM212.552,26.8409999999999 C212.552,26.8409999999999 210.254,26.8409999999999 210.254,26.8409999999999 C210.254,26.8409999999999 210.254,34.741 210.254,34.741 C210.254,37.683 210.31,39.98 210.535,42.5010000000002 C210.535,42.5010000000002 210.478,42.5300000000002 210.478,42.5300000000002 C209.582,40.596 208.489,38.607 207.089,36.3939999999998 C207.089,36.3939999999998 201.037,26.8409999999999 201.037,26.8409999999999 C201.037,26.8409999999999 198.376,26.8409999999999 198.376,26.8409999999999 C198.376,26.8409999999999 198.376,45.7240000000002 198.376,45.7240000000002 C198.376,45.7240000000002 200.673,45.7240000000002 200.673,45.7240000000002 C200.673,45.7240000000002 200.673,37.6550000000002 200.673,37.6550000000002 C200.673,34.5169999999998 200.617,32.248 200.477,29.8670000000002 C200.477,29.8670000000002 200.561,29.8389999999999 200.561,29.8389999999999 C201.513,31.884 202.774,34.0410000000002 204.091,36.1419999999998 C204.091,36.1419999999998 210.086,45.7240000000002 210.086,45.7240000000002 C210.086,45.7240000000002 212.552,45.7240000000002 212.552,45.7240000000002 C212.552,45.7240000000002 212.552,26.8409999999999 212.552,26.8409999999999 ZM233.83,29.0540000000001 C232.178,27.5140000000001 229.684,26.701 226.182,26.701 C224.249,26.701 222.485,26.8690000000001 221,27.0940000000001 C221,27.0940000000001 221,45.6669999999999 221,45.6669999999999 C222.232,45.808 223.689,45.8910000000001 225.426,45.8910000000001 C229.096,45.8910000000001 232.01,44.9389999999999 233.774,43.174 C235.539,41.4369999999999 236.492,38.9160000000002 236.492,35.8339999999998 C236.492,32.7800000000002 235.511,30.5949999999998 233.83,29.0540000000001 ZM249.506,35.0219999999999 C246.901,34.0129999999999 245.752,33.145 245.752,31.3789999999999 C245.752,30.0909999999999 246.733,28.5500000000002 249.31,28.5500000000002 C251.019,28.5500000000002 252.28,29.1109999999999 252.896,29.4470000000001 C252.896,29.4470000000001 253.569,27.4580000000001 253.569,27.4580000000001 C252.728,26.9810000000002 251.327,26.5329999999999 249.394,26.5329999999999 C245.724,26.5329999999999 243.287,28.7179999999998 243.287,31.6599999999999 C243.287,34.3209999999999 245.192,35.9180000000001 248.274,37.0100000000002 C250.823,37.991 251.832,38.9989999999998 251.832,40.7640000000001 C251.832,42.6700000000001 250.375,43.9870000000001 247.881,43.9870000000001 C246.2,43.9870000000001 244.604,43.4259999999999 243.511,42.7539999999999 C243.511,42.7539999999999 242.895,44.799 242.895,44.799 C243.903,45.471 245.892,46.0039999999999 247.713,46.0039999999999 C252.168,46.0039999999999 254.325,43.482 254.325,40.5680000000002 C254.325,37.7950000000001 252.7,36.2539999999999 249.506,35.0219999999999 ZM269.499,26.5329999999999 C264.456,26.5329999999999 260.73,30.4549999999999 260.73,36.451 C260.73,42.1660000000002 264.232,46.0309999999999 269.219,46.0309999999999 C274.038,46.0309999999999 277.988,42.5859999999998 277.988,36.0859999999998 C277.988,30.4830000000002 274.654,26.5329999999999 269.499,26.5329999999999 ZM302.936,26.8409999999999 C302.936,26.8409999999999 299.827,26.8409999999999 299.827,26.8409999999999 C299.827,26.8409999999999 296.465,35.9740000000002 296.465,35.9740000000002 C295.624,38.355 294.952,40.4279999999999 294.476,42.3330000000001 C294.476,42.3330000000001 294.392,42.3330000000001 294.392,42.3330000000001 C293.916,40.3719999999998 293.271,38.299 292.487,35.9740000000002 C292.487,35.9740000000002 289.265,26.8409999999999 289.265,26.8409999999999 C289.265,26.8409999999999 286.155,26.8409999999999 286.155,26.8409999999999 C286.155,26.8409999999999 284.839,45.7240000000002 284.839,45.7240000000002 C284.839,45.7240000000002 287.164,45.7240000000002 287.164,45.7240000000002 C287.164,45.7240000000002 287.668,37.627 287.668,37.627 C287.836,34.7979999999998 287.976,31.6320000000001 288.032,29.279 C288.032,29.279 288.088,29.279 288.088,29.279 C288.621,31.52 289.377,33.9569999999999 290.274,36.6179999999999 C290.274,36.6179999999999 293.327,45.6109999999999 293.327,45.6109999999999 C293.327,45.6109999999999 295.176,45.6109999999999 295.176,45.6109999999999 C295.176,45.6109999999999 298.51,36.451 298.51,36.451 C299.463,33.8449999999998 300.247,31.491 300.891,29.279 C300.891,29.279 300.975,29.279 300.975,29.279 C300.947,31.6320000000001 301.115,34.7979999999998 301.255,37.431 C301.255,37.431 301.732,45.7240000000002 301.732,45.7240000000002 C301.732,45.7240000000002 304.113,45.7240000000002 304.113,45.7240000000002 C304.113,45.7240000000002 302.936,26.8409999999999 302.936,26.8409999999999 ZM322.672,43.6790000000001 C322.672,43.6790000000001 314.492,43.6790000000001 314.492,43.6790000000001 C314.492,43.6790000000001 314.492,36.8699999999999 314.492,36.8699999999999 C314.492,36.8699999999999 321.832,36.8699999999999 321.832,36.8699999999999 C321.832,36.8699999999999 321.832,34.8539999999998 321.832,34.8539999999998 C321.832,34.8539999999998 314.492,34.8539999999998 314.492,34.8539999999998 C314.492,34.8539999999998 314.492,28.886 314.492,28.886 C314.492,28.886 322.252,28.886 322.252,28.886 C322.252,28.886 322.252,26.8409999999999 322.252,26.8409999999999 C322.252,26.8409999999999 312.055,26.8409999999999 312.055,26.8409999999999 C312.055,26.8409999999999 312.055,45.7240000000002 312.055,45.7240000000002 C312.055,45.7240000000002 322.672,45.7240000000002 322.672,45.7240000000002 C322.672,45.7240000000002 322.672,43.6790000000001 322.672,43.6790000000001 ZM354.49,67.473 C354.49,67.473 7.511,67.473 7.511,67.473 C7.511,67.473 7.511,188.528 7.511,188.528 C7.511,188.528 354.49,188.528 354.49,188.528 C354.49,188.528 354.49,67.473 354.49,67.473 ZM49.465,88.3969999999999 C49.465,88.3969999999999 83.59,88.3969999999999 83.59,88.3969999999999 C86.858,88.3969999999999 89.499,91.029 89.499,94.2750000000001 C89.499,94.2750000000001 89.499,163.222 89.499,163.222 C89.499,166.468 86.858,169.101 83.59,169.101 C83.59,169.101 49.465,169.101 49.465,169.101 C46.202,169.101 43.559,166.468 43.559,163.222 C43.559,163.222 43.559,94.2750000000001 43.559,94.2750000000001 C43.559,91.029 46.202,88.3969999999999 49.465,88.3969999999999 ZM70.389,93.4029999999998 C70.389,93.4029999999998 62.67,93.4029999999998 62.67,93.4029999999998 C62.67,93.4029999999998 62.67,95.9540000000002 62.67,95.9540000000002 C62.67,95.9540000000002 70.389,95.9540000000002 70.389,95.9540000000002 C70.389,95.9540000000002 70.389,93.4029999999998 70.389,93.4029999999998 ZM66.533,166.015 C68.611,166.015 70.296,164.339 70.296,162.268 C70.296,160.201 68.611,158.522 66.533,158.522 C64.452,158.522 62.762,160.201 62.762,162.268 C62.762,164.339 64.452,166.015 66.533,166.015 ZM47.985,156.158 C47.985,156.158 85.075,156.158 85.075,156.158 C85.075,156.158 85.075,101.34 85.075,101.34 C85.075,101.34 47.985,101.34 47.985,101.34 C47.985,101.34 47.985,156.158 47.985,156.158 ZM133.414,125.431 C133.414,125.431 143.282,155.649 143.282,155.649 C143.282,155.649 137.334,155.649 137.334,155.649 C137.334,155.649 134.585,147.086 134.585,147.086 C134.585,147.086 124.942,147.086 124.942,147.086 C124.942,147.086 122.329,155.649 122.329,155.649 C122.329,155.649 116.606,155.649 116.606,155.649 C116.606,155.649 126.339,125.431 126.339,125.431 C126.339,125.431 133.414,125.431 133.414,125.431 ZM133.639,142.916 C133.639,142.916 131.251,135.474 131.251,135.474 C130.665,133.636 130.169,131.573 129.719,129.825 C129.719,129.825 129.629,129.825 129.629,129.825 C129.178,131.573 128.727,133.681 128.187,135.474 C128.187,135.474 125.844,142.916 125.844,142.916 C125.844,142.916 133.639,142.916 133.639,142.916 ZM136.631,110.226 C136.631,110.226 134.948,115.298 134.948,115.298 C134.948,115.298 132.784,115.298 132.784,115.298 C132.784,115.298 138.29,99.174 138.29,99.174 C138.29,99.174 140.814,99.174 140.814,99.174 C140.814,99.174 146.344,115.298 146.344,115.298 C146.344,115.298 144.108,115.298 144.108,115.298 C144.108,115.298 142.377,110.226 142.377,110.226 C142.377,110.226 136.631,110.226 136.631,110.226 ZM140.357,103.958 C139.997,102.906 139.756,101.95 139.516,101.016 C139.516,101.016 139.468,101.016 139.468,101.016 C139.227,101.973 138.963,102.954 138.65,103.934 C138.65,103.934 137.063,108.599 137.063,108.599 C137.063,108.599 141.944,108.599 141.944,108.599 C141.944,108.599 140.357,103.958 140.357,103.958 ZM151.243,110.226 C151.628,111.279 151.94,112.235 152.181,113.192 C152.181,113.192 152.253,113.192 152.253,113.192 C152.517,112.235 152.854,111.279 153.239,110.226 C153.239,110.226 155.499,103.72 155.499,103.72 C155.499,103.72 157.711,103.72 157.711,103.72 C157.711,103.72 153.142,115.298 153.142,115.298 C153.142,115.298 151.123,115.298 151.123,115.298 C151.123,115.298 146.699,103.72 146.699,103.72 C146.699,103.72 148.959,103.72 148.959,103.72 C148.959,103.72 151.243,110.226 151.243,110.226 ZM152.025,137.178 C152.025,137.178 152.115,137.178 152.115,137.178 C153.737,134.713 156.306,133.322 159.64,133.322 C164.687,133.322 168.877,137.627 168.877,144.44 C168.877,152.331 163.875,156.142 158.874,156.142 C156.125,156.142 153.827,154.976 152.701,153.228 C152.701,153.228 152.61,153.228 152.61,153.228 C152.61,153.228 152.61,164.526 152.61,164.526 C152.61,164.526 147.068,164.526 147.068,164.526 C147.068,164.526 147.068,141.079 147.068,141.079 C147.068,138.209 146.978,135.877 146.888,133.815 C146.888,133.815 151.754,133.815 151.754,133.815 C151.754,133.815 152.025,137.178 152.025,137.178 ZM152.61,146.503 C152.61,147.041 152.655,147.534 152.791,148.027 C153.331,150.269 155.314,151.883 157.657,151.883 C161.172,151.883 163.245,148.969 163.245,144.665 C163.245,140.81 161.352,137.67 157.792,137.67 C155.494,137.67 153.376,139.329 152.836,141.75 C152.701,142.199 152.61,142.692 152.61,143.141 C152.61,143.141 152.61,146.503 152.61,146.503 ZM172.247,99.1500000000001 C173.04,99.1500000000001 173.545,99.7240000000002 173.545,100.467 C173.569,101.184 173.04,101.758 172.199,101.758 C171.453,101.758 170.925,101.184 170.925,100.467 C170.925,99.7240000000002 171.478,99.1500000000001 172.247,99.1500000000001 ZM173.305,115.298 C173.305,115.298 171.189,115.298 171.189,115.298 C171.189,115.298 171.189,103.72 171.189,103.72 C171.189,103.72 173.305,103.72 173.305,103.72 C173.305,103.72 173.305,115.298 173.305,115.298 ZM178.386,137.178 C178.386,137.178 178.476,137.178 178.476,137.178 C180.098,134.713 182.666,133.322 186.001,133.322 C191.048,133.322 195.238,137.627 195.238,144.44 C195.238,152.331 190.237,156.142 185.235,156.142 C182.486,156.142 180.188,154.976 179.061,153.228 C179.061,153.228 178.971,153.228 178.971,153.228 C178.971,153.228 178.971,164.526 178.971,164.526 C178.971,164.526 173.429,164.526 173.429,164.526 C173.429,164.526 173.429,141.079 173.429,141.079 C173.429,138.209 173.339,135.877 173.249,133.815 C173.249,133.815 178.115,133.815 178.115,133.815 C178.115,133.815 178.386,137.178 178.386,137.178 ZM178.971,146.503 C178.971,147.041 179.017,147.534 179.152,148.027 C179.692,150.269 181.675,151.883 184.018,151.883 C187.533,151.883 189.606,148.969 189.606,144.665 C189.606,140.81 187.713,137.67 184.153,137.67 C181.855,137.67 179.737,139.329 179.197,141.75 C179.061,142.199 178.971,142.692 178.971,143.141 C178.971,143.141 178.971,146.503 178.971,146.503 ZM194.068,112.307 C194.068,112.307 194.068,98.3130000000001 194.068,98.3130000000001 C194.068,98.3130000000001 196.16,98.3130000000001 196.16,98.3130000000001 C196.16,98.3130000000001 196.16,105.585 196.16,105.585 C196.16,105.585 196.208,105.585 196.208,105.585 C196.953,104.293 198.3,103.456 200.175,103.456 C203.06,103.456 205.104,105.848 205.08,109.365 C205.08,113.503 202.459,115.56 199.862,115.56 C198.179,115.56 196.833,114.914 195.967,113.384 C195.967,113.384 195.895,113.384 195.895,113.384 C195.895,113.384 195.799,115.298 195.799,115.298 C195.799,115.298 193.972,115.298 193.972,115.298 C194.02,114.508 194.068,113.336 194.068,112.307 ZM196.16,110.657 C196.16,110.92 196.208,111.183 196.256,111.422 C196.665,112.881 197.891,113.886 199.43,113.886 C201.642,113.886 202.964,112.092 202.964,109.437 C202.964,107.116 201.762,105.131 199.502,105.131 C198.059,105.131 196.713,106.111 196.28,107.714 C196.232,107.953 196.16,108.24 196.16,108.576 C196.16,108.576 196.16,110.657 196.16,110.657 ZM209.859,115.298 C209.859,115.298 207.743,115.298 207.743,115.298 C207.743,115.298 207.743,98.3130000000001 207.743,98.3130000000001 C207.743,98.3130000000001 209.859,98.3130000000001 209.859,98.3130000000001 C209.859,98.3130000000001 209.859,115.298 209.859,115.298 ZM216.552,151.569 C220.112,151.569 222.095,149.91 222.095,147.445 C222.095,145.158 220.563,143.813 216.687,142.424 C211.686,140.63 208.486,137.985 208.486,133.636 C208.486,128.705 212.632,124.938 219.211,124.938 C222.5,124.938 224.934,125.656 226.511,126.462 C226.511,126.462 225.159,130.901 225.159,130.901 C224.077,130.318 221.959,129.466 219.121,129.466 C215.606,129.466 214.074,131.349 214.074,133.098 C214.074,135.429 215.831,136.505 219.887,138.074 C225.159,140.048 227.727,142.692 227.727,147.041 C227.727,151.883 224.032,156.098 216.192,156.098 C212.992,156.098 209.658,155.201 207.991,154.214 C207.991,154.214 209.207,149.641 209.207,149.641 C211.01,150.672 213.714,151.569 216.552,151.569 ZM235.478,103.456 C238.82,103.456 241.08,105.873 241.08,109.413 C241.08,113.695 238.099,115.56 235.286,115.56 C232.136,115.56 229.708,113.264 229.708,109.604 C229.708,105.729 232.257,103.456 235.478,103.456 ZM235.382,113.982 C237.402,113.982 238.916,112.092 238.916,109.485 C238.916,107.523 237.931,105.035 235.43,105.035 C232.93,105.035 231.848,107.331 231.848,109.532 C231.848,112.068 233.314,113.982 235.382,113.982 ZM233.271,128.884 C233.271,128.884 238.678,127.584 238.678,127.584 C238.678,127.584 238.678,133.815 238.678,133.815 C238.678,133.815 243.95,133.815 243.95,133.815 C243.95,133.815 243.95,137.939 243.95,137.939 C243.95,137.939 238.678,137.939 238.678,137.939 C238.678,137.939 238.678,147.579 238.678,147.579 C238.678,150.225 239.399,151.614 241.517,151.614 C242.463,151.614 243.184,151.48 243.68,151.345 C243.68,151.345 243.77,155.559 243.77,155.559 C242.959,155.874 241.517,156.098 239.759,156.098 C237.732,156.098 236.019,155.425 234.983,154.304 C233.811,153.049 233.271,151.076 233.271,148.207 C233.271,148.207 233.271,137.939 233.271,137.939 C233.271,137.939 230.116,137.939 230.116,137.939 C230.116,137.939 230.116,133.815 230.116,133.815 C230.116,133.815 233.271,133.815 233.271,133.815 C233.271,133.815 233.271,128.884 233.271,128.884 ZM243.744,115.298 C243.744,115.298 243.744,106.853 243.744,106.853 C243.744,105.657 243.72,104.676 243.647,103.72 C243.647,103.72 245.523,103.72 245.523,103.72 C245.523,103.72 245.643,105.633 245.643,105.633 C245.643,105.633 245.691,105.633 245.691,105.633 C246.268,104.532 247.615,103.456 249.538,103.456 C251.149,103.456 253.65,104.413 253.65,108.384 C253.65,108.384 253.65,115.298 253.65,115.298 C253.65,115.298 251.534,115.298 251.534,115.298 C251.534,115.298 251.534,108.623 251.534,108.623 C251.534,106.757 250.836,105.202 248.841,105.202 C247.446,105.202 246.364,106.183 246.004,107.356 C245.907,107.619 245.859,107.978 245.859,108.336 C245.859,108.336 245.859,115.298 245.859,115.298 C245.859,115.298 243.744,115.298 243.744,115.298 ZM257.829,133.322 C264.363,133.322 268.734,137.895 268.734,144.53 C268.734,152.555 263.056,156.142 257.469,156.142 C251.25,156.142 246.474,151.883 246.474,144.889 C246.474,137.716 251.205,133.322 257.829,133.322 ZM257.649,152.152 C260.803,152.152 263.011,149.058 263.011,144.665 C263.011,141.257 261.479,137.357 257.694,137.357 C253.774,137.357 252.197,141.123 252.197,144.755 C252.197,148.969 254.269,152.152 257.649,152.152 ZM272.247,105.537 C272.247,105.537 272.296,105.537 272.296,105.537 C272.632,104.939 273.161,104.413 273.81,104.055 C274.435,103.696 275.181,103.456 275.974,103.456 C277.537,103.456 280.037,104.413 280.037,108.408 C280.037,108.408 280.037,115.298 280.037,115.298 C280.037,115.298 277.922,115.298 277.922,115.298 C277.922,115.298 277.922,108.647 277.922,108.647 C277.922,106.782 277.224,105.202 275.229,105.202 C273.858,105.202 272.776,106.159 272.392,107.308 C272.271,107.594 272.247,107.906 272.247,108.312 C272.247,108.312 272.247,115.298 272.247,115.298 C272.247,115.298 270.132,115.298 270.132,115.298 C270.132,115.298 270.132,98.3130000000001 270.132,98.3130000000001 C270.132,98.3130000000001 272.247,98.3130000000001 272.247,98.3130000000001 C272.247,98.3130000000001 272.247,105.537 272.247,105.537 ZM278.107,137.985 C278.107,137.985 278.287,137.985 278.287,137.985 C279.369,134.892 281.937,133.322 284.28,133.322 C284.821,133.322 285.137,133.367 285.587,133.457 C285.587,133.457 285.587,138.657 285.587,138.657 C285.137,138.567 284.641,138.478 283.965,138.478 C281.307,138.478 279.504,140.181 279.008,142.647 C278.918,143.141 278.828,143.723 278.828,144.351 C278.828,144.351 278.828,155.649 278.828,155.649 C278.828,155.649 273.286,155.649 273.286,155.649 C273.286,155.649 273.286,140.854 273.286,140.854 C273.286,137.895 273.241,135.788 273.105,133.815 C273.105,133.815 277.927,133.815 277.927,133.815 C277.927,133.815 278.107,137.985 278.107,137.985 ZM298.25,133.322 C305.369,133.322 307.713,139.15 307.713,143.948 C307.713,144.979 307.622,145.786 307.532,146.279 C307.532,146.279 292.843,146.279 292.843,146.279 C292.978,150.225 296.087,151.928 299.602,151.928 C302.17,151.928 304.018,151.569 305.685,150.942 C305.685,150.942 306.496,154.752 306.496,154.752 C304.603,155.515 301.99,156.098 298.836,156.098 C291.716,156.098 287.525,151.748 287.525,145.069 C287.525,139.016 291.22,133.322 298.25,133.322 ZM302.486,142.424 C302.531,140.405 301.629,137.088 297.935,137.088 C294.51,137.088 293.068,140.181 292.843,142.424 C292.843,142.424 302.486,142.424 302.486,142.424 ZM292.823,109.891 C292.823,109.891 284.648,109.891 284.648,109.891 C284.696,112.738 286.523,113.91 288.639,113.91 C290.154,113.91 291.067,113.646 291.861,113.312 C291.861,113.312 292.221,114.819 292.221,114.819 C291.476,115.154 290.202,115.537 288.351,115.537 C284.768,115.537 282.628,113.192 282.628,109.699 C282.628,106.207 284.696,103.456 288.086,103.456 C291.885,103.456 292.895,106.782 292.895,108.911 C292.895,109.341 292.846,109.676 292.823,109.891 ZM287.918,104.963 C285.778,104.963 284.84,106.925 284.672,108.384 C284.672,108.384 290.851,108.384 290.851,108.384 C290.875,107.044 290.298,104.963 287.918,104.963 ZM264.725,111.566 C264.725,113.001 265.134,113.814 266.312,113.814 C266.865,113.814 267.274,113.743 267.538,113.671 C267.538,113.671 267.635,115.249 267.635,115.249 C267.226,115.417 266.577,115.537 265.759,115.537 C264.773,115.537 263.98,115.226 263.475,114.652 C262.874,114.03 262.658,113.001 262.658,111.637 C262.658,111.637 262.658,105.323 262.658,105.323 C262.658,105.323 260.854,105.323 260.854,105.323 C260.854,105.323 260.854,103.72 260.854,103.72 C260.854,103.72 262.658,103.72 262.658,103.72 C262.658,103.72 262.658,100.944 262.658,100.944 C262.658,100.944 264.725,100.394 264.725,100.394 C264.725,100.394 264.725,103.72 264.725,103.72 C264.725,103.72 267.755,103.72 267.755,103.72 C267.755,103.72 267.755,105.323 267.755,105.323 C267.755,105.323 264.725,105.323 264.725,105.323 C264.725,105.323 264.725,111.566 264.725,111.566 ZM222.767,109.891 C222.767,109.891 214.593,109.891 214.593,109.891 C214.641,112.738 216.468,113.91 218.584,113.91 C220.098,113.91 221.012,113.646 221.805,113.312 C221.805,113.312 222.166,114.819 222.166,114.819 C221.421,115.154 220.146,115.537 218.295,115.537 C214.713,115.537 212.573,113.192 212.573,109.699 C212.573,106.207 214.641,103.456 218.031,103.456 C221.829,103.456 222.839,106.782 222.839,108.911 C222.839,109.341 222.791,109.676 222.767,109.891 ZM217.862,104.963 C215.723,104.963 214.785,106.925 214.616,108.384 C214.616,108.384 220.795,108.384 220.795,108.384 C220.82,107.044 220.243,104.963 217.862,104.963 ZM188.759,113.838 C188.759,113.838 188.687,113.838 188.687,113.838 C188.038,114.748 186.788,115.56 185.129,115.56 C182.773,115.56 181.571,113.91 181.571,112.235 C181.571,109.437 184.071,107.906 188.567,107.929 C188.567,107.929 188.567,107.691 188.567,107.691 C188.567,106.734 188.303,105.011 185.922,105.011 C184.84,105.011 183.71,105.346 182.893,105.873 C182.893,105.873 182.412,104.485 182.412,104.485 C183.374,103.863 184.768,103.456 186.235,103.456 C189.793,103.456 190.659,105.873 190.659,108.193 C190.659,108.193 190.659,112.522 190.659,112.522 C190.659,113.528 190.707,114.508 190.851,115.298 C190.851,115.298 188.928,115.298 188.928,115.298 C188.928,115.298 188.759,113.838 188.759,113.838 ZM188.615,109.388 C186.307,109.341 183.687,109.748 183.687,111.996 C183.687,113.36 184.6,114.006 185.682,114.006 C187.197,114.006 188.158,113.049 188.495,112.068 C188.567,111.853 188.615,111.614 188.615,111.398 C188.615,111.398 188.615,109.388 188.615,109.388 ZM176.813,98.3130000000001 C176.813,98.3130000000001 178.928,98.3130000000001 178.928,98.3130000000001 C178.928,98.3130000000001 178.928,115.298 178.928,115.298 C178.928,115.298 176.813,115.298 176.813,115.298 C176.813,115.298 176.813,98.3130000000001 176.813,98.3130000000001 ZM165.88,113.838 C165.88,113.838 165.808,113.838 165.808,113.838 C165.159,114.748 163.909,115.56 162.25,115.56 C159.894,115.56 158.691,113.91 158.691,112.235 C158.691,109.437 161.192,107.906 165.688,107.929 C165.688,107.929 165.688,107.691 165.688,107.691 C165.688,106.734 165.423,105.011 163.043,105.011 C161.961,105.011 160.831,105.346 160.014,105.873 C160.014,105.873 159.533,104.485 159.533,104.485 C160.495,103.863 161.889,103.456 163.356,103.456 C166.914,103.456 167.78,105.873 167.78,108.193 C167.78,108.193 167.78,112.522 167.78,112.522 C167.78,113.528 167.828,114.508 167.972,115.298 C167.972,115.298 166.049,115.298 166.049,115.298 C166.049,115.298 165.88,113.838 165.88,113.838 ZM165.736,109.388 C163.428,109.341 160.807,109.748 160.807,111.996 C160.807,113.36 161.721,114.006 162.803,114.006 C164.318,114.006 165.279,113.049 165.616,112.068 C165.688,111.853 165.736,111.614 165.736,111.398 C165.736,111.398 165.736,109.388 165.736,109.388 ZM269.359,44.0419999999999 C265.521,44.0419999999999 263.336,40.4279999999999 263.336,36.3939999999998 C263.336,32.248 265.353,28.5230000000001 269.387,28.5230000000001 C273.449,28.5230000000001 275.41,32.444 275.41,36.1979999999999 C275.41,40.4839999999999 273.225,44.0419999999999 269.359,44.0419999999999 ZM225.902,43.931 C224.95,43.931 224.053,43.9029999999998 223.437,43.7910000000002 C223.437,43.7910000000002 223.437,28.886 223.437,28.886 C224.081,28.7460000000001 225.034,28.634 226.294,28.634 C231.449,28.634 233.971,31.4639999999999 233.943,35.9180000000001 C233.943,41.0160000000001 231.113,43.931 225.902,43.931 ZM182.447,32.4160000000002 C182.811,31.268 183.119,30.1190000000001 183.399,28.9989999999998 C183.399,28.9989999999998 183.455,28.9989999999998 183.455,28.9989999999998 C183.735,30.0909999999999 184.016,31.2109999999998 184.436,32.444 C184.436,32.444 186.285,37.8789999999999 186.285,37.8789999999999 C186.285,37.8789999999999 180.598,37.8789999999999 180.598,37.8789999999999 C180.598,37.8789999999999 182.447,32.4160000000002 182.447,32.4160000000002 ZM124.401,40.3719999999998 C124.401,38.3829999999998 125.83,37.1779999999999 126.838,36.5340000000001 C128.94,38.944 131.041,41.2399999999998 132.161,42.4740000000002 C131.265,43.4549999999999 129.892,44.183 128.267,44.183 C125.998,44.183 124.401,42.5300000000002 124.401,40.3719999999998 ZM126.418,30.9589999999998 C126.418,29.502 127.231,28.2139999999999 128.799,28.2139999999999 C130.34,28.2139999999999 130.985,29.502 130.985,30.6509999999998 C130.985,32.248 129.752,33.2570000000001 127.847,34.3490000000002 C127.035,33.3400000000001 126.418,32.3040000000001 126.418,30.9589999999998 ZM60.395,35.694 C60.395,35.694 60.395,28.8020000000001 60.395,28.8020000000001 C60.787,28.6900000000001 61.628,28.578 62.804,28.578 C65.382,28.6060000000002 67.146,29.6709999999998 67.146,32.1080000000002 C67.146,34.2660000000001 65.494,35.694 62.888,35.694 C62.888,35.694 60.395,35.694 60.395,35.694 Z "/></svg>