<?xml version="1.0" encoding="utf-8"?><!DOCTYPE svg PUBLIC "-//W3C//DTD SVG 1.1//EN" "http://www.w3.org/Graphics/SVG/1.1/DTD/svg11.dtd"><svg version="1.1" baseProfile="full" xmlns="http://www.w3.org/2000/svg" xmlns:xlink="http://www.w3.org/1999/xlink" xmlns:ev="http://www.w3.org/2001/xml-events"   height="22px"   width="29px" ><defs><filter filterUnits="userSpaceOnUse" id="Filter_0" x="63px" y="2346px" width="32px" height="25px"  >  <feOffset in="SourceAlpha" dx="0px" dy="1px" />  <feGaussianBlur result="blurOut" stdDeviation="0" />  <feFlood flood-color="rgb( 255, 255, 255 )" result="floodOut" />  <feComposite operator="atop" in="floodOut" in2="blurOut" />  <feComponentTransfer><feFuncA type="linear" slope="0.22"/></feComponentTransfer>  <feMerge>    <feMergeNode/>    <feMergeNode in="SourceGraphic"/>  </feMerge></filter><filter id="Filter_1">  <feOffset in="SourceAlpha" dx="0px" dy="0px" />  <feGaussianBlur result="blurOut" stdDeviation="1.414" />  <feFlood flood-color="rgb( 74, 74, 74 )" result="floodOut" />  <feComposite operator="out" in="floodOut" in2="blurOut" result="compOut" />  <feComposite operator="in" in="compOut" in2="SourceAlpha" />  <feComponentTransfer><feFuncA type="linear" slope="0.17"/></feComponentTransfer>  <feBlend mode="normal" in2="SourceGraphic" /></filter><linearGradient id="PSgrad_0" x1="0%" x2="0%" y1="100%" y2="0%">  <stop offset="0%" stop-color="rgb(241,19,82)" stop-opacity="1" />  <stop offset="100%" stop-color="rgb(255,140,170)" stop-opacity="1" /></linearGradient></defs><g filter="url(#Filter_0)"><g filter="url(#Filter_1)"><path fill-opacity="0.702" fill="rgb( 252, 85, 111 )" d="M11.317,14.8969999999999 C11.317,14.8969999999999 25.457,0 25.457,0 C25.457,0 28.994,3.54799999999977 28.994,3.54799999999977 C28.994,3.54799999999977 11.317,21.9940000000001 11.317,21.9940000000001 C11.317,21.9940000000001 0.006,9.93600000000015 0.006,9.93600000000015 C0.006,9.93600000000015 3.54300000000001,6.38700000000017 3.54300000000001,6.38700000000017 C3.54300000000001,6.38700000000017 11.317,14.8969999999999 11.317,14.8969999999999 Z "/></g></g><path fill="url(#PSgrad_0)" d="M11.317,14.8969999999999 C11.317,14.8969999999999 25.457,0 25.457,0 C25.457,0 28.994,3.54799999999977 28.994,3.54799999999977 C28.994,3.54799999999977 11.317,21.9940000000001 11.317,21.9940000000001 C11.317,21.9940000000001 0.006,9.93600000000015 0.006,9.93600000000015 C0.006,9.93600000000015 3.54300000000001,6.38700000000017 3.54300000000001,6.38700000000017 C3.54300000000001,6.38700000000017 11.317,14.8969999999999 11.317,14.8969999999999 Z "/></svg>