<?xml version="1.0" encoding="utf-8"?><!DOCTYPE svg PUBLIC "-//W3C//DTD SVG 1.1//EN" "http://www.w3.org/Graphics/SVG/1.1/DTD/svg11.dtd"><svg version="1.1" baseProfile="full" xmlns="http://www.w3.org/2000/svg" xmlns:xlink="http://www.w3.org/1999/xlink" xmlns:ev="http://www.w3.org/2001/xml-events"   height="46px"   width="47px" ><defs><filter filterUnits="userSpaceOnUse" id="Filter_0" x="289px" y="1688px" width="50px" height="49px"  >  <feOffset in="SourceAlpha" dx="0px" dy="1px" />  <feGaussianBlur result="blurOut" stdDeviation="0" />  <feFlood flood-color="rgb( 255, 255, 255 )" result="floodOut" />  <feComposite operator="atop" in="floodOut" in2="blurOut" />  <feComponentTransfer><feFuncA type="linear" slope="0.22"/></feComponentTransfer>  <feMerge>    <feMergeNode/>    <feMergeNode in="SourceGraphic"/>  </feMerge></filter><filter id="Filter_1">  <feOffset in="SourceAlpha" dx="0px" dy="0px" />  <feGaussianBlur result="blurOut" stdDeviation="1.414" />  <feFlood flood-color="rgb( 74, 74, 74 )" result="floodOut" />  <feComposite operator="out" in="floodOut" in2="blurOut" result="compOut" />  <feComposite operator="in" in="compOut" in2="SourceAlpha" />  <feComponentTransfer><feFuncA type="linear" slope="0.17"/></feComponentTransfer>  <feBlend mode="normal" in2="SourceGraphic" /></filter><linearGradient id="PSgrad_0" x1="0%" x2="0%" y1="100%" y2="0%">  <stop offset="0%" stop-color="rgb(241,19,82)" stop-opacity="1" />  <stop offset="100%" stop-color="rgb(255,140,170)" stop-opacity="1" /></linearGradient></defs><g filter="url(#Filter_0)"><g filter="url(#Filter_1)"><path fill-opacity="0.702" fill="rgb( 190, 49, 62 )" d="M43.388,37.4780000000001 C43.388,37.4780000000001 36.672,30.905 36.672,30.905 C36.672,30.905 36.672,28.5440000000001 36.672,28.5440000000001 C35.94,28.6420000000001 35.207,28.71 34.485,28.7629999999999 C34.485,28.7629999999999 32.129,26.4570000000001 32.129,26.4570000000001 C38.452,26.4200000000001 42.316,24.7940000000001 42.676,24.0530000000001 C42.312,23.3030000000001 38.367,21.644 31.912,21.644 C30.29,21.644 28.81,21.7529999999999 27.499,21.925 C27.499,21.925 24.387,18.8789999999999 24.387,18.8789999999999 C24.499,18.8630000000001 24.619,18.8489999999999 24.729,18.8320000000001 C24.729,18.8320000000001 24.729,15.854 24.729,15.854 C23.672,15.9960000000001 22.612,16.0909999999999 21.601,16.152 C21.601,16.152 19.215,13.817 19.215,13.817 C19.259,13.817 19.3,13.819 19.344,13.819 C21.349,13.819 23.163,13.6579999999999 24.729,13.414 C24.729,13.414 24.729,10.4359999999999 24.729,10.4359999999999 C22.84,10.6890000000001 20.917,10.809 19.344,10.809 C18.22,10.809 17.085,10.75 15.974,10.645 C15.974,10.645 13.023,7.75600000000009 13.023,7.75600000000009 C14.652,8.12699999999995 16.768,8.40000000000009 19.344,8.40000000000009 C25.8,8.40000000000009 30.339,6.74299999999994 30.701,5.99299999999994 C30.339,5.24299999999994 25.8,3.58500000000004 19.344,3.58500000000004 C14.948,3.58500000000004 11.868,4.37599999999998 10.318,5.10799999999995 C10.318,5.10799999999995 8.54000000000002,3.36799999999994 8.54000000000002,3.36799999999994 C10.887,1.87599999999998 15.221,1.17699999999991 19.344,1.17699999999991 C24.599,1.17699999999991 32.988,2.44200000000001 33.102,5.91699999999992 C33.102,5.91699999999992 33.11,5.91699999999992 33.11,5.91699999999992 C33.11,5.91699999999992 33.11,19.26 33.11,19.26 C38.272,19.4369999999999 44.963,20.758 45.071,23.9780000000001 C45.071,23.9780000000001 45.085,23.9780000000001 45.085,23.9780000000001 C45.085,23.9780000000001 45.085,34.9639999999999 45.085,34.9639999999999 C45.085,35.9690000000001 44.447,36.8030000000001 43.388,37.4780000000001 ZM43.846,45.9090000000001 C43.846,45.9090000000001 0.851,3.60899999999992 0.851,3.60899999999992 C0.851,3.60899999999992 3.61200000000002,0.8309999999999 3.61200000000002,0.8309999999999 C3.61200000000002,0.8309999999999 46.607,43.1320000000001 46.607,43.1320000000001 C46.607,43.1320000000001 43.846,45.9090000000001 43.846,45.9090000000001 ZM9.16899999999998,16.828 C9.245,17.249 10.53,18.0029999999999 12.867,18.556 C12.867,18.556 15.841,21.4670000000001 15.841,21.4670000000001 C13.268,21.211 10.856,20.673 9.16899999999998,19.8130000000001 C9.16899999999998,19.8130000000001 9.16899999999998,22.2460000000001 9.16899999999998,22.2460000000001 C9.29599999999999,22.941 12.698,24.5429999999999 18.745,24.645 C18.745,24.645 18.745,24.309 18.745,24.309 C18.745,24.309 21.842,27.3399999999999 21.842,27.3399999999999 C21.599,27.242 21.352,27.145 21.14,27.037 C21.14,27.037 21.14,29.471 21.14,29.471 C21.222,29.9300000000001 22.989,30.788 25.933,31.346 C25.933,31.346 28.808,34.1600000000001 28.808,34.1600000000001 C25.876,33.9280000000001 22.936,33.3710000000001 21.14,32.4549999999999 C21.14,32.4549999999999 21.14,34.9639999999999 21.14,34.9639999999999 C21.329,35.5820000000001 25.365,37.26 32.01,37.2940000000001 C32.01,37.2940000000001 34.408,39.6410000000001 34.408,39.6410000000001 C33.678,39.682 32.943,39.7049999999999 32.214,39.7049999999999 C26.015,39.7049999999999 18.745,38.221 18.745,34.9639999999999 C18.745,34.9639999999999 18.745,32.4670000000001 18.745,32.4670000000001 C12.817,32.3299999999999 6.77499999999998,30.8409999999999 6.77499999999998,27.74 C6.77499999999998,27.74 6.77499999999998,12.5920000000001 6.77499999999998,12.5920000000001 C6.77499999999998,12.5920000000001 9.16899999999998,14.9359999999999 9.16899999999998,14.9359999999999 C9.16899999999998,14.9359999999999 9.16899999999998,16.828 9.16899999999998,16.828 ZM9.16899999999998,27.74 C9.35199999999998,28.337 12.569,29.915 18.745,30.058 C18.745,30.058 18.745,27.0509999999999 18.745,27.0509999999999 C15.153,26.992 11.483,26.4100000000001 9.16899999999998,25.231 C9.16899999999998,25.231 9.16899999999998,27.74 9.16899999999998,27.74 Z "/></g></g><path fill="url(#PSgrad_0)" d="M43.388,37.4780000000001 C43.388,37.4780000000001 36.672,30.905 36.672,30.905 C36.672,30.905 36.672,28.5440000000001 36.672,28.5440000000001 C35.94,28.6420000000001 35.207,28.71 34.485,28.7629999999999 C34.485,28.7629999999999 32.129,26.4570000000001 32.129,26.4570000000001 C38.452,26.4200000000001 42.316,24.7940000000001 42.676,24.0530000000001 C42.312,23.3030000000001 38.367,21.644 31.912,21.644 C30.29,21.644 28.81,21.7529999999999 27.499,21.925 C27.499,21.925 24.387,18.8789999999999 24.387,18.8789999999999 C24.499,18.8630000000001 24.619,18.8489999999999 24.729,18.8320000000001 C24.729,18.8320000000001 24.729,15.854 24.729,15.854 C23.672,15.9960000000001 22.612,16.0909999999999 21.601,16.152 C21.601,16.152 19.215,13.817 19.215,13.817 C19.259,13.817 19.3,13.819 19.344,13.819 C21.349,13.819 23.163,13.6579999999999 24.729,13.414 C24.729,13.414 24.729,10.4359999999999 24.729,10.4359999999999 C22.84,10.6890000000001 20.917,10.809 19.344,10.809 C18.22,10.809 17.085,10.75 15.974,10.645 C15.974,10.645 13.023,7.75600000000009 13.023,7.75600000000009 C14.652,8.12699999999995 16.768,8.40000000000009 19.344,8.40000000000009 C25.8,8.40000000000009 30.339,6.74299999999994 30.701,5.99299999999994 C30.339,5.24299999999994 25.8,3.58500000000004 19.344,3.58500000000004 C14.948,3.58500000000004 11.868,4.37599999999998 10.318,5.10799999999995 C10.318,5.10799999999995 8.54000000000002,3.36799999999994 8.54000000000002,3.36799999999994 C10.887,1.87599999999998 15.221,1.17699999999991 19.344,1.17699999999991 C24.599,1.17699999999991 32.988,2.44200000000001 33.102,5.91699999999992 C33.102,5.91699999999992 33.11,5.91699999999992 33.11,5.91699999999992 C33.11,5.91699999999992 33.11,19.26 33.11,19.26 C38.272,19.4369999999999 44.963,20.758 45.071,23.9780000000001 C45.071,23.9780000000001 45.085,23.9780000000001 45.085,23.9780000000001 C45.085,23.9780000000001 45.085,34.9639999999999 45.085,34.9639999999999 C45.085,35.9690000000001 44.447,36.8030000000001 43.388,37.4780000000001 ZM43.846,45.9090000000001 C43.846,45.9090000000001 0.851,3.60899999999992 0.851,3.60899999999992 C0.851,3.60899999999992 3.61200000000002,0.8309999999999 3.61200000000002,0.8309999999999 C3.61200000000002,0.8309999999999 46.607,43.1320000000001 46.607,43.1320000000001 C46.607,43.1320000000001 43.846,45.9090000000001 43.846,45.9090000000001 ZM9.16899999999998,16.828 C9.245,17.249 10.53,18.0029999999999 12.867,18.556 C12.867,18.556 15.841,21.4670000000001 15.841,21.4670000000001 C13.268,21.211 10.856,20.673 9.16899999999998,19.8130000000001 C9.16899999999998,19.8130000000001 9.16899999999998,22.2460000000001 9.16899999999998,22.2460000000001 C9.29599999999999,22.941 12.698,24.5429999999999 18.745,24.645 C18.745,24.645 18.745,24.309 18.745,24.309 C18.745,24.309 21.842,27.3399999999999 21.842,27.3399999999999 C21.599,27.242 21.352,27.145 21.14,27.037 C21.14,27.037 21.14,29.471 21.14,29.471 C21.222,29.9300000000001 22.989,30.788 25.933,31.346 C25.933,31.346 28.808,34.1600000000001 28.808,34.1600000000001 C25.876,33.9280000000001 22.936,33.3710000000001 21.14,32.4549999999999 C21.14,32.4549999999999 21.14,34.9639999999999 21.14,34.9639999999999 C21.329,35.5820000000001 25.365,37.26 32.01,37.2940000000001 C32.01,37.2940000000001 34.408,39.6410000000001 34.408,39.6410000000001 C33.678,39.682 32.943,39.7049999999999 32.214,39.7049999999999 C26.015,39.7049999999999 18.745,38.221 18.745,34.9639999999999 C18.745,34.9639999999999 18.745,32.4670000000001 18.745,32.4670000000001 C12.817,32.3299999999999 6.77499999999998,30.8409999999999 6.77499999999998,27.74 C6.77499999999998,27.74 6.77499999999998,12.5920000000001 6.77499999999998,12.5920000000001 C6.77499999999998,12.5920000000001 9.16899999999998,14.9359999999999 9.16899999999998,14.9359999999999 C9.16899999999998,14.9359999999999 9.16899999999998,16.828 9.16899999999998,16.828 ZM9.16899999999998,27.74 C9.35199999999998,28.337 12.569,29.915 18.745,30.058 C18.745,30.058 18.745,27.0509999999999 18.745,27.0509999999999 C15.153,26.992 11.483,26.4100000000001 9.16899999999998,25.231 C9.16899999999998,25.231 9.16899999999998,27.74 9.16899999999998,27.74 Z "/></svg>