<?xml version="1.0" encoding="utf-8"?><!DOCTYPE svg PUBLIC "-//W3C//DTD SVG 1.1//EN" "http://www.w3.org/Graphics/SVG/1.1/DTD/svg11.dtd"><svg version="1.1" baseProfile="full" xmlns="http://www.w3.org/2000/svg" xmlns:xlink="http://www.w3.org/1999/xlink" xmlns:ev="http://www.w3.org/2001/xml-events"   height="160px"   width="133px" ><path fill="rgb( 255, 255, 255 )" d="M1.11800000000005,140.979 C1.11800000000005,140.979 1.11800000000005,138.741 1.11800000000005,138.741 C1.11800000000005,138.741 133,138.741 133,138.741 C133,138.741 133,140.979 133,140.979 C133,140.979 1.11800000000005,140.979 1.11800000000005,140.979 ZM129.646,130.91 C129.646,130.91 129.019,130.815 129.019,130.815 C129.019,130.815 128.945,130.795 128.945,130.795 C128.945,130.795 106.085,127.417 106.085,127.417 C106.085,127.417 105.725,126.886 105.725,126.886 C105.725,126.886 68.577,72.252 68.577,72.252 C68.577,72.252 38.467,125.126 38.467,125.126 C38.467,125.126 13.4400000000001,129.209 13.4400000000001,129.209 C13.4400000000001,129.209 13.119,128.831 13.119,128.831 C13.119,128.831 0,113.426 0,113.426 C0,113.426 0,15.547 0,15.547 C0,15.547 0.351,15.283 0.351,15.283 C0.351,15.283 20.7569999999999,0 20.7569999999999,0 C20.7569999999999,0 21.902,0.855 21.902,0.855 C21.902,0.855 41.141,15.407 41.141,15.407 C41.141,15.407 41.141,41.465 41.141,41.465 C41.141,41.465 51.205,23.852 51.205,23.852 C51.205,23.852 75.622,17.675 75.622,17.675 C75.622,17.675 90.5119999999999,39.392 90.5119999999999,39.392 C90.5119999999999,39.392 90.5119999999999,15.836 90.5119999999999,15.836 C90.5119999999999,15.836 110.084,1.145 110.084,1.145 C110.084,1.145 129.647,15.835 129.647,15.835 C129.647,15.835 129.647,128.465 129.647,128.465 C129.647,128.465 129.646,128.464 129.646,128.464 C129.646,128.464 129.646,130.91 129.646,130.91 ZM107.783,124.712 C107.783,124.712 126.059,127.517 126.059,127.517 C126.059,127.517 77.234,57.052 77.234,57.052 C77.234,57.052 70.025,69.711 70.025,69.711 C70.025,69.711 107.783,124.712 107.783,124.712 ZM38.216,16.872 C38.216,16.872 21.636,4.451 21.636,4.451 C21.636,4.451 21.636,75.602 21.636,75.602 C21.636,75.602 38.216,46.584 38.216,46.584 C38.216,46.584 38.216,16.872 38.216,16.872 ZM53.126,26.388 C53.126,26.388 18.711,86.619 18.711,86.619 C18.711,86.619 18.711,5.187 18.711,5.187 C18.711,5.187 2.92499999999995,17.014 2.92499999999995,17.014 C2.92499999999995,17.014 2.92499999999995,112.347 2.92499999999995,112.347 C2.92499999999995,112.347 13.773,125.084 13.773,125.084 C13.773,125.084 72.043,21.603 72.043,21.603 C72.043,21.603 53.126,26.388 53.126,26.388 ZM109.165,5.479 C109.165,5.479 93.437,17.3 93.437,17.3 C93.437,17.3 93.437,43.658 93.437,43.658 C93.437,43.658 109.165,66.597 109.165,66.597 C109.165,66.597 109.165,5.479 109.165,5.479 ZM126.722,17.3 C126.722,17.3 112.09,6.314 112.09,6.314 C112.09,6.314 112.09,76.039 112.09,76.039 C112.09,76.039 75.116,22.11 75.116,22.11 C75.116,22.11 16.788,125.693 16.788,125.693 C16.788,125.693 36.6180000000001,122.46 36.6180000000001,122.46 C36.6180000000001,122.46 76.994,51.564 76.994,51.564 C76.994,51.564 126.722,123.336 126.722,123.336 C126.722,123.336 126.722,17.3 126.722,17.3 ZM6.63499999999999,150.295 C7.11599999999999,150.455 7.47900000000004,150.67 7.72199999999998,150.941 C8.16099999999994,151.448 8.38199999999995,152.02 8.38199999999995,152.657 C8.38199999999995,153.426 8.13400000000001,153.998 7.63800000000003,154.373 C7.47000000000003,154.504 7.35299999999995,154.587 7.28700000000003,154.62 C7.22199999999998,154.652 7.10500000000002,154.706 6.93700000000001,154.781 C7.54399999999998,154.911 8.029,155.186 8.38900000000001,155.604 C8.74800000000005,156.022 8.928,156.538 8.928,157.158 C8.928,157.843 8.69399999999996,158.447 8.22699999999998,158.971 C7.68499999999995,159.581 6.74000000000001,159.886 5.39400000000001,159.886 C5.39400000000001,159.886 1.10299999999995,159.886 1.10299999999995,159.886 C1.10299999999995,159.886 1.10299999999995,150.055 1.10299999999995,150.055 C1.10299999999995,150.055 4.91700000000003,150.055 4.91700000000003,150.055 C5.58100000000002,150.055 6.154,150.136 6.63499999999999,150.295 ZM3.29100000000005,158.03 C3.29100000000005,158.03 4.79200000000003,158.03 4.79200000000003,158.03 C5.41700000000003,158.03 5.88800000000003,157.952 6.20000000000005,157.797 C6.51400000000001,157.643 6.67100000000005,157.338 6.67100000000005,156.883 C6.67100000000005,156.429 6.505,156.129 6.173,155.983 C5.84100000000001,155.839 5.30999999999995,155.765 4.58100000000002,155.765 C4.58100000000002,155.765 3.29100000000005,155.765 3.29100000000005,155.765 C3.29100000000005,155.765 3.29100000000005,158.03 3.29100000000005,158.03 ZM3.29100000000005,151.912 C3.29100000000005,151.912 3.29100000000005,154.035 3.29100000000005,154.035 C3.29100000000005,154.035 4.32799999999997,154.035 4.32799999999997,154.035 C4.93600000000004,154.035 5.38699999999994,153.97 5.68200000000002,153.838 C5.976,153.708 6.12400000000002,153.424 6.12400000000002,152.988 C6.12400000000002,152.552 5.98800000000006,152.264 5.71699999999998,152.123 C5.44600000000003,151.982 4.98800000000006,151.912 4.34299999999996,151.912 C4.34299999999996,151.912 3.29100000000005,151.912 3.29100000000005,151.912 ZM21.3390000000001,152.011 C21.3390000000001,152.011 16.4589999999999,152.011 16.4589999999999,152.011 C16.4589999999999,152.011 16.4589999999999,154.035 16.4589999999999,154.035 C16.4589999999999,154.035 20.849,154.035 20.849,154.035 C20.849,154.035 20.849,155.906 20.849,155.906 C20.849,155.906 16.4589999999999,155.906 16.4589999999999,155.906 C16.4589999999999,155.906 16.4589999999999,157.945 16.4589999999999,157.945 C16.4589999999999,157.945 21.494,157.945 21.494,157.945 C21.494,157.945 21.494,159.886 21.494,159.886 C21.494,159.886 14.271,159.886 14.271,159.886 C14.271,159.886 14.271,150.055 14.271,150.055 C14.271,150.055 21.3390000000001,150.055 21.3390000000001,150.055 C21.3390000000001,150.055 21.3390000000001,152.011 21.3390000000001,152.011 ZM30.4829999999999,158.058 C30.884,158.058 31.2,157.97 31.429,157.797 C31.658,157.623 31.773,157.39 31.773,157.094 C31.773,156.799 31.651,156.565 31.408,156.392 C31.165,156.218 30.683,156.042 29.9640000000001,155.864 C28.823,155.592 27.9880000000001,155.238 27.46,154.802 C26.932,154.366 26.668,153.682 26.668,152.748 C26.668,151.816 27.002,151.096 27.671,150.589 C28.3390000000001,150.084 29.173,149.831 30.174,149.831 C30.828,149.831 31.4829999999999,149.944 32.1369999999999,150.168 C32.7910000000001,150.393 33.362,150.712 33.848,151.124 C33.848,151.124 32.74,152.728 32.74,152.728 C31.889,152.081 31.011,151.758 30.104,151.758 C29.739,151.758 29.451,151.844 29.241,152.017 C29.0309999999999,152.191 28.926,152.421 28.926,152.706 C28.926,152.993 29.054,153.22 29.312,153.389 C29.569,153.558 30.162,153.757 31.093,153.986 C32.023,154.216 32.745,154.56 33.259,155.02 C33.773,155.48 34.0309999999999,156.149 34.0309999999999,157.031 C34.0309999999999,157.912 33.701,158.627 33.042,159.176 C32.383,159.723 31.515,159.999 30.4400000000001,159.999 C28.888,159.999 27.49,159.421 26.248,158.268 C26.248,158.268 27.551,156.666 27.551,156.666 C28.6079999999999,157.593 29.585,158.058 30.4829999999999,158.058 ZM46.329,151.955 C46.329,151.955 43.553,151.955 43.553,151.955 C43.553,151.955 43.553,159.886 43.553,159.886 C43.553,159.886 41.365,159.886 41.365,159.886 C41.365,159.886 41.365,151.955 41.365,151.955 C41.365,151.955 38.588,151.955 38.588,151.955 C38.588,151.955 38.588,150.055 38.588,150.055 C38.588,150.055 46.329,150.055 46.329,150.055 C46.329,150.055 46.329,151.955 46.329,151.955 ZM61.699,155.709 C61.699,155.709 63.438,150.055 63.438,150.055 C63.438,150.055 65.724,150.055 65.724,150.055 C65.724,150.055 67.449,155.709 67.449,155.709 C67.449,155.709 69.398,150.055 69.398,150.055 C69.398,150.055 71.768,150.055 71.768,150.055 C71.768,150.055 68.346,159.886 68.346,159.886 C68.346,159.886 66.72,159.886 66.72,159.886 C66.72,159.886 64.574,153.051 64.574,153.051 C64.574,153.051 62.442,159.886 62.442,159.886 C62.442,159.886 60.816,159.886 60.816,159.886 C60.816,159.886 57.394,150.055 57.394,150.055 C57.394,150.055 59.764,150.055 59.764,150.055 C59.764,150.055 61.699,155.709 61.699,155.709 ZM81.515,150.055 C81.515,150.055 85.75,159.886 85.75,159.886 C85.75,159.886 83.422,159.886 83.422,159.886 C83.422,159.886 82.51,157.762 82.51,157.762 C82.51,157.762 78.401,157.762 78.401,157.762 C78.401,157.762 77.49,159.886 77.49,159.886 C77.49,159.886 75.162,159.886 75.162,159.886 C75.162,159.886 79.397,150.055 79.397,150.055 C79.397,150.055 81.515,150.055 81.515,150.055 ZM81.683,155.835 C81.683,155.835 80.463,152.981 80.463,152.981 C80.463,152.981 79.229,155.835 79.229,155.835 C79.229,155.835 81.683,155.835 81.683,155.835 ZM92.579,157.931 C92.579,157.931 96.758,157.931 96.758,157.931 C96.758,157.931 96.758,159.886 96.758,159.886 C96.758,159.886 90.391,159.886 90.391,159.886 C90.391,159.886 90.391,150.055 90.391,150.055 C90.391,150.055 92.579,150.055 92.579,150.055 C92.579,150.055 92.579,157.931 92.579,157.931 ZM104.05,157.931 C104.05,157.931 108.23,157.931 108.23,157.931 C108.23,157.931 108.23,159.886 108.23,159.886 C108.23,159.886 101.862,159.886 101.862,159.886 C101.862,159.886 101.862,150.055 101.862,150.055 C101.862,150.055 104.05,150.055 104.05,150.055 C104.05,150.055 104.05,157.931 104.05,157.931 ZM120.402,152.011 C120.402,152.011 115.522,152.011 115.522,152.011 C115.522,152.011 115.522,154.035 115.522,154.035 C115.522,154.035 119.911,154.035 119.911,154.035 C119.911,154.035 119.911,155.906 119.911,155.906 C119.911,155.906 115.522,155.906 115.522,155.906 C115.522,155.906 115.522,157.945 115.522,157.945 C115.522,157.945 120.556,157.945 120.556,157.945 C120.556,157.945 120.556,159.886 120.556,159.886 C120.556,159.886 113.334,159.886 113.334,159.886 C113.334,159.886 113.334,150.055 113.334,150.055 C113.334,150.055 120.402,150.055 120.402,150.055 C120.402,150.055 120.402,152.011 120.402,152.011 ZM132.939,151.955 C132.939,151.955 130.162,151.955 130.162,151.955 C130.162,151.955 130.162,159.886 130.162,159.886 C130.162,159.886 127.974,159.886 127.974,159.886 C127.974,159.886 127.974,151.955 127.974,151.955 C127.974,151.955 125.197,151.955 125.197,151.955 C125.197,151.955 125.197,150.055 125.197,150.055 C125.197,150.055 132.939,150.055 132.939,150.055 C132.939,150.055 132.939,151.955 132.939,151.955 Z "/></svg>