<?xml version="1.0" encoding="utf-8"?><!DOCTYPE svg PUBLIC "-//W3C//DTD SVG 1.1//EN" "http://www.w3.org/Graphics/SVG/1.1/DTD/svg11.dtd"><svg version="1.1" baseProfile="full" xmlns="http://www.w3.org/2000/svg" xmlns:xlink="http://www.w3.org/1999/xlink" xmlns:ev="http://www.w3.org/2001/xml-events"   height="35px"   width="40px" ><defs><filter filterUnits="userSpaceOnUse" id="Filter_0" x="179px" y="1820px" width="41px" height="37px"  >  <feOffset in="SourceAlpha" dx="0px" dy="1px" />  <feGaussianBlur result="blurOut" stdDeviation="0" />  <feFlood flood-color="rgb( 255, 255, 255 )" result="floodOut" />  <feComposite operator="atop" in="floodOut" in2="blurOut" />  <feComponentTransfer><feFuncA type="linear" slope="0.22"/></feComponentTransfer>  <feMerge>    <feMergeNode/>    <feMergeNode in="SourceGraphic"/>  </feMerge></filter><filter id="Filter_1">  <feOffset in="SourceAlpha" dx="0px" dy="0px" />  <feGaussianBlur result="blurOut" stdDeviation="1.414" />  <feFlood flood-color="rgb( 74, 74, 74 )" result="floodOut" />  <feComposite operator="out" in="floodOut" in2="blurOut" result="compOut" />  <feComposite operator="in" in="compOut" in2="SourceAlpha" />  <feComponentTransfer><feFuncA type="linear" slope="0.17"/></feComponentTransfer>  <feBlend mode="normal" in2="SourceGraphic" /></filter><linearGradient id="PSgrad_0" x1="0%" x2="0%" y1="100%" y2="0%">  <stop offset="0%" stop-color="rgb(241,19,82)" stop-opacity="1" />  <stop offset="100%" stop-color="rgb(255,140,170)" stop-opacity="1" /></linearGradient></defs><g filter="url(#Filter_0)"><g filter="url(#Filter_1)"><path fill-opacity="0.702" fill="rgb( 190, 49, 62 )" d="M0.99600000000001,34.001 C0.99600000000001,34.001 0.99600000000001,30.479 0.99600000000001,30.479 C0.99600000000001,30.479 0.99600000000001,28.136 0.99600000000001,28.136 C0.99600000000001,28.136 0.99600000000001,26.9570000000001 0.99600000000001,26.9570000000001 C0.99600000000001,26.9570000000001 0.99600000000001,24.615 0.99600000000001,24.615 C0.99600000000001,24.615 0.99600000000001,23.434 0.99600000000001,23.434 C0.99600000000001,23.434 0.99600000000001,21.0920000000001 0.99600000000001,21.0920000000001 C0.99600000000001,21.0920000000001 0.99600000000001,0.0139999999999 0.99600000000001,0.0139999999999 C0.99600000000001,0.0139999999999 39.003,0.0139999999999 39.003,0.0139999999999 C39.003,0.0139999999999 39.003,21.0920000000001 39.003,21.0920000000001 C39.003,21.0920000000001 39.003,23.434 39.003,23.434 C39.003,23.434 39.003,24.615 39.003,24.615 C39.003,24.615 39.003,26.9570000000001 39.003,26.9570000000001 C39.003,26.9570000000001 39.003,28.136 39.003,28.136 C39.003,28.136 39.003,30.479 39.003,30.479 C39.003,30.479 39.003,34.001 39.003,34.001 C39.003,34.001 0.99600000000001,34.001 0.99600000000001,34.001 ZM3.37200000000001,31.6590000000001 C3.37200000000001,31.6590000000001 29.53,31.6590000000001 29.53,31.6590000000001 C29.53,31.6590000000001 28.333,30.479 28.333,30.479 C28.333,30.479 3.37200000000001,30.479 3.37200000000001,30.479 C3.37200000000001,30.479 3.37200000000001,31.6590000000001 3.37200000000001,31.6590000000001 ZM3.37200000000001,28.136 C3.37200000000001,28.136 25.958,28.136 25.958,28.136 C25.958,28.136 24.761,26.9570000000001 24.761,26.9570000000001 C24.761,26.9570000000001 3.37200000000001,26.9570000000001 3.37200000000001,26.9570000000001 C3.37200000000001,26.9570000000001 3.37200000000001,28.136 3.37200000000001,28.136 ZM3.37200000000001,24.615 C3.37200000000001,24.615 22.385,24.615 22.385,24.615 C22.385,24.615 21.187,23.434 21.187,23.434 C21.187,23.434 3.37200000000001,23.434 3.37200000000001,23.434 C3.37200000000001,23.434 3.37200000000001,24.615 3.37200000000001,24.615 ZM3.37200000000001,21.0920000000001 C3.37200000000001,21.0920000000001 6.93199999999999,21.0920000000001 6.93199999999999,21.0920000000001 C6.93199999999999,19.155 5.33500000000001,17.579 3.37200000000001,17.578 C3.37200000000001,17.578 3.37200000000001,21.0920000000001 3.37200000000001,21.0920000000001 ZM3.37200000000001,2.35599999999999 C3.37200000000001,2.35599999999999 3.37200000000001,5.86899999999991 3.37200000000001,5.86899999999991 C5.33500000000001,5.86699999999996 6.93199999999999,4.29199999999992 6.93199999999999,2.35599999999999 C6.93199999999999,2.35599999999999 3.37200000000001,2.35599999999999 3.37200000000001,2.35599999999999 ZM36.627,2.35599999999999 C36.627,2.35599999999999 33.047,2.35599999999999 33.047,2.35599999999999 C33.047,4.29299999999989 34.645,5.86899999999991 36.61,5.86899999999991 C36.615,5.86899999999991 36.621,5.86699999999996 36.627,5.86699999999996 C36.627,5.86699999999996 36.627,2.35599999999999 36.627,2.35599999999999 ZM36.627,8.21000000000004 C36.621,8.21000000000004 36.615,8.21100000000001 36.61,8.21100000000001 C33.334,8.21100000000001 30.671,5.58400000000006 30.671,2.35599999999999 C30.671,2.35599999999999 9.30699999999999,2.35599999999999 9.30699999999999,2.35599999999999 C9.30699999999999,5.58300000000008 6.64400000000001,8.21000000000004 3.37200000000001,8.21100000000001 C3.37200000000001,8.21100000000001 3.37200000000001,15.2370000000001 3.37200000000001,15.2370000000001 C6.64400000000001,15.2380000000001 9.30699999999999,17.8630000000001 9.30699999999999,21.0920000000001 C9.30699999999999,21.0920000000001 30.671,21.0920000000001 30.671,21.0920000000001 C30.671,17.8630000000001 33.334,15.2370000000001 36.61,15.2370000000001 C36.615,15.2370000000001 36.621,15.2380000000001 36.627,15.2380000000001 C36.627,15.2380000000001 36.627,8.21000000000004 36.627,8.21000000000004 ZM36.627,17.579 C36.621,17.579 36.615,17.578 36.61,17.578 C34.645,17.578 33.047,19.154 33.047,21.0920000000001 C33.047,21.0920000000001 36.627,21.0920000000001 36.627,21.0920000000001 C36.627,21.0920000000001 36.627,17.579 36.627,17.579 ZM19.999,18.771 C16.071,18.771 12.873,15.6089999999999 12.873,11.723 C12.873,7.83699999999999 16.071,4.67599999999993 19.999,4.67599999999993 C23.928,4.67599999999993 27.126,7.83699999999999 27.126,11.723 C27.126,15.6089999999999 23.928,18.771 19.999,18.771 ZM20.017,8.76900000000001 C20.39,8.76900000000001 20.736,8.9369999999999 20.963,9.23199999999997 C20.963,9.23199999999997 21.908,8.52099999999996 21.908,8.52099999999996 C21.571,8.08699999999999 21.106,7.79199999999992 20.584,7.66799999999989 C20.584,7.66799999999989 20.584,6.45399999999995 20.584,6.45399999999995 C20.584,6.45399999999995 19.396,6.45399999999995 19.396,6.45399999999995 C19.396,6.45399999999995 19.396,7.68900000000008 19.396,7.68900000000008 C18.389,7.96000000000004 17.642,8.8610000000001 17.642,9.94000000000005 C17.642,11.23 18.707,12.2819999999999 20.017,12.2819999999999 C20.672,12.2819999999999 21.205,12.807 21.205,13.452 C21.205,14.098 20.672,14.624 20.017,14.624 C19.655,14.624 19.319,14.4639999999999 19.091,14.1869999999999 C19.091,14.1869999999999 18.166,14.922 18.166,14.922 C18.486,15.3119999999999 18.917,15.578 19.396,15.7049999999999 C19.396,15.7049999999999 19.396,17.0139999999999 19.396,17.0139999999999 C19.396,17.0139999999999 20.584,17.0139999999999 20.584,17.0139999999999 C20.584,17.0139999999999 20.584,15.72 20.584,15.72 C21.62,15.4670000000001 22.392,14.55 22.392,13.452 C22.392,12.162 21.328,11.1110000000001 20.017,11.1110000000001 C19.363,11.1110000000001 18.829,10.585 18.829,9.94000000000005 C18.829,9.29299999999989 19.363,8.76900000000001 20.017,8.76900000000001 Z "/></g></g><path fill="url(#PSgrad_0)" d="M0.99600000000001,34.001 C0.99600000000001,34.001 0.99600000000001,30.479 0.99600000000001,30.479 C0.99600000000001,30.479 0.99600000000001,28.136 0.99600000000001,28.136 C0.99600000000001,28.136 0.99600000000001,26.9570000000001 0.99600000000001,26.9570000000001 C0.99600000000001,26.9570000000001 0.99600000000001,24.615 0.99600000000001,24.615 C0.99600000000001,24.615 0.99600000000001,23.434 0.99600000000001,23.434 C0.99600000000001,23.434 0.99600000000001,21.0920000000001 0.99600000000001,21.0920000000001 C0.99600000000001,21.0920000000001 0.99600000000001,0.0139999999999 0.99600000000001,0.0139999999999 C0.99600000000001,0.0139999999999 39.003,0.0139999999999 39.003,0.0139999999999 C39.003,0.0139999999999 39.003,21.0920000000001 39.003,21.0920000000001 C39.003,21.0920000000001 39.003,23.434 39.003,23.434 C39.003,23.434 39.003,24.615 39.003,24.615 C39.003,24.615 39.003,26.9570000000001 39.003,26.9570000000001 C39.003,26.9570000000001 39.003,28.136 39.003,28.136 C39.003,28.136 39.003,30.479 39.003,30.479 C39.003,30.479 39.003,34.001 39.003,34.001 C39.003,34.001 0.99600000000001,34.001 0.99600000000001,34.001 ZM3.37200000000001,31.6590000000001 C3.37200000000001,31.6590000000001 29.53,31.6590000000001 29.53,31.6590000000001 C29.53,31.6590000000001 28.333,30.479 28.333,30.479 C28.333,30.479 3.37200000000001,30.479 3.37200000000001,30.479 C3.37200000000001,30.479 3.37200000000001,31.6590000000001 3.37200000000001,31.6590000000001 ZM3.37200000000001,28.136 C3.37200000000001,28.136 25.958,28.136 25.958,28.136 C25.958,28.136 24.761,26.9570000000001 24.761,26.9570000000001 C24.761,26.9570000000001 3.37200000000001,26.9570000000001 3.37200000000001,26.9570000000001 C3.37200000000001,26.9570000000001 3.37200000000001,28.136 3.37200000000001,28.136 ZM3.37200000000001,24.615 C3.37200000000001,24.615 22.385,24.615 22.385,24.615 C22.385,24.615 21.187,23.434 21.187,23.434 C21.187,23.434 3.37200000000001,23.434 3.37200000000001,23.434 C3.37200000000001,23.434 3.37200000000001,24.615 3.37200000000001,24.615 ZM3.37200000000001,21.0920000000001 C3.37200000000001,21.0920000000001 6.93199999999999,21.0920000000001 6.93199999999999,21.0920000000001 C6.93199999999999,19.155 5.33500000000001,17.579 3.37200000000001,17.578 C3.37200000000001,17.578 3.37200000000001,21.0920000000001 3.37200000000001,21.0920000000001 ZM3.37200000000001,2.35599999999999 C3.37200000000001,2.35599999999999 3.37200000000001,5.86899999999991 3.37200000000001,5.86899999999991 C5.33500000000001,5.86699999999996 6.93199999999999,4.29199999999992 6.93199999999999,2.35599999999999 C6.93199999999999,2.35599999999999 3.37200000000001,2.35599999999999 3.37200000000001,2.35599999999999 ZM36.627,2.35599999999999 C36.627,2.35599999999999 33.047,2.35599999999999 33.047,2.35599999999999 C33.047,4.29299999999989 34.645,5.86899999999991 36.61,5.86899999999991 C36.615,5.86899999999991 36.621,5.86699999999996 36.627,5.86699999999996 C36.627,5.86699999999996 36.627,2.35599999999999 36.627,2.35599999999999 ZM36.627,8.21000000000004 C36.621,8.21000000000004 36.615,8.21100000000001 36.61,8.21100000000001 C33.334,8.21100000000001 30.671,5.58400000000006 30.671,2.35599999999999 C30.671,2.35599999999999 9.30699999999999,2.35599999999999 9.30699999999999,2.35599999999999 C9.30699999999999,5.58300000000008 6.64400000000001,8.21000000000004 3.37200000000001,8.21100000000001 C3.37200000000001,8.21100000000001 3.37200000000001,15.2370000000001 3.37200000000001,15.2370000000001 C6.64400000000001,15.2380000000001 9.30699999999999,17.8630000000001 9.30699999999999,21.0920000000001 C9.30699999999999,21.0920000000001 30.671,21.0920000000001 30.671,21.0920000000001 C30.671,17.8630000000001 33.334,15.2370000000001 36.61,15.2370000000001 C36.615,15.2370000000001 36.621,15.2380000000001 36.627,15.2380000000001 C36.627,15.2380000000001 36.627,8.21000000000004 36.627,8.21000000000004 ZM36.627,17.579 C36.621,17.579 36.615,17.578 36.61,17.578 C34.645,17.578 33.047,19.154 33.047,21.0920000000001 C33.047,21.0920000000001 36.627,21.0920000000001 36.627,21.0920000000001 C36.627,21.0920000000001 36.627,17.579 36.627,17.579 ZM19.999,18.771 C16.071,18.771 12.873,15.6089999999999 12.873,11.723 C12.873,7.83699999999999 16.071,4.67599999999993 19.999,4.67599999999993 C23.928,4.67599999999993 27.126,7.83699999999999 27.126,11.723 C27.126,15.6089999999999 23.928,18.771 19.999,18.771 ZM20.017,8.76900000000001 C20.39,8.76900000000001 20.736,8.9369999999999 20.963,9.23199999999997 C20.963,9.23199999999997 21.908,8.52099999999996 21.908,8.52099999999996 C21.571,8.08699999999999 21.106,7.79199999999992 20.584,7.66799999999989 C20.584,7.66799999999989 20.584,6.45399999999995 20.584,6.45399999999995 C20.584,6.45399999999995 19.396,6.45399999999995 19.396,6.45399999999995 C19.396,6.45399999999995 19.396,7.68900000000008 19.396,7.68900000000008 C18.389,7.96000000000004 17.642,8.8610000000001 17.642,9.94000000000005 C17.642,11.23 18.707,12.2819999999999 20.017,12.2819999999999 C20.672,12.2819999999999 21.205,12.807 21.205,13.452 C21.205,14.098 20.672,14.624 20.017,14.624 C19.655,14.624 19.319,14.4639999999999 19.091,14.1869999999999 C19.091,14.1869999999999 18.166,14.922 18.166,14.922 C18.486,15.3119999999999 18.917,15.578 19.396,15.7049999999999 C19.396,15.7049999999999 19.396,17.0139999999999 19.396,17.0139999999999 C19.396,17.0139999999999 20.584,17.0139999999999 20.584,17.0139999999999 C20.584,17.0139999999999 20.584,15.72 20.584,15.72 C21.62,15.4670000000001 22.392,14.55 22.392,13.452 C22.392,12.162 21.328,11.1110000000001 20.017,11.1110000000001 C19.363,11.1110000000001 18.829,10.585 18.829,9.94000000000005 C18.829,9.29299999999989 19.363,8.76900000000001 20.017,8.76900000000001 Z "/></svg>