<?xml version="1.0" encoding="utf-8"?><!DOCTYPE svg PUBLIC "-//W3C//DTD SVG 1.1//EN" "http://www.w3.org/Graphics/SVG/1.1/DTD/svg11.dtd"><svg version="1.1" baseProfile="full" xmlns="http://www.w3.org/2000/svg" xmlns:xlink="http://www.w3.org/1999/xlink" xmlns:ev="http://www.w3.org/2001/xml-events"   height="43px"   width="26px" ><defs><filter filterUnits="userSpaceOnUse" id="Filter_0" x="406px" y="1816px" width="29px" height="46px"  >  <feOffset in="SourceAlpha" dx="0px" dy="1px" />  <feGaussianBlur result="blurOut" stdDeviation="0" />  <feFlood flood-color="rgb( 255, 255, 255 )" result="floodOut" />  <feComposite operator="atop" in="floodOut" in2="blurOut" />  <feComponentTransfer><feFuncA type="linear" slope="0.22"/></feComponentTransfer>  <feMerge>    <feMergeNode/>    <feMergeNode in="SourceGraphic"/>  </feMerge></filter><filter id="Filter_1">  <feOffset in="SourceAlpha" dx="0px" dy="0px" />  <feGaussianBlur result="blurOut" stdDeviation="1.414" />  <feFlood flood-color="rgb( 74, 74, 74 )" result="floodOut" />  <feComposite operator="out" in="floodOut" in2="blurOut" result="compOut" />  <feComposite operator="in" in="compOut" in2="SourceAlpha" />  <feComponentTransfer><feFuncA type="linear" slope="0.17"/></feComponentTransfer>  <feBlend mode="normal" in2="SourceGraphic" /></filter><linearGradient id="PSgrad_0" x1="0%" x2="0%" y1="100%" y2="0%">  <stop offset="0%" stop-color="rgb(241,19,82)" stop-opacity="1" />  <stop offset="100%" stop-color="rgb(255,140,170)" stop-opacity="1" /></linearGradient></defs><g filter="url(#Filter_0)"><g filter="url(#Filter_1)"><path fill-opacity="0.702" fill="rgb( 190, 49, 62 )" d="M21.619,0.21900000000005 C21.619,0.21900000000005 3.66199999999998,0.21900000000005 3.66199999999998,0.21900000000005 C1.64400000000001,0.21900000000005 0.00299999999999,1.85699999999997 0.00299999999999,3.87200000000007 C0.00299999999999,3.87200000000007 0.00299999999999,39.067 0.00299999999999,39.067 C0.00299999999999,41.0809999999999 1.64400000000001,42.7190000000001 3.66199999999998,42.7190000000001 C3.66199999999998,42.7190000000001 21.619,42.7190000000001 21.619,42.7190000000001 C23.638,42.7190000000001 25.278,41.0809999999999 25.278,39.067 C25.278,39.067 25.278,3.87200000000007 25.278,3.87200000000007 C25.278,1.85699999999997 23.638,0.21900000000005 21.619,0.21900000000005 ZM10.642,2.87599999999998 C10.642,2.87599999999998 14.633,2.87599999999998 14.633,2.87599999999998 C14.999,2.87599999999998 15.298,3.17200000000003 15.298,3.53999999999996 C15.298,3.90699999999993 14.999,4.20399999999995 14.633,4.20399999999995 C14.633,4.20399999999995 10.642,4.20399999999995 10.642,4.20399999999995 C10.274,4.20399999999995 9.97699999999998,3.90699999999993 9.97699999999998,3.53999999999996 C9.97699999999998,3.17200000000003 10.274,2.87599999999998 10.642,2.87599999999998 ZM12.64,40.0630000000001 C11.54,40.0630000000001 10.646,39.1700000000001 10.646,38.0699999999999 C10.646,36.971 11.54,36.079 12.64,36.079 C13.742,36.079 14.635,36.971 14.635,38.0699999999999 C14.635,39.1700000000001 13.742,40.0630000000001 12.64,40.0630000000001 ZM22.614,33.423 C22.614,33.423 2.66000000000003,33.423 2.66000000000003,33.423 C2.66000000000003,33.423 2.66000000000003,6.8599999999999 2.66000000000003,6.8599999999999 C2.66000000000003,6.8599999999999 22.614,6.8599999999999 22.614,6.8599999999999 C22.614,6.8599999999999 22.614,33.423 22.614,33.423 Z "/></g></g><path fill="url(#PSgrad_0)" d="M21.619,0.21900000000005 C21.619,0.21900000000005 3.66199999999998,0.21900000000005 3.66199999999998,0.21900000000005 C1.64400000000001,0.21900000000005 0.00299999999999,1.85699999999997 0.00299999999999,3.87200000000007 C0.00299999999999,3.87200000000007 0.00299999999999,39.067 0.00299999999999,39.067 C0.00299999999999,41.0809999999999 1.64400000000001,42.7190000000001 3.66199999999998,42.7190000000001 C3.66199999999998,42.7190000000001 21.619,42.7190000000001 21.619,42.7190000000001 C23.638,42.7190000000001 25.278,41.0809999999999 25.278,39.067 C25.278,39.067 25.278,3.87200000000007 25.278,3.87200000000007 C25.278,1.85699999999997 23.638,0.21900000000005 21.619,0.21900000000005 ZM10.642,2.87599999999998 C10.642,2.87599999999998 14.633,2.87599999999998 14.633,2.87599999999998 C14.999,2.87599999999998 15.298,3.17200000000003 15.298,3.53999999999996 C15.298,3.90699999999993 14.999,4.20399999999995 14.633,4.20399999999995 C14.633,4.20399999999995 10.642,4.20399999999995 10.642,4.20399999999995 C10.274,4.20399999999995 9.97699999999998,3.90699999999993 9.97699999999998,3.53999999999996 C9.97699999999998,3.17200000000003 10.274,2.87599999999998 10.642,2.87599999999998 ZM12.64,40.0630000000001 C11.54,40.0630000000001 10.646,39.1700000000001 10.646,38.0699999999999 C10.646,36.971 11.54,36.079 12.64,36.079 C13.742,36.079 14.635,36.971 14.635,38.0699999999999 C14.635,39.1700000000001 13.742,40.0630000000001 12.64,40.0630000000001 ZM22.614,33.423 C22.614,33.423 2.66000000000003,33.423 2.66000000000003,33.423 C2.66000000000003,33.423 2.66000000000003,6.8599999999999 2.66000000000003,6.8599999999999 C2.66000000000003,6.8599999999999 22.614,6.8599999999999 22.614,6.8599999999999 C22.614,6.8599999999999 22.614,33.423 22.614,33.423 Z "/></svg>