<?xml version="1.0" encoding="utf-8"?><!DOCTYPE svg PUBLIC "-//W3C//DTD SVG 1.1//EN" "http://www.w3.org/Graphics/SVG/1.1/DTD/svg11.dtd"><svg version="1.1" baseProfile="full" xmlns="http://www.w3.org/2000/svg" xmlns:xlink="http://www.w3.org/1999/xlink" xmlns:ev="http://www.w3.org/2001/xml-events"   height="47px"   width="48px" ><defs><filter filterUnits="userSpaceOnUse" id="Filter_0" x="93px" y="1688px" width="50px" height="50px"  >  <feOffset in="SourceAlpha" dx="0px" dy="1px" />  <feGaussianBlur result="blurOut" stdDeviation="0" />  <feFlood flood-color="rgb( 255, 255, 255 )" result="floodOut" />  <feComposite operator="atop" in="floodOut" in2="blurOut" />  <feComponentTransfer><feFuncA type="linear" slope="0.22"/></feComponentTransfer>  <feMerge>    <feMergeNode/>    <feMergeNode in="SourceGraphic"/>  </feMerge></filter><filter id="Filter_1">  <feOffset in="SourceAlpha" dx="0px" dy="0px" />  <feGaussianBlur result="blurOut" stdDeviation="1.414" />  <feFlood flood-color="rgb( 74, 74, 74 )" result="floodOut" />  <feComposite operator="out" in="floodOut" in2="blurOut" result="compOut" />  <feComposite operator="in" in="compOut" in2="SourceAlpha" />  <feComponentTransfer><feFuncA type="linear" slope="0.17"/></feComponentTransfer>  <feBlend mode="normal" in2="SourceGraphic" /></filter><linearGradient id="PSgrad_0" x1="0%" x2="0%" y1="100%" y2="0%">  <stop offset="0%" stop-color="rgb(241,19,82)" stop-opacity="1" />  <stop offset="100%" stop-color="rgb(255,140,170)" stop-opacity="1" /></linearGradient></defs><g filter="url(#Filter_0)"><g filter="url(#Filter_1)"><path fill-opacity="0.702" fill="rgb( 252, 26, 95 )" d="M38.151,11.758 C37.892,11.758 37.646,11.713 37.407,11.6510000000001 C37.407,11.6510000000001 35.435,13.614 35.435,13.614 C36.23,14.8050000000001 36.659,16.201 36.659,17.664 C36.659,19.626 35.89,21.4690000000001 34.496,22.856 C34.496,22.856 29.789,27.538 29.789,27.538 C29.789,27.538 31.87,29.607 31.87,29.607 C31.87,29.607 34.48,27.011 34.48,27.011 C34.48,27.011 47.008,39.472 47.008,39.472 C47.008,39.472 39.7,46.742 39.7,46.742 C39.7,46.742 27.172,34.279 27.172,34.279 C27.172,34.279 29.782,31.684 29.782,31.684 C29.782,31.684 27.701,29.615 27.701,29.615 C27.701,29.615 23.008,34.2819999999999 23.008,34.2819999999999 C23.008,34.2819999999999 21.26,32.5440000000001 21.26,32.5440000000001 C21.373,33.1030000000001 21.433,33.683 21.433,34.2760000000001 C21.433,36.712 20.438,38.9179999999999 18.832,40.5150000000001 C18.832,40.5150000000001 6.303,28.0519999999999 6.303,28.0519999999999 C7.908,26.453 10.124,25.4639999999999 12.574,25.4639999999999 C13.171,25.4639999999999 13.753,25.5239999999999 14.316,25.636 C14.316,25.636 12.568,23.8979999999999 12.568,23.8979999999999 C12.568,23.8979999999999 17.262,19.229 17.262,19.229 C17.262,19.229 15.164,17.1420000000001 15.164,17.1420000000001 C15.164,17.1420000000001 12.554,19.74 12.554,19.74 C12.554,19.74 0.026,7.27700000000004 0.026,7.27700000000004 C0.026,7.27700000000004 7.334,0.00800000000004 7.334,0.00800000000004 C7.334,0.00800000000004 19.861,12.4690000000001 19.861,12.4690000000001 C19.861,12.4690000000001 17.252,15.0650000000001 17.252,15.0650000000001 C17.252,15.0650000000001 19.35,17.152 19.35,17.152 C19.35,17.152 24.055,12.472 24.055,12.472 C25.451,11.0830000000001 27.303,10.3209999999999 29.276,10.3209999999999 C30.745,10.3209999999999 32.15,10.7460000000001 33.347,11.537 C33.347,11.537 35.31,9.58300000000008 35.31,9.58300000000008 C35.244,9.33799999999997 35.198,9.08400000000006 35.198,8.81799999999998 C35.197,7.19599999999991 36.519,5.88300000000004 38.15,5.88300000000004 C39.781,5.88300000000004 41.104,7.19599999999991 41.104,8.81999999999994 C41.104,10.441 39.781,11.7560000000001 38.151,11.758 ZM39.7,42.5889999999999 C39.7,42.5889999999999 42.832,39.472 42.832,39.472 C42.832,39.472 34.48,31.164 34.48,31.164 C34.48,31.164 31.348,34.279 31.348,34.279 C31.348,34.279 39.7,42.5889999999999 39.7,42.5889999999999 ZM7.334,4.16200000000003 C7.334,4.16200000000003 4.202,7.27700000000004 4.202,7.27700000000004 C4.202,7.27700000000004 12.554,15.586 12.554,15.586 C12.554,15.586 15.686,12.4690000000001 15.686,12.4690000000001 C15.686,12.4690000000001 7.334,4.16200000000003 7.334,4.16200000000003 ZM32.408,14.549 C30.734,12.8810000000001 27.818,12.884 26.143,14.549 C26.143,14.549 16.744,23.8979999999999 16.744,23.8979999999999 C16.744,23.8979999999999 19.239,26.3779999999999 19.239,26.3779999999999 C19.239,26.3779999999999 28.767,16.8989999999999 28.767,16.8989999999999 C28.767,16.8989999999999 32.525,20.636 32.525,20.636 C33.28,19.8209999999999 33.706,18.779 33.706,17.664 C33.706,16.4870000000001 33.246,15.3810000000001 32.408,14.549 ZM11.081,38.1800000000001 C11.083,38.1800000000001 11.083,38.1800000000001 11.083,38.1800000000001 C11.409,38.1800000000001 11.723,38.1110000000001 12.017,37.9749999999999 C12.017,37.9749999999999 13.263,40.6379999999999 13.263,40.6379999999999 C12.577,40.9549999999999 11.844,41.116 11.083,41.116 C11.083,41.116 11.08,41.116 11.08,41.116 C9.702,41.116 8.404,40.5820000000001 7.429,39.6130000000001 C6.453,38.6389999999999 5.91500000000001,37.3489999999999 5.91500000000001,35.9760000000001 C5.91500000000001,35.1769999999999 6.095,34.4090000000001 6.45,33.6969999999999 C6.45,33.6969999999999 9.096,35.001 9.096,35.001 C8.94499999999999,35.3050000000001 8.86799999999999,35.633 8.86799999999999,35.9760000000001 C8.86799999999999,36.5640000000001 9.099,37.1179999999999 9.517,37.5340000000001 C9.935,37.951 10.492,38.1800000000001 11.081,38.1800000000001 ZM3.84399999999999,32.309 C3.259,33.4469999999999 2.962,34.682 2.962,35.9780000000001 C2.962,40.431 6.604,44.0550000000001 11.083,44.0550000000001 C12.381,44.0540000000001 13.624,43.759 14.771,43.175 C14.771,43.175 16.114,45.7919999999999 16.114,45.7919999999999 C14.546,46.5889999999999 12.854,46.992 11.083,46.9929999999999 C4.976,46.9929999999999 0.009,42.05 0.009,35.9780000000001 C0.009,34.239 0.42700000000001,32.5070000000001 1.214,30.972 C1.214,30.972 3.84399999999999,32.309 3.84399999999999,32.309 Z "/></g></g><path fill="url(#PSgrad_0)" d="M38.151,11.758 C37.892,11.758 37.646,11.713 37.407,11.6510000000001 C37.407,11.6510000000001 35.435,13.614 35.435,13.614 C36.23,14.8050000000001 36.659,16.201 36.659,17.664 C36.659,19.626 35.89,21.4690000000001 34.496,22.856 C34.496,22.856 29.789,27.538 29.789,27.538 C29.789,27.538 31.87,29.607 31.87,29.607 C31.87,29.607 34.48,27.011 34.48,27.011 C34.48,27.011 47.008,39.472 47.008,39.472 C47.008,39.472 39.7,46.742 39.7,46.742 C39.7,46.742 27.172,34.279 27.172,34.279 C27.172,34.279 29.782,31.684 29.782,31.684 C29.782,31.684 27.701,29.615 27.701,29.615 C27.701,29.615 23.008,34.2819999999999 23.008,34.2819999999999 C23.008,34.2819999999999 21.26,32.5440000000001 21.26,32.5440000000001 C21.373,33.1030000000001 21.433,33.683 21.433,34.2760000000001 C21.433,36.712 20.438,38.9179999999999 18.832,40.5150000000001 C18.832,40.5150000000001 6.303,28.0519999999999 6.303,28.0519999999999 C7.908,26.453 10.124,25.4639999999999 12.574,25.4639999999999 C13.171,25.4639999999999 13.753,25.5239999999999 14.316,25.636 C14.316,25.636 12.568,23.8979999999999 12.568,23.8979999999999 C12.568,23.8979999999999 17.262,19.229 17.262,19.229 C17.262,19.229 15.164,17.1420000000001 15.164,17.1420000000001 C15.164,17.1420000000001 12.554,19.74 12.554,19.74 C12.554,19.74 0.026,7.27700000000004 0.026,7.27700000000004 C0.026,7.27700000000004 7.334,0.00800000000004 7.334,0.00800000000004 C7.334,0.00800000000004 19.861,12.4690000000001 19.861,12.4690000000001 C19.861,12.4690000000001 17.252,15.0650000000001 17.252,15.0650000000001 C17.252,15.0650000000001 19.35,17.152 19.35,17.152 C19.35,17.152 24.055,12.472 24.055,12.472 C25.451,11.0830000000001 27.303,10.3209999999999 29.276,10.3209999999999 C30.745,10.3209999999999 32.15,10.7460000000001 33.347,11.537 C33.347,11.537 35.31,9.58300000000008 35.31,9.58300000000008 C35.244,9.33799999999997 35.198,9.08400000000006 35.198,8.81799999999998 C35.197,7.19599999999991 36.519,5.88300000000004 38.15,5.88300000000004 C39.781,5.88300000000004 41.104,7.19599999999991 41.104,8.81999999999994 C41.104,10.441 39.781,11.7560000000001 38.151,11.758 ZM39.7,42.5889999999999 C39.7,42.5889999999999 42.832,39.472 42.832,39.472 C42.832,39.472 34.48,31.164 34.48,31.164 C34.48,31.164 31.348,34.279 31.348,34.279 C31.348,34.279 39.7,42.5889999999999 39.7,42.5889999999999 ZM7.334,4.16200000000003 C7.334,4.16200000000003 4.202,7.27700000000004 4.202,7.27700000000004 C4.202,7.27700000000004 12.554,15.586 12.554,15.586 C12.554,15.586 15.686,12.4690000000001 15.686,12.4690000000001 C15.686,12.4690000000001 7.334,4.16200000000003 7.334,4.16200000000003 ZM32.408,14.549 C30.734,12.8810000000001 27.818,12.884 26.143,14.549 C26.143,14.549 16.744,23.8979999999999 16.744,23.8979999999999 C16.744,23.8979999999999 19.239,26.3779999999999 19.239,26.3779999999999 C19.239,26.3779999999999 28.767,16.8989999999999 28.767,16.8989999999999 C28.767,16.8989999999999 32.525,20.636 32.525,20.636 C33.28,19.8209999999999 33.706,18.779 33.706,17.664 C33.706,16.4870000000001 33.246,15.3810000000001 32.408,14.549 ZM11.081,38.1800000000001 C11.083,38.1800000000001 11.083,38.1800000000001 11.083,38.1800000000001 C11.409,38.1800000000001 11.723,38.1110000000001 12.017,37.9749999999999 C12.017,37.9749999999999 13.263,40.6379999999999 13.263,40.6379999999999 C12.577,40.9549999999999 11.844,41.116 11.083,41.116 C11.083,41.116 11.08,41.116 11.08,41.116 C9.702,41.116 8.404,40.5820000000001 7.429,39.6130000000001 C6.453,38.6389999999999 5.91500000000001,37.3489999999999 5.91500000000001,35.9760000000001 C5.91500000000001,35.1769999999999 6.095,34.4090000000001 6.45,33.6969999999999 C6.45,33.6969999999999 9.096,35.001 9.096,35.001 C8.94499999999999,35.3050000000001 8.86799999999999,35.633 8.86799999999999,35.9760000000001 C8.86799999999999,36.5640000000001 9.099,37.1179999999999 9.517,37.5340000000001 C9.935,37.951 10.492,38.1800000000001 11.081,38.1800000000001 ZM3.84399999999999,32.309 C3.259,33.4469999999999 2.962,34.682 2.962,35.9780000000001 C2.962,40.431 6.604,44.0550000000001 11.083,44.0550000000001 C12.381,44.0540000000001 13.624,43.759 14.771,43.175 C14.771,43.175 16.114,45.7919999999999 16.114,45.7919999999999 C14.546,46.5889999999999 12.854,46.992 11.083,46.9929999999999 C4.976,46.9929999999999 0.009,42.05 0.009,35.9780000000001 C0.009,34.239 0.42700000000001,32.5070000000001 1.214,30.972 C1.214,30.972 3.84399999999999,32.309 3.84399999999999,32.309 Z "/></svg>