<?xml version="1.0" encoding="utf-8"?><!DOCTYPE svg PUBLIC "-//W3C//DTD SVG 1.1//EN" "http://www.w3.org/Graphics/SVG/1.1/DTD/svg11.dtd"><svg version="1.1" baseProfile="full" xmlns="http://www.w3.org/2000/svg" xmlns:xlink="http://www.w3.org/1999/xlink" xmlns:ev="http://www.w3.org/2001/xml-events"   height="35px"   width="31px" ><defs><filter filterUnits="userSpaceOnUse" id="Filter_0" x="507px" y="1694px" width="33px" height="38px"  >  <feOffset in="SourceAlpha" dx="0px" dy="1px" />  <feGaussianBlur result="blurOut" stdDeviation="0" />  <feFlood flood-color="rgb( 255, 255, 255 )" result="floodOut" />  <feComposite operator="atop" in="floodOut" in2="blurOut" />  <feComponentTransfer><feFuncA type="linear" slope="0.22"/></feComponentTransfer>  <feMerge>    <feMergeNode/>    <feMergeNode in="SourceGraphic"/>  </feMerge></filter><filter id="Filter_1">  <feOffset in="SourceAlpha" dx="0px" dy="0px" />  <feGaussianBlur result="blurOut" stdDeviation="1.414" />  <feFlood flood-color="rgb( 74, 74, 74 )" result="floodOut" />  <feComposite operator="out" in="floodOut" in2="blurOut" result="compOut" />  <feComposite operator="in" in="compOut" in2="SourceAlpha" />  <feComponentTransfer><feFuncA type="linear" slope="0.17"/></feComponentTransfer>  <feBlend mode="normal" in2="SourceGraphic" /></filter><linearGradient id="PSgrad_0" x1="0%" x2="0%" y1="100%" y2="0%">  <stop offset="0%" stop-color="rgb(241,19,82)" stop-opacity="1" />  <stop offset="100%" stop-color="rgb(255,140,170)" stop-opacity="1" /></linearGradient></defs><g filter="url(#Filter_0)"><g filter="url(#Filter_1)"><path fill-opacity="0.702" fill="rgb( 190, 49, 62 )" d="M0.98700000000002,0.00500000000011 C0.98700000000002,0.00500000000011 0.98700000000002,13.5450000000001 0.98700000000002,13.5450000000001 C0.98700000000002,16.9390000000001 2.03500000000003,28.5 15.514,34.768 C15.514,34.768 16.006,34.9960000000001 16.006,34.9960000000001 C16.006,34.9960000000001 16.492,34.7539999999999 16.492,34.7539999999999 C29.105,28.4469999999999 30.9880000000001,18.6690000000001 30.9880000000001,13.402 C30.9880000000001,13.402 30.9880000000001,0.00500000000011 30.9880000000001,0.00500000000011 C30.9880000000001,0.00500000000011 0.98700000000002,0.00500000000011 0.98700000000002,0.00500000000011 ZM3.20999999999998,13.5450000000001 C3.20999999999998,13.5450000000001 3.20999999999998,2.19100000000003 3.20999999999998,2.19100000000003 C3.20999999999998,2.19100000000003 25.437,2.19100000000003 25.437,2.19100000000003 C25.437,4.08799999999997 25.437,6.42800000000011 25.437,9.096 C25.437,9.096 23.035,7.16499999999996 23.035,7.16499999999996 C23.035,7.16499999999996 14.198,17.7840000000001 14.198,17.7840000000001 C14.198,17.7840000000001 9.94299999999998,13.6010000000001 9.94299999999998,13.6010000000001 C9.94299999999998,13.6010000000001 7.58600000000001,15.9190000000001 7.58600000000001,15.9190000000001 C7.58600000000001,15.9190000000001 14.446,22.665 14.446,22.665 C14.446,22.665 25.437,9.45499999999993 25.437,9.45499999999993 C25.437,11.2729999999999 25.437,13.2349999999999 25.437,15.306 C25.437,20.712 23.252,28.251 16.215,32.4190000000001 C16.13,32.463 16.056,32.511 15.971,32.556 C4.13900000000001,26.7919999999999 3.20999999999998,16.5719999999999 3.20999999999998,13.5450000000001 Z "/></g></g><path fill="url(#PSgrad_0)" d="M0.98700000000002,0.00500000000011 C0.98700000000002,0.00500000000011 0.98700000000002,13.5450000000001 0.98700000000002,13.5450000000001 C0.98700000000002,16.9390000000001 2.03500000000003,28.5 15.514,34.768 C15.514,34.768 16.006,34.9960000000001 16.006,34.9960000000001 C16.006,34.9960000000001 16.492,34.7539999999999 16.492,34.7539999999999 C29.105,28.4469999999999 30.9880000000001,18.6690000000001 30.9880000000001,13.402 C30.9880000000001,13.402 30.9880000000001,0.00500000000011 30.9880000000001,0.00500000000011 C30.9880000000001,0.00500000000011 0.98700000000002,0.00500000000011 0.98700000000002,0.00500000000011 ZM3.20999999999998,13.5450000000001 C3.20999999999998,13.5450000000001 3.20999999999998,2.19100000000003 3.20999999999998,2.19100000000003 C3.20999999999998,2.19100000000003 25.437,2.19100000000003 25.437,2.19100000000003 C25.437,4.08799999999997 25.437,6.42800000000011 25.437,9.096 C25.437,9.096 23.035,7.16499999999996 23.035,7.16499999999996 C23.035,7.16499999999996 14.198,17.7840000000001 14.198,17.7840000000001 C14.198,17.7840000000001 9.94299999999998,13.6010000000001 9.94299999999998,13.6010000000001 C9.94299999999998,13.6010000000001 7.58600000000001,15.9190000000001 7.58600000000001,15.9190000000001 C7.58600000000001,15.9190000000001 14.446,22.665 14.446,22.665 C14.446,22.665 25.437,9.45499999999993 25.437,9.45499999999993 C25.437,11.2729999999999 25.437,13.2349999999999 25.437,15.306 C25.437,20.712 23.252,28.251 16.215,32.4190000000001 C16.13,32.463 16.056,32.511 15.971,32.556 C4.13900000000001,26.7919999999999 3.20999999999998,16.5719999999999 3.20999999999998,13.5450000000001 Z "/></svg>