<?xml version="1.0" encoding="utf-8"?><!DOCTYPE svg PUBLIC "-//W3C//DTD SVG 1.1//EN" "http://www.w3.org/Graphics/SVG/1.1/DTD/svg11.dtd"><svg version="1.1" baseProfile="full" xmlns="http://www.w3.org/2000/svg" xmlns:xlink="http://www.w3.org/1999/xlink" xmlns:ev="http://www.w3.org/2001/xml-events"   height="1033px"   width="1802px" ><defs><filter id="Filter_0">  <feOffset in="SourceAlpha" dx="0px" dy="0px" />  <feGaussianBlur result="blurOut" stdDeviation="1.732" />  <feFlood flood-color="rgb( 255, 255, 255 )" result="floodOut" />  <feComposite operator="out" in="floodOut" in2="blurOut" result="compOut" />  <feComposite operator="in" in="compOut" in2="SourceAlpha" />  <feComponentTransfer><feFuncA type="linear" slope="0.52"/></feComponentTransfer>  <feBlend mode="normal" in2="SourceGraphic" /></filter><linearGradient id="PSgrad_0" x1="0%" x2="65.606%" y1="75.471%" y2="0%">  <stop offset="27%" stop-color="rgb(245,16,92)" stop-opacity="1" />  <stop offset="59%" stop-color="rgb(96,26,74)" stop-opacity="1" /></linearGradient></defs><g filter="url(#Filter_0)"><path fill="rgb( 221, 221, 221 )" d="M1693,1032.5 C1693,1032.5 1599,1007.5 1599,1007.5 C1599,1007.5 1542,1022.5 1542,1022.5 C1542,1022.5 1404,982.5 1404,982.5 C1404,982.5 1304,1019.5 1304,1019.5 C1304,1019.5 1154,951.501 1154,951.501 C1154,951.501 965,1022.5 965,1022.5 C965,1022.5 895,995.5 895,995.5 C895,995.5 711,1025 711,1025 C711,1025 617,991.5 617,991.5 C617,991.5 435,1027.5 435,1027.5 C435,1027.5 232,994.5 232,994.5 C232,994.5 0,1021.343 0,1021.343 C0,1021.343 0,0 0,0 C0,0 1802,0 1802,0 C1802,0 1802,931.794 1802,931.794 C1802,931.794 1693,1032.5 1693,1032.5 Z "/></g><path fill="url(#PSgrad_0)" d="M1693,1032.5 C1693,1032.5 1599,1007.5 1599,1007.5 C1599,1007.5 1542,1022.5 1542,1022.5 C1542,1022.5 1404,982.5 1404,982.5 C1404,982.5 1304,1019.5 1304,1019.5 C1304,1019.5 1154,951.501 1154,951.501 C1154,951.501 965,1022.5 965,1022.5 C965,1022.5 895,995.5 895,995.5 C895,995.5 711,1025 711,1025 C711,1025 617,991.5 617,991.5 C617,991.5 435,1027.5 435,1027.5 C435,1027.5 232,994.5 232,994.5 C232,994.5 0,1021.343 0,1021.343 C0,1021.343 0,0 0,0 C0,0 1802,0 1802,0 C1802,0 1802,931.794 1802,931.794 C1802,931.794 1693,1032.5 1693,1032.5 Z "/></svg>