<?xml version="1.0" encoding="UTF-8"?><!DOCTYPE svg PUBLIC "-//W3C//DTD SVG 1.1//EN" "http://www.w3.org/Graphics/SVG/1.1/DTD/svg11.dtd"><svg xmlns="http://www.w3.org/2000/svg"><symbol id="icon-logo"><path fill="rgb( 255, 255, 255 )" d="M1.118 140.98v-2.24H133v2.24H1.118zm128.528-10.07l-.627-.095-.075-.02-22.86-3.378-.36-.53L68.577 72.25l-30.11 52.874-25.027 4.083-.32-.38L0 113.427v-97.88l.35-.263L20.758 0l1.145.855 19.24 14.552v26.058l10.063-17.613 24.417-6.177 14.89 21.717V15.836l19.572-14.69 19.563 14.69v112.63-.002 2.446zm-21.863-6.198l18.276 2.805-48.826-70.465-7.21 12.66 37.76 55zM38.216 16.872l-16.58-12.42V75.6l16.58-29.018V16.872zm14.91 9.516L18.71 86.618V5.19L2.926 17.013v95.333l10.848 12.737 58.27-103.48-18.917 4.784zm56.04-20.91L93.435 17.3v26.358l15.73 22.94V5.477zM126.72 17.3L112.09 6.314V76.04L75.116 22.11 16.788 125.693l19.83-3.233 40.376-70.896 49.728 71.772V17.3zM6.635 150.295c.48.16.844.375 1.087.646.44.508.66 1.08.66 1.717 0 .77-.248 1.34-.744 1.716-.168.13-.285.214-.35.247-.066.032-.183.086-.35.16.606.13 1.09.406 1.45.824.36.418.54.934.54 1.554 0 .685-.234 1.29-.7 1.813-.543.61-1.488.916-2.834.916h-4.29v-9.83h3.813c.664 0 1.237.08 1.718.24zM3.29 158.03h1.502c.625 0 1.096-.078 1.408-.233.314-.154.47-.46.47-.914s-.165-.754-.497-.9c-.332-.144-.863-.218-1.592-.218H3.29v2.265zm0-6.118v2.123H4.33c.608 0 1.06-.065 1.354-.197.294-.13.442-.414.442-.85s-.136-.724-.407-.865c-.27-.14-.73-.21-1.374-.21H3.29zm18.05.1h-4.88v2.023h4.39v1.87h-4.39v2.04h5.034v1.94H14.27v-9.83h7.07v1.956zm9.143 6.046c.4 0 .717-.088.946-.26.228-.175.343-.408.343-.704 0-.295-.122-.53-.365-.702-.243-.174-.725-.35-1.444-.528-1.14-.272-1.976-.626-2.504-1.062-.528-.436-.792-1.12-.792-2.054 0-.932.334-1.652 1.003-2.16.67-.504 1.503-.757 2.504-.757.654 0 1.31.114 1.963.338.654.225 1.225.544 1.71.956l-1.107 1.604c-.85-.647-1.73-.97-2.636-.97-.365 0-.653.086-.863.26-.21.173-.314.403-.314.688 0 .287.128.514.386.683.257.168.85.367 1.78.596.93.23 1.653.574 2.167 1.034.513.46.77 1.13.77 2.01 0 .882-.33 1.597-.988 2.146-.66.547-1.527.823-2.602.823-1.552 0-2.95-.58-4.192-1.732l1.303-1.602c1.058.927 2.035 1.392 2.933 1.392zm15.846-6.103h-2.777v7.93h-2.188v-7.93h-2.777v-1.9h7.74v1.9zm15.37 3.754l1.738-5.655h2.286l1.725 5.654 1.948-5.655h2.37l-3.422 9.83H66.72l-2.146-6.834-2.132 6.836h-1.626l-3.422-9.83h2.37l1.935 5.653zm19.815-5.655l4.235 9.83h-2.328l-.912-2.123H78.4l-.91 2.124h-2.328l4.235-9.83h2.118zm.168 5.78l-1.22-2.854-1.234 2.855h2.453zm10.896 2.096h4.178v1.956H90.39v-9.83h2.19v7.875zm11.47 0h4.18v1.956h-6.368v-9.83h2.188v7.875zm16.352-5.92h-4.88v2.025h4.39v1.87h-4.39v2.04h5.034v1.94h-7.222v-9.83h7.068v1.956zm12.537-.055h-2.778v7.93h-2.188v-7.93h-2.777v-1.9h7.742v1.9z"/></symbol></svg>