<?xml version="1.0" encoding="UTF-8"?><!DOCTYPE svg PUBLIC "-//W3C//DTD SVG 1.1//EN" "http://www.w3.org/Graphics/SVG/1.1/DTD/svg11.dtd"><svg xmlns="http://www.w3.org/2000/svg"><symbol id="icon-lines-to"><path opacity=".29" fill="rgb( 195, 53, 99 )" d="M370.835 103l-1.21-3.284c1.065-.412 2.127-.84 3.182-1.277l1.295 3.246c-1.082.454-2.17.888-3.267 1.313zm-7.664-.996c1.086-.35 2.168-.72 3.244-1.1l1.116 3.316c-1.102.39-2.213.765-3.33 1.13l-1.03-3.346zm-6.563 1.922c1.104-.294 2.2-.6 3.296-.92l.936 3.374c-1.123.328-2.25.64-3.382.942l-.85-3.396zm-5.56 83.62c1.12-.27 2.244-.554 3.366-.86l.87 3.355c-1.153.31-2.31.606-3.465.884l-.77-3.38zm-1.088-82.056c1.112-.228 2.224-.473 3.33-.734l.758 3.423c-1.14.266-2.283.518-3.432.752l-.657-3.442zm-5.717 83.5c1.14-.212 2.277-.436 3.41-.676l.68 3.4c-1.163.246-2.328.475-3.5.69l-.59-3.415zm-1.002-82.313c1.126-.164 2.246-.348 3.364-.547l.573 3.458c-1.15.205-2.306.394-3.464.566l-.472-3.477zm-5.844 83.375c1.145-.145 2.288-.307 3.432-.485l.49 3.434c-1.174.18-2.353.35-3.53.498l-.392-3.446zm-1.807-81.29c1.116-.287 2.233-.592 3.35-.916l.926 3.338c-1.146.33-2.297.645-3.448.943l-.83-3.365zm-5.093 81.982c1.15-.084 2.304-.183 3.452-.297l.3 3.455c-1.184.12-2.367.223-3.548.31l-.205-3.468zm-1.686-80.42c1.137-.232 2.27-.474 3.4-.734l.737 3.387c-1.158.266-2.32.515-3.486.75l-.65-3.404zm-5.23 80.73c1.153-.02 2.306-.055 3.46-.108l.11 3.47c-1.186.054-2.37.092-3.555.113l-.015-3.475zm-1.596-79.55c1.142-.164 2.282-.346 3.423-.544l.55 3.424c-1.172.202-2.348.39-3.52.56l-.453-3.44zm-5.493 82.963l.173-3.47c1.155.04 2.305.065 3.458.076l-.08 3.475c-1.185-.01-2.368-.037-3.55-.08zm-1.393-82.152c1.15-.103 2.3-.223 3.447-.356l.36 3.448c-1.18.14-2.362.264-3.542.37l-.265-3.463zm-5.69 81.7l.374-3.46c1.143.106 2.29.193 3.44.267l-.274 3.467c-1.18-.075-2.36-.166-3.538-.274zm-1.22-81.27c1.152-.04 2.304-.095 3.457-.168l.17 3.47c-1.185.072-2.367.13-3.552.172l-.075-3.474zm-5.818 80.442l.547-3.44c1.138.166 2.28.316 3.422.45l-.46 3.452c-1.176-.14-2.346-.295-3.51-.463zm-1.212-76.907l.112-3.474c1.155.02 2.306.026 3.46.017l-.023 3.476c-1.185.01-2.368.003-3.55-.02zm-6.726 159.084l1.54-3.83c1.29.526 2.573 1.068 3.854 1.627l-1.633 3.794c-1.25-.544-2.504-1.08-3.76-1.59zm.88-84.09l.673-3.44c1.15.21 2.298.44 3.443.684l-.773 3.422c-1.112-.24-2.225-.46-3.342-.667zm-1.244-75.323l.313-3.465c1.145.085 2.294.153 3.443.207l-.213 3.47c-1.18-.053-2.364-.123-3.542-.21zm-5.498 74.268l.486-3.473c1.16.15 2.32.314 3.478.498l-.587 3.454c-1.122-.176-2.25-.336-3.377-.48zm-1.555-74.975l.49-3.447c1.14.145 2.285.275 3.428.39l-.4 3.46c-1.177-.12-2.35-.255-3.518-.403zm5.06 154.77l-1.446 3.866c-1.27-.48-2.55-.94-3.835-1.38l1.33-3.916c1.323.46 2.64.93 3.95 1.43zm-10.31-80.475l.3-3.49c1.167.088 2.33.19 3.497.305l-.39 3.48c-1.136-.112-2.27-.21-3.408-.295zm-1.837-76.086l.613-3.45c1.153.19 2.306.398 3.455.624l-.714 3.434c-1.115-.22-2.232-.42-3.352-.608zm4.21 153.82l-1.21 3.952c-1.3-.406-2.605-.8-3.912-1.173l1.115-3.977c1.342.386 2.682.784 4.01 1.198zm-9.21-78.045l.116-3.5c1.168.023 2.34.06 3.514.11l-.206 3.495c-1.14-.052-2.282-.085-3.423-.105zm-1.76-76.714l.426-3.48c1.163.128 2.326.273 3.486.437l-.528 3.464c-1.125-.157-2.255-.297-3.385-.42zm1.907 156.48c-1.32-.34-2.64-.66-3.96-.962l.89-4.03c1.368.306 2.727.633 4.085.984l-1.015 4.01zm-6.995-79.7L268 185.8c1.174-.045 2.345-.07 3.52-.085l-.012 3.5c-1.143.012-2.287.04-3.428.08zm-1.73-77.342l.243-3.493c1.167.067 2.333.148 3.5.243l-.33 3.486c-1.137-.092-2.274-.172-3.412-.235zm-5.39 74.308c1.172-.108 2.344-.2 3.517-.278l.174 3.493c-1.142.074-2.282.162-3.42.268l-.27-3.482zm-1.448-74.5l.054-3.5c1.168 0 2.34.018 3.516.048l-.146 3.498c-1.14-.032-2.283-.046-3.424-.046zm-5.553 75.333c1.164-.17 2.332-.326 3.5-.466l.356 3.475c-1.137.134-2.274.287-3.407.453l-.45-3.462zm-1.434-78.64c1.17-.067 2.342-.113 3.518-.147l.046 3.5c-1.142.032-2.285.08-3.426.14l-.138-3.494zm-5.63 156.12l.23-4.126c1.397.08 2.788.186 4.178.306l-.338 4.123c-1.355-.12-2.712-.22-4.07-.304zm.1-76.26c1.156-.237 2.313-.453 3.475-.655l.546 3.444c-1.13.197-2.255.41-3.377.64l-.645-3.43zm-1.502-79.28c1.17-.13 2.34-.24 3.51-.338l.235 3.49c-1.142.093-2.28.2-3.416.326l-.33-3.478zm-5.392 80.883c1.143-.3 2.29-.58 3.436-.847l.735 3.405c-1.117.262-2.233.54-3.345.827l-.826-3.384zm-1.594-79.93c1.162-.19 2.327-.367 3.492-.526l.416 3.468c-1.135.155-2.268.327-3.4.513l-.508-3.454zm-5.21 81.902c1.128-.36 2.257-.703 3.388-1.033l.92 3.358c-1.104.322-2.206.658-3.3 1.007l-1.008-3.332zm-1.732-80.56c1.153-.26 2.306-.495 3.464-.717l.604 3.434c-1.125.218-2.247.45-3.365.698l-.704-3.416zm-4.967 82.904c1.104-.422 2.218-.83 3.334-1.22l1.09 3.307c-1.084.377-2.165.773-3.24 1.18l-1.185-3.268zm-1.9-81.185c1.14-.32 2.282-.62 3.422-.907l.794 3.393c-1.113.28-2.224.577-3.33.885l-.885-3.37zm-4.666 83.885c1.084-.48 2.17-.946 3.264-1.396l1.277 3.232c-1.067.442-2.126.894-3.18 1.36l-1.36-3.196zm-2.1-81.796c1.12-.38 2.243-.742 3.368-1.09l.98 3.34c-1.1.34-2.196.696-3.285 1.065l-1.064-3.316zm-2.786 87.974l-1.533-3.116c1.057-.538 2.12-1.063 3.19-1.572l1.448 3.156c-1.04.497-2.076 1.006-3.105 1.532zm-3.873-85.515c1.098-.44 2.204-.866 3.313-1.275l1.147 3.287c-1.077.396-2.152.81-3.22 1.236l-1.24-3.247zm-2.212 88.83l-1.702-3.02c1.03-.6 2.065-1.184 3.105-1.752l1.62 3.073c-1.015.553-2.023 1.122-3.022 1.7zm-4.306-86.016c1.075-.5 2.155-.983 3.24-1.452l1.333 3.21c-1.06.46-2.11.93-3.157 1.416l-1.416-3.173zm-1.594 89.666l-1.864-2.923c.994-.652 1.997-1.293 3.006-1.915l1.78 2.976c-.98.606-1.955 1.226-2.923 1.863zm-4.772-86.493c1.05-.557 2.102-1.1 3.164-1.628l1.503 3.13c-1.033.516-2.06 1.043-3.08 1.587l-1.586-3.09zm-.925 90.46l-2.022-2.814c.958-.706 1.924-1.397 2.9-2.077l1.95 2.863c-.95.665-1.894 1.338-2.828 2.027zm-5.267-86.943c1.02-.617 2.043-1.22 3.073-1.804l1.672 3.044c-1.004.57-2.002 1.156-2.99 1.75l-1.754-2.99zm-5.997 3.852c.984-.67 1.977-1.328 2.975-1.967l1.832 2.944c-.972.622-1.935 1.26-2.892 1.913l-1.914-2.89zm-5.784 4.175c.945-.72 1.9-1.43 2.865-2.126l1.998 2.83c-.94.68-1.87 1.37-2.79 2.074l-2.072-2.78zm-1.2 48.576l-2.134-2.725c.904-.727 1.8-1.462 2.686-2.212l2.205 2.673c-.908.768-1.827 1.522-2.756 2.265zm-4.36-44.078c.908-.775 1.826-1.538 2.75-2.285l2.146 2.72c-.9.723-1.79 1.464-2.673 2.22l-2.223-2.655zm-2.618 7.776l-2.242-2.64c.87-.756 1.735-1.53 2.59-2.318l2.317 2.572c-.878.808-1.767 1.605-2.665 2.386zm-7.61 1.788c.913-.715 1.818-1.438 2.714-2.177l2.17 2.7c-.918.757-1.846 1.5-2.785 2.23l-2.1-2.754zm-1.993-77.98l.072-3.51c1.172.014 2.344.044 3.515.09l-.17 3.504c-1.14-.043-2.28-.074-3.417-.084zM161.32 6.96l.728-3.597c1.214.244 2.43.503 3.64.785l-.832 3.573c-1.177-.27-2.356-.525-3.536-.76zm-5.634 60.853c1.168-.053 2.338-.09 3.51-.11l.015 3.51c-1.137.016-2.27.052-3.405.103l-.12-3.503zm-1.502-62.09l.53-3.628c1.226.178 2.454.37 3.676.582l-.632 3.613c-1.194-.205-2.386-.393-3.574-.567zm3.85 152.443c-.997.654-1.998 1.293-3.006 1.916l-1.782-2.98c.982-.607 1.958-1.23 2.925-1.86l1.863 2.924zm-7.544 86.923l-1.21-3.264c1.07-.416 2.135-.852 3.195-1.3l1.302 3.224c-1.09.462-2.186.91-3.287 1.34zm-1.8-176.775c1.165-.117 2.332-.218 3.5-.3l.205 3.5c-1.133.08-2.267.178-3.398.293l-.307-3.493zm-1.7-63.434l.336-3.65c1.234.113 2.467.24 3.7.38l-.432 3.643c-1.203-.14-2.407-.264-3.604-.372zm-3.17 242.615l-1.042-3.322c1.093-.36 2.18-.738 3.262-1.127l1.13 3.292c-1.115.403-2.23.786-3.35 1.157zm-2.727-83.77c1.043-.5 2.075-1.008 3.103-1.53l1.53 3.118c-1.055.54-2.116 1.063-3.184 1.57l-1.45-3.158zm.63-94.512c1.156-.18 2.313-.342 3.475-.493l.403 3.478c-1.132.147-2.26.307-3.387.482l-.49-3.467zm-1.96-64.773l.133-3.666c1.24.042 2.478.103 3.72.18l-.235 3.657c-1.204-.072-2.412-.13-3.616-.17zm-2.724 245.092l-.86-3.376c1.107-.3 2.212-.62 3.312-.948l.95 3.35c-1.132.343-2.268.666-3.403.974zm-2.254-83.013c1.062-.437 2.12-.89 3.173-1.356l1.356 3.2c-1.08.48-2.17.948-3.263 1.396l-1.267-3.24zm.023-96.037c1.142-.242 2.293-.47 3.448-.686l.585 3.452c-1.122.205-2.243.43-3.36.668l-.674-3.435zm-2.29-66.09l-.07-3.666c1.243-.024 2.49-.036 3.73-.023l-.04 3.663c-1.206-.01-2.413 0-3.62.027zm-4.557 67.746c1.132-.31 2.268-.6 3.41-.877l.774 3.412c-1.11.27-2.22.554-3.322.852l-.862-3.388zM125.01 1.09c1.238-.097 2.473-.175 3.718-.233l.17 3.66c-1.21.06-2.414.134-3.613.228l-.275-3.655zm-2.758 76.416l-1.045-3.332c1.117-.37 2.237-.723 3.364-1.063l.955 3.365c-1.097.33-2.188.672-3.273 1.03zm-4.624-75.65c1.223-.157 2.45-.303 3.686-.433l.374 3.647c-1.205.125-2.4.265-3.593.424l-.467-3.638zm1.378 76.77c-1.077.388-2.15.792-3.217 1.21l-1.218-3.273c1.097-.428 2.2-.844 3.306-1.242l1.128 3.305zm-8.71-75.6c1.213-.227 2.43-.44 3.654-.637l.577 3.618c-1.192.193-2.384.397-3.566.62l-.665-3.602zm2.31 78.107c-1.056.448-2.105.91-3.147 1.384l-1.398-3.194c1.074-.492 2.152-.965 3.238-1.423l1.305 3.233zm-4.238 93.04c1.128-.196 2.255-.41 3.377-.637l.636 3.434c-1.153.233-2.31.452-3.47.654l-.542-3.45zm2.904 37.485c-1.167.124-2.334.227-3.506.32l-.22-3.493c1.14-.088 2.28-.192 3.415-.31l.312 3.483zM103.027 4.594c1.208-.292 2.416-.575 3.632-.83l.753 3.582c-1.178.253-2.352.523-3.52.812l-.866-3.564zm3.317 79.396c-1.03.506-2.055 1.028-3.073 1.56l-1.565-3.112c1.047-.55 2.102-1.083 3.158-1.6l1.48 3.152zm-.91 94.19c-1.164.17-2.328.326-3.496.466l-.362-3.478c1.138-.136 2.27-.285 3.402-.452l.456 3.463zm-1.184 34.018c-1.167.057-2.34.098-3.514.127l-.028-3.502c1.14-.023 2.283-.067 3.423-.123l.12 3.498zM95.86 6.558c1.185-.355 2.376-.7 3.565-1.03l.97 3.536c-1.164.32-2.328.654-3.482 1.004l-1.054-3.51zm4.38 80.63c-1.004.56-2 1.138-2.99 1.725l-1.73-3.02c1.017-.605 2.04-1.194 3.068-1.77l1.652 3.064zm-10.72 2.5c.982-.66 1.975-1.308 2.975-1.94l1.805 2.976c-.97.612-1.936 1.24-2.892 1.88l-1.888-2.917zm-.72-80.77c1.167-.43 2.34-.84 3.52-1.23l1.144 3.484c-1.148.38-2.287.775-3.418 1.184L88.8 8.916zm-5.07 84.88c.948-.712 1.903-1.41 2.867-2.096l1.97 2.862c-.94.67-1.87 1.35-2.792 2.043L83.73 93.8zm-1.856-82.154c1.14-.486 2.29-.957 3.442-1.412l1.337 3.414c-1.126.44-2.243.9-3.355 1.372l-1.424-3.374zM80.36 100.92l-2.196-2.69c.91-.764 1.826-1.514 2.755-2.252l2.12 2.75c-.903.718-1.797 1.447-2.68 2.19zm-5.253-86.174c1.112-.543 2.233-1.076 3.36-1.596l1.527 3.33c-1.1.506-2.194 1.024-3.282 1.56l-1.605-3.294zm-6.6 3.473c1.084-.61 2.174-1.203 3.27-1.78l1.704 3.24c-1.07.564-2.132 1.14-3.187 1.73l-1.786-3.19zm4.17 89.714c-.82.812-1.63 1.636-2.43 2.474l-2.473-2.428c.822-.86 1.656-1.71 2.5-2.543l2.404 2.497zm-10.57-85.896c1.05-.663 2.107-1.312 3.172-1.955l1.88 3.146c-1.042.622-2.073 1.254-3.094 1.902l-1.958-3.094zm-6.184 4.16c1.01-.72 2.033-1.426 3.064-2.118l2.042 3.037c-1.004.677-2 1.364-2.99 2.067L55.924 26.2zm-5.955 4.498c.97-.773 1.954-1.535 2.943-2.287l2.215 2.916c-.97.736-1.925 1.476-2.874 2.233l-2.282-2.864zM44.26 35.51c.93-.83 1.873-1.648 2.83-2.452l2.35 2.81c-.924.774-1.835 1.565-2.737 2.374L44.26 35.51zm-5.432 5.127c.882-.88 1.775-1.746 2.682-2.598l2.51 2.66c-.88.832-1.75 1.676-2.61 2.53l-2.582-2.593zm-2.424 7.854l-2.725-2.443c.833-.93 1.68-1.84 2.534-2.743l2.657 2.52c-.832.878-1.657 1.766-2.466 2.667zm-4.72 5.54l-2.854-2.294c.783-.97 1.577-1.932 2.39-2.88l2.783 2.378c-.79.924-1.562 1.855-2.32 2.797zm-4.406 5.79l-2.976-2.136c.733-1.014 1.47-2.014 2.226-3.003l2.916 2.21c-.733.968-1.458 1.947-2.166 2.93zm-4.075 6.01l-3.09-1.962c.67-1.05 1.353-2.087 2.045-3.117l3.04 2.045c-.676 1.005-1.344 2.015-1.995 3.035zm-3.737 6.224l-3.193-1.79c.612-1.088 1.236-2.165 1.875-3.23l3.142 1.89c-.622 1.03-1.23 2.075-1.824 3.13zM16.08 78.46l-3.285-1.61c.547-1.118 1.114-2.228 1.697-3.327l3.24 1.715c-.565 1.06-1.114 2.137-1.65 3.22zm-2.722 6.523l-3.305-1.573c.538-1.127 1.09-2.245 1.662-3.355l3.256 1.67c-.556 1.083-1.09 2.166-1.612 3.258zm-2.95 6.65l-3.39-1.39c.48-1.155.968-2.3 1.474-3.435l3.347 1.475c-.49 1.11-.97 2.23-1.433 3.35zm-2.58 6.79l-3.46-1.194c.41-1.18.835-2.345 1.27-3.506l3.43 1.286c-.426 1.133-.842 2.27-1.24 3.413zm-2.203 6.92l-3.52-1.004c.346-1.2.705-2.393 1.08-3.575l3.493 1.11c-.367 1.148-.717 2.304-1.053 3.468zm-1.816 7.015l-3.57-.807c.275-1.213.57-2.423.884-3.627l3.547.92c-.302 1.162-.59 2.337-.86 3.515zm13.55 242.62l-4.108.443c-.155-1.388-.29-2.783-.41-4.174l4.116-.335c.115 1.358.252 2.712.403 4.068zm1.132 8.1l-4.075.67c-.233-1.38-.445-2.766-.64-4.15l4.094-.56c.19 1.348.395 2.697.622 4.04zm1.575 8.027l-4.034.89c-.306-1.368-.592-2.74-.862-4.114l4.055-.778c.263 1.337.543 2.672.842 4.003zm2.006 7.93l-3.977 1.113c-.38-1.35-.743-2.706-1.086-4.067l4.006-.995c.332 1.322.685 2.64 1.057 3.95zm2.436 7.825l-3.913 1.322c-.452-1.332-.888-2.664-1.303-4.006l3.946-1.21c.405 1.302.826 2.602 1.27 3.894zm2.86 7.678l-3.83 1.532c-.525-1.3-1.033-2.61-1.524-3.92l3.87-1.437c.48 1.28.973 2.555 1.485 3.825zm3.272 7.513l-3.738 1.744c-.598-1.273-1.18-2.553-1.737-3.844l3.788-1.63c.545 1.25 1.107 2.493 1.687 3.73zm3.69 7.33l-3.64 1.948c-.667-1.24-1.316-2.487-1.946-3.745l3.694-1.842c.612 1.223 1.243 2.434 1.892 3.64zm4.082 7.118l-3.52 2.15c-.736-1.203-1.456-2.414-2.154-3.633l3.584-2.047c.68 1.184 1.373 2.363 2.09 3.53zm4.464 6.88l-3.396 2.334c-.797-1.154-1.578-2.322-2.34-3.498l3.464-2.24c.743 1.142 1.498 2.278 2.272 3.403zm4.825 6.607l-3.266 2.523c-.856-1.114-1.702-2.235-2.528-3.367l3.333-2.425c.804 1.102 1.623 2.19 2.46 3.27zm5.183 6.342l-3.123 2.692c-.917-1.066-1.82-2.14-2.705-3.225l3.195-2.602c.862 1.056 1.74 2.098 2.633 3.134zm5.515 6.042l-2.964 2.862c-.98-1.01-1.936-2.036-2.878-3.07l3.042-2.78c.92 1.006 1.854 2.002 2.8 2.987zm5.842 5.74l-2.814 3.018c-1.028-.958-2.04-1.93-3.036-2.908l2.893-2.942c.97.957 1.957 1.898 2.957 2.833zm1.827-109.04c-1.14-.806-2.276-1.622-3.394-2.45l2.44-3.336c1.094.81 2.198 1.613 3.31 2.394l-2.357 3.39zm1.817-226.125c-.777.862-1.544 1.73-2.3 2.613l-2.602-2.287c.774-.902 1.56-1.793 2.36-2.676l2.542 2.35zm-4.526 5.288c-.727.895-1.445 1.805-2.15 2.73l-2.727-2.134c.726-.948 1.465-1.886 2.214-2.81l2.664 2.213zm-1.48 212.575l-2.537 3.262c-1.1-.87-2.19-1.746-3.263-2.647l2.63-3.177c1.045.87 2.1 1.725 3.17 2.562zm-2.743-207.06c-.68.93-1.342 1.875-1.996 2.832l-2.84-1.973c.672-.986 1.358-1.96 2.055-2.92l2.782 2.06zm-3.916 5.727c-.625.966-1.237 1.946-1.837 2.937L50.44 130.6c.618-1.022 1.248-2.03 1.892-3.028l2.89 1.903zm.386 196.118l-2.71 3.112c-1.046-.92-2.08-1.854-3.107-2.804l2.785-3.045c1 .925 2.01 1.842 3.03 2.738zM48.63 133.67l2.992 1.73c-.57 1.004-1.13 2.016-1.68 3.04l-3.04-1.645c.564-1.054 1.138-2.09 1.727-3.124zm21.748 319.85l-2.64 3.17c-1.08-.9-2.143-1.815-3.19-2.737l2.724-3.1c1.02.9 2.055 1.79 3.106 2.668zm6.415 5.077l-2.47 3.307c-1.116-.837-2.226-1.69-3.327-2.56l2.556-3.24c1.072.85 2.154 1.68 3.24 2.493zm6.68 4.72l-2.28 3.442c-1.165-.778-2.323-1.573-3.47-2.388l2.382-3.37c1.115.79 2.237 1.564 3.37 2.316zm6.054-115.253l-1.785 3.732c-1.253-.61-2.503-1.232-3.747-1.87l1.87-3.69c1.213.626 2.432 1.236 3.662 1.828zm.87 119.62l-2.088 3.554c-1.205-.712-2.405-1.44-3.59-2.19l2.187-3.496c1.16.728 2.324 1.438 3.49 2.13zM87.054 208.37c1.132.102 2.267.186 3.402.253l-.254 3.498c-1.167-.07-2.336-.157-3.503-.263l.356-3.486zm4.584 45.154c-1.166-.106-2.33-.228-3.494-.37l.46-3.473c1.128.136 2.26.254 3.392.355l-.358 3.49zm-2.29 25.622l-.933 4.028c-1.363-.325-2.72-.66-4.073-1.027l1.055-3.99c1.31.35 2.628.68 3.95.99zm-9.07-71.566c1.126.165 2.25.31 3.38.44l-.442 3.478c-1.16-.134-2.322-.285-3.48-.453l.542-3.465zm4.395 45.11c-1.156-.17-2.312-.354-3.465-.557l.647-3.448c1.12.2 2.24.38 3.364.543l-.546 3.463zm-4.378 95.26c-1.222-.675-2.44-1.367-3.643-2.074l2.078-3.578c1.174.693 2.356 1.365 3.547 2.023l-1.98 3.63zm.018-66.928c-1.336-.394-2.666-.805-3.998-1.234l1.25-3.938c1.296.418 2.597.825 3.9 1.208l-1.152 3.964zm-7.247 62.676c-1.19-.738-2.368-1.494-3.535-2.272l2.273-3.453c1.133.756 2.276 1.49 3.425 2.21l-2.163 3.515zm4.67-240.513c-.862.767-1.717 1.547-2.56 2.336l-2.337-2.558c.868-.817 1.745-1.618 2.63-2.406l2.268 2.63zm19.235 248.23l-1.568 3.82c-1.294-.537-2.574-1.092-3.847-1.663l1.67-3.783c1.24.557 2.49 1.098 3.745 1.624zm.58 120.244l-1.896 3.662c-1.24-.648-2.473-1.31-3.7-1.99l1.992-3.614c1.196.664 2.4 1.313 3.603 1.94zm-.934-186.784c-1.372-.25-2.745-.512-4.107-.792l.81-4.055c1.334.273 2.673.536 4.01.776l-.714 4.07zM93.87 208.78c1.14.036 2.28.06 3.42.066l-.068 3.5c-1.17-.007-2.337-.03-3.51-.068l.158-3.497zm1.534 41.516c1.14.07 2.278.127 3.418.17l-.175 3.496c-1.168-.043-2.335-.102-3.504-.175l.26-3.49zm9.184 104.05l-1.362 3.907c-1.314-.468-2.624-.955-3.932-1.45l1.46-3.876c1.277.492 2.55.966 3.834 1.42zm.317 120.885l-1.69 3.77c-1.275-.58-2.542-1.176-3.805-1.79l1.792-3.715c1.227.594 2.463 1.177 3.703 1.736zm-2.667-224.685c1.14.01 2.284 0 3.425-.02l.014 3.5c-1.168.02-2.34.028-3.516.02l.078-3.5zm-.88 30.92c1.345.21 2.69.395 4.035.563l-.485 4.1c-1.39-.168-2.776-.358-4.162-.572l.61-4.09zm11.086 196.93l-1.48 3.858c-1.305-.51-2.61-1.033-3.9-1.58l1.593-3.806c1.254.53 2.517 1.04 3.787 1.53zM107.2 359.6l1.254-3.94c1.296.418 2.594.822 3.903 1.21l-1.154 3.972c-1.338-.394-2.675-.81-4.003-1.242zm1.883-109.187c1.14-.054 2.284-.124 3.423-.207l.206 3.49c-1.17.09-2.34.158-3.514.215l-.115-3.497zm.375 32.06c1.355.134 2.71.245 4.068.34l-.274 4.126c-1.392-.097-2.787-.213-4.176-.347l.382-4.12zm5.646-109.665c1.117-.26 2.23-.532 3.338-.82l.827 3.387c-1.144.3-2.287.58-3.436.843l-.73-3.41zm3.162 37.92c-1.162.187-2.324.357-3.49.513l-.406-3.473c1.135-.15 2.267-.314 3.395-.495l.5 3.457zm1.878 270.42l-1.26 3.932c-1.332-.433-2.655-.883-3.977-1.36l1.372-3.89c1.285.456 2.573.898 3.864 1.317zm-4.895-119.174l1.026-4.01c1.324.348 2.642.68 3.97.994l-.932 4.033c-1.357-.32-2.713-.662-4.065-1.016zm.676-112.073c1.14-.115 2.275-.245 3.408-.392l.397 3.47c-1.166.152-2.333.287-3.503.407l-.3-3.484zm1.662 33.14c1.362.056 2.724.095 4.088.115l-.05 4.137c-1.394-.025-2.79-.063-4.186-.12l.148-4.133zm4.176-111.966c1.1-.32 2.2-.658 3.295-1.006l1.006 3.335c-1.126.362-2.256.704-3.386 1.032l-.916-3.36zm2.753 34.93l.68 3.426c-1.15.248-2.306.482-3.462.7l-.587-3.444c1.126-.21 2.25-.44 3.37-.68zm2.18 45.885c-1.157.213-2.318.412-3.48.593l-.484-3.46c1.132-.176 2.262-.37 3.388-.578l.577 3.444zm1.268 231.57l-1.052 3.998c-1.342-.362-2.684-.738-4.03-1.135l1.152-3.967c1.31.388 2.617.757 3.93 1.105zm-4.563-119.56l.837-4.057c1.327.28 2.658.537 4 .772l-.706 4.083c-1.38-.246-2.758-.51-4.132-.8zm2.354-80.738c1.36-.018 2.72-.053 4.08-.104l.183 4.127c-1.4.058-2.795.094-4.19.112l-.074-4.135zm6.307-75.416c-1.138.315-2.278.608-3.423.888l-.774-3.4c1.113-.274 2.223-.562 3.327-.865l.87 3.376zm.69-36.68c-1.106.42-2.215.824-3.326 1.215l-1.1-3.302c1.085-.38 2.167-.776 3.242-1.185l1.184 3.274zm.09 75.946l.77 3.4c-1.15.282-2.297.54-3.45.785l-.67-3.422c1.12-.24 2.237-.494 3.35-.763zm3.047 238.34l-.828 4.043c-1.364-.286-2.723-.59-4.084-.91l.928-4.024c1.326.313 2.656.614 3.984.89zm-4.21-119.977l.596-4.093c1.344.2 2.696.384 4.048.55l-.487 4.11c-1.39-.17-2.775-.356-4.158-.567zm7.155-159.688c-1.12.376-2.247.733-3.372 1.075l-.96-3.35c1.097-.334 2.192-.685 3.282-1.047l1.05 3.322zm-.45 80.94c-1.39.13-2.782.24-4.177.34l-.303-4.13c1.364-.092 2.72-.198 4.075-.327l.405 4.117zm5.53 200.17l-.605 4.09c-1.385-.214-2.765-.44-4.142-.695l.73-4.063c1.335.24 2.674.466 4.018.668zm-3.537-124.522c1.354.126 2.71.238 4.07.33l-.255 4.13c-1.4-.09-2.794-.205-4.184-.335l.368-4.125zm3.887-162.268l1.227 3.257c-1.1.435-2.205.853-3.31 1.258l-1.144-3.29c1.08-.394 2.157-.804 3.227-1.225zm2.444 85.608c-1.38.207-2.768.394-4.154.56l-.518-4.103c1.35-.166 2.7-.346 4.05-.547l.62 4.09zm5.262-123.707c-1.027.596-2.06 1.177-3.1 1.744l-1.617-3.074c1.013-.553 2.02-1.117 3.018-1.698l1.7 3.028zm.036 325.902l-.386 4.114c-1.388-.14-2.777-.29-4.157-.46l.484-4.106c1.35.166 2.705.32 4.058.452zm-1.388-290.514l1.4 3.182c-1.075.494-2.16.975-3.246 1.438l-1.308-3.225c1.056-.448 2.108-.916 3.154-1.394zm-2.083 165.523c1.366.056 2.723.09 4.08.105l-.032 4.143c-1.402-.017-2.803-.05-4.205-.11l.157-4.14zm1.566-81.95c1.347-.244 2.682-.5 4.02-.773l.848 4.052c-1.365.28-2.74.54-4.115.79l-.752-4.07zm6.716-86.625l1.57 3.1c-1.05.552-2.103 1.088-3.164 1.61l-1.49-3.14c1.036-.512 2.062-1.034 3.083-1.57zm3.42 46.565c-1.066.52-2.136 1.025-3.212 1.515l-1.394-3.183c1.05-.48 2.092-.97 3.128-1.477l1.477 3.145zm-.098 247.568l-.154 4.126c-1.4-.055-2.796-.133-4.195-.234l.28-4.127c1.36.1 2.715.175 4.07.235zm-2.026-209.16c1.322-.305 2.638-.634 3.954-.985l1.075 4.002c-1.355.357-2.717.697-4.084 1.015l-.944-4.032zm.93-125.922c.948-.658 1.887-1.33 2.82-2.018l2.02 2.82c-.96.703-1.927 1.398-2.9 2.073l-1.94-2.874zm2.467 42.346l-1.656-3.053c1.006-.566 2.005-1.143 2.996-1.737l1.738 3.006c-1.018.607-2.043 1.202-3.077 1.782zm3.383 38.815l1.646 3.057c-1.037.577-2.08 1.14-3.13 1.69l-1.563-3.103c1.02-.533 2.037-1.08 3.046-1.643zm3.416 254.05l.058 4.134c-1.395.017-2.795.014-4.19-.008l.05-4.138c1.36.024 2.72.026 4.082.013zm-2.3-211.37c1.303-.385 2.606-.787 3.903-1.205l1.285 3.934c-1.33.43-2.667.845-4.01 1.237l-1.178-3.965zm10.732 215.18c-1.39.09-2.785.162-4.18.22l-.185-4.133c1.36-.053 2.72-.123 4.083-.214l.28 4.128zm-1.567-213.793l-1.398-3.9c1.28-.454 2.56-.924 3.828-1.415l1.506 3.856c-1.31.508-2.62.99-3.937 1.458zm3.41-48.615c-.97.686-1.95 1.364-2.935 2.022l-1.89-2.907c.96-.642 1.91-1.298 2.855-1.97l1.97 2.854zm-2.185-44.016c-.95.717-1.908 1.424-2.873 2.11l-1.977-2.848c.94-.67 1.87-1.354 2.794-2.054l2.055 2.792zm-10.6 3.142c.976-.62 1.944-1.253 2.902-1.897l1.9 2.9c-.988.666-1.98 1.318-2.98 1.954l-1.82-2.958zm6.864 44.84c-1.006.638-2.02 1.26-3.037 1.865l-1.73-3.01c.99-.59 1.978-1.195 2.955-1.81l1.81 2.957zm11.624-8.255c-.93.74-1.872 1.467-2.823 2.182l-2.052-2.79c.925-.7 1.843-1.408 2.75-2.13l2.125 2.74zm.812 265.916c-1.39.17-2.777.318-4.166.45l-.406-4.117c1.355-.128 2.708-.272 4.06-.433l.512 4.1zm-3.692-219.853c1.263-.525 2.508-1.065 3.747-1.623l1.71 3.772c-1.28.575-2.564 1.134-3.86 1.67l-1.597-3.82zm.983-95.206c.86-.766 1.714-1.55 2.56-2.35l2.35 2.54c-.868.82-1.747 1.63-2.634 2.42l-2.277-2.61zm5.095 41.927l2.273 2.612c-.89.792-1.794 1.574-2.705 2.34l-2.196-2.68c.882-.74 1.76-1.498 2.628-2.272zm2.32-2.778c.92-.76 1.85-1.507 2.788-2.238l2.098 2.757c-.91.708-1.815 1.433-2.71 2.174l-2.177-2.694zm3.43 51.158l1.21 3.96c-1.31.395-2.602.81-3.89 1.24l-1.327-3.923c1.33-.444 2.665-.873 4.01-1.276zm9.095 1.792c-1.32.326-2.64.666-3.95 1.028l-1.116-3.988c1.353-.374 2.707-.724 4.063-1.058l1.003 4.018zm7.978-1.725c-1.334.254-2.67.524-4.002.812l-.888-4.043c1.367-.297 2.74-.576 4.114-.832l.777 4.063zm8.065-1.28c-1.346.17-2.688.366-4.032.584l-.672-4.088c1.385-.22 2.774-.424 4.166-.603l.54 4.106zm8.137-.845c-1.364.108-2.718.228-4.076.367l-.44-4.116c1.386-.143 2.78-.265 4.173-.375l.342 4.125zm8.145-.392c-1.36.03-2.72.075-4.084.14l-.21-4.132c1.39-.067 2.79-.114 4.186-.142l.107 4.135zm8.278-4.09l-.11 4.14c-1.366-.045-2.726-.074-4.087-.08l.007-4.14c1.395.01 2.79.04 4.19.08zm16.705 1.468l-.56 4.1c-1.348-.193-2.7-.368-4.055-.524l.462-4.11c1.384.162 2.77.34 4.153.535zm8.265 1.412l-.79 4.062c-1.335-.27-2.673-.515-4.014-.746l.684-4.077c1.375.235 2.752.49 4.12.762z"/></symbol><symbol id="icon-logo"><path fill="rgb( 255, 255, 255 )" d="M1.118 140.98v-2.24H133v2.24H1.118zm128.528-10.07l-.627-.095-.075-.02-22.86-3.378-.36-.53L68.577 72.25l-30.11 52.874-25.027 4.083-.32-.38L0 113.427v-97.88l.35-.263L20.758 0l1.145.855 19.24 14.552v26.058l10.063-17.613 24.417-6.177 14.89 21.717V15.836l19.572-14.69 19.563 14.69v112.63-.002 2.446zm-21.863-6.198l18.276 2.805-48.826-70.465-7.21 12.66 37.76 55zM38.216 16.872l-16.58-12.42V75.6l16.58-29.018V16.872zm14.91 9.516L18.71 86.618V5.19L2.926 17.013v95.333l10.848 12.737 58.27-103.48-18.917 4.784zm56.04-20.91L93.435 17.3v26.358l15.73 22.94V5.477zM126.72 17.3L112.09 6.314V76.04L75.116 22.11 16.788 125.693l19.83-3.233 40.376-70.896 49.728 71.772V17.3zM6.635 150.295c.48.16.844.375 1.087.646.44.508.66 1.08.66 1.717 0 .77-.248 1.34-.744 1.716-.168.13-.285.214-.35.247-.066.032-.183.086-.35.16.606.13 1.09.406 1.45.824.36.418.54.934.54 1.554 0 .685-.234 1.29-.7 1.813-.543.61-1.488.916-2.834.916h-4.29v-9.83h3.813c.664 0 1.237.08 1.718.24zM3.29 158.03h1.502c.625 0 1.096-.078 1.408-.233.314-.154.47-.46.47-.914s-.165-.754-.497-.9c-.332-.144-.863-.218-1.592-.218H3.29v2.265zm0-6.118v2.123H4.33c.608 0 1.06-.065 1.354-.197.294-.13.442-.414.442-.85s-.136-.724-.407-.865c-.27-.14-.73-.21-1.374-.21H3.29zm18.05.1h-4.88v2.023h4.39v1.87h-4.39v2.04h5.034v1.94H14.27v-9.83h7.07v1.956zm9.143 6.046c.4 0 .717-.088.946-.26.228-.175.343-.408.343-.704 0-.295-.122-.53-.365-.702-.243-.174-.725-.35-1.444-.528-1.14-.272-1.976-.626-2.504-1.062-.528-.436-.792-1.12-.792-2.054 0-.932.334-1.652 1.003-2.16.67-.504 1.503-.757 2.504-.757.654 0 1.31.114 1.963.338.654.225 1.225.544 1.71.956l-1.107 1.604c-.85-.647-1.73-.97-2.636-.97-.365 0-.653.086-.863.26-.21.173-.314.403-.314.688 0 .287.128.514.386.683.257.168.85.367 1.78.596.93.23 1.653.574 2.167 1.034.513.46.77 1.13.77 2.01 0 .882-.33 1.597-.988 2.146-.66.547-1.527.823-2.602.823-1.552 0-2.95-.58-4.192-1.732l1.303-1.602c1.058.927 2.035 1.392 2.933 1.392zm15.846-6.103h-2.777v7.93h-2.188v-7.93h-2.777v-1.9h7.74v1.9zm15.37 3.754l1.738-5.655h2.286l1.725 5.654 1.948-5.655h2.37l-3.422 9.83H66.72l-2.146-6.834-2.132 6.836h-1.626l-3.422-9.83h2.37l1.935 5.653zm19.815-5.655l4.235 9.83h-2.328l-.912-2.123H78.4l-.91 2.124h-2.328l4.235-9.83h2.118zm.168 5.78l-1.22-2.854-1.234 2.855h2.453zm10.896 2.096h4.178v1.956H90.39v-9.83h2.19v7.875zm11.47 0h4.18v1.956h-6.368v-9.83h2.188v7.875zm16.352-5.92h-4.88v2.025h4.39v1.87h-4.39v2.04h5.034v1.94h-7.222v-9.83h7.068v1.956zm12.537-.055h-2.778v7.93h-2.188v-7.93h-2.777v-1.9h7.742v1.9z"/></symbol><symbol id="icon-lones-from"><path opacity=".22" fill="rgb( 18, 109, 128 )" d="M317.355 289.908l-4.13-.2c.066-1.4.158-2.797.27-4.193l4.13.332c-.11 1.346-.2 2.703-.27 4.06zm-.88 8.877l-4.066-.79c.258-1.326.496-2.664.72-4.006l4.08.66c-.22 1.383-.467 2.76-.734 4.135zm-1.81 8.177l-4.018-1.007c.33-1.314.643-2.636.938-3.966l4.042.886c-.303 1.37-.623 2.732-.962 4.086zm-2.26 8.073l-3.96-1.21c.4-1.3.787-2.606 1.155-3.916l3.986 1.103c-.376 1.35-.773 2.688-1.18 4.022zm-2.72 7.96l-3.88-1.427c.472-1.282.933-2.57 1.373-3.86l3.922 1.33c-.457 1.33-.926 2.647-1.415 3.957zm-3.15 7.802l-3.79-1.652c.55-1.254 1.074-2.507 1.583-3.768l3.84 1.54c-.525 1.3-1.066 2.595-1.633 3.88zm-3.565 7.605l-3.702-1.845c.61-1.217 1.208-2.443 1.786-3.676l3.752 1.742c-.595 1.274-1.21 2.53-1.836 3.78zm-3.986 7.396l-3.59-2.048c.676-1.18 1.34-2.373 1.985-3.574l3.646 1.95c-.663 1.234-1.342 2.46-2.042 3.672zm-4.385 7.182l-3.47-2.257c.744-1.136 1.468-2.285 2.175-3.45l3.54 2.144c-.73 1.197-1.48 2.386-2.246 3.563zm-4.76 6.904l-3.355-2.42c.805-1.107 1.593-2.215 2.37-3.34l3.41 2.338c-.79 1.15-1.604 2.29-2.425 3.422zm-5.137 6.642l-3.21-2.604c.86-1.056 1.71-2.12 2.547-3.2l3.274 2.523c-.853 1.104-1.726 2.2-2.61 3.28zm-5.482 6.356l-3.07-2.774c.92-1.01 1.826-2.027 2.715-3.058l3.137 2.692c-.913 1.055-1.843 2.1-2.78 3.14zm-5.82 6.04l-2.91-2.934c.97-.955 1.928-1.922 2.874-2.9l2.983 2.852c-.97 1.012-1.952 2.003-2.947 2.983zm-8.893 2.637c1.023-.905 2.033-1.82 3.03-2.75l2.823 3.022c-1.023.947-2.057 1.886-3.104 2.814l-2.75-3.087zm-1.384-265.196l3.997-1.052c.36 1.35.7 2.71 1.027 4.067l-4.02.945c-.316-1.325-.653-2.643-1.004-3.96zm-2.324-7.84l3.928-1.27c.435 1.33.852 2.666 1.25 4.008l-3.964 1.165c-.387-1.306-.792-2.61-1.215-3.904zm-2.755-7.703l3.857-1.48c.506 1.306.993 2.62 1.464 3.938l-3.892 1.376c-.46-1.283-.935-2.562-1.43-3.833zm-3.164-7.54l3.767-1.695c.578 1.278 1.138 2.565 1.68 3.86l-3.813 1.582c-.526-1.258-1.07-2.506-1.633-3.748zm-3.574-7.374l3.67-1.89c.647 1.248 1.276 2.5 1.887 3.765l-3.722 1.787c-.594-1.227-1.203-2.45-1.834-3.66zm-3.974-7.165l3.56-2.086c.713 1.208 1.41 2.426 2.09 3.648l-3.613 2c-.665-1.194-1.342-2.38-2.038-3.56zm-4.354-6.938l3.437-2.283c.782 1.168 1.547 2.347 2.29 3.54l-3.502 2.178c-.725-1.153-1.466-2.3-2.225-3.436zm-4.74-6.697l3.31-2.47c.844 1.127 1.67 2.263 2.48 3.412l-3.377 2.373c-.786-1.117-1.59-2.22-2.412-3.315zm-5.096-6.428l3.162-2.652c.905 1.08 1.797 2.17 2.67 3.27l-3.24 2.56c-.848-1.07-1.71-2.132-2.592-3.178zm-5.44-6.136l3.01-2.815c.96 1.022 1.908 2.06 2.835 3.11l-3.09 2.73c-.905-1.017-1.82-2.027-2.754-3.024zm-5.755-5.812l2.855-2.983c1.012.974 2.015 1.956 3 2.95l-2.935 2.9c-.958-.972-1.93-1.925-2.92-2.867zm-6.07-5.497l2.69-3.128c1.064.916 2.117 1.844 3.154 2.785l-2.772 3.05c-1.01-.916-2.032-1.816-3.07-2.706zm-5.698 66.854l1.644-3.786c1.292.556 2.573 1.128 3.846 1.725l-1.758 3.735c-1.235-.575-2.48-1.133-3.733-1.674zm-.655-72.004l2.505-3.274c1.118.854 2.218 1.724 3.303 2.605l-2.594 3.204c-1.06-.856-2.132-1.7-3.215-2.534zm-5.004 120.705c1.366-.334 2.734-.65 4.11-.94l.842 4.04c-1.33.286-2.66.59-3.987.915l-.964-4.015zm-1.626-125.51l2.333-3.403c1.16.793 2.304 1.602 3.435 2.42l-2.422 3.342c-1.1-.8-2.218-1.584-3.346-2.36zm-6.873-4.433l2.14-3.528c1.2.73 2.388 1.474 3.562 2.23l-2.233 3.472c-1.143-.736-2.3-1.463-3.47-2.174zm-3.375 393.89l-.736-4.062c1.345-.24 2.688-.5 4.017-.774l.84 4.04c-1.37.28-2.744.547-4.122.796zM188.92 22.78l1.952-3.64c1.228.662 2.452 1.34 3.67 2.038l-2.045 3.583c-1.186-.678-2.38-1.337-3.576-1.98zm4.75 141.427c-1.292.433-2.584.88-3.868 1.35l-1.405-3.88c1.322-.484 2.65-.95 3.982-1.393l1.29 3.923zm-9.336 257.78l-.51-4.096c1.36-.168 2.71-.354 4.05-.555l.623 4.078c-1.382.21-2.773.403-4.163.573zM181.612 19.11l1.744-3.744c1.266.596 2.53 1.208 3.785 1.843l-1.852 3.687c-1.22-.614-2.445-1.213-3.676-1.787zm4.35 147.91c-1.264.5-2.525 1.017-3.78 1.553l-1.61-3.796c1.287-.554 2.585-1.088 3.887-1.6l1.503 3.842zm-10.28 251.645c1.36-.092 2.72-.2 4.072-.334l.4 4.11c-1.393.134-2.79.25-4.194.344l-.28-4.12zM174.114 15.83L175.65 12c1.298.525 2.593 1.066 3.876 1.63l-1.642 3.784c-1.255-.546-2.512-1.075-3.77-1.585zm4.33 154.402c-1.238.57-2.466 1.157-3.688 1.765l-1.822-3.708c1.26-.62 2.526-1.226 3.798-1.813l1.712 3.755zm-10.934 248.78c1.368-.02 2.73-.06 4.086-.117l.17 4.126c-1.393.058-2.79.1-4.194.118l-.06-4.126zm3.6-245.15c-1.204.636-2.4 1.29-3.59 1.96l-2.015-3.6c1.224-.687 2.456-1.36 3.693-2.012l1.912 3.652zm-4.658-160.898l1.327-3.904c1.323.455 2.64.926 3.955 1.414l-1.43 3.872c-1.283-.478-2.57-.94-3.853-1.382zm-8.155 163.594c1.184-.76 2.378-1.495 3.576-2.215l2.116 3.538c-1.166.703-2.327 1.423-3.48 2.156l-2.213-3.478zm.35-166.026l1.108-3.98c1.348.382 2.69.783 4.03 1.2l-1.22 3.943c-1.3-.405-2.61-.796-3.92-1.163zm-7.31 170.736c1.142-.818 2.293-1.62 3.45-2.402l2.304 3.423c-1.128.76-2.245 1.543-3.358 2.34l-2.395-3.362zm-.617-172.74l.888-4.035c1.367.31 2.736.63 4.093.98l-1.008 4c-1.318-.334-2.644-.65-3.972-.945zm-6.08 177.828c1.096-.88 2.202-1.742 3.313-2.588l2.493 3.29c-1.083.823-2.16 1.66-3.228 2.518l-2.578-3.22zm-1.944-179.4l.66-4.075c1.382.23 2.757.477 4.136.75l-.777 4.053c-1.34-.26-2.68-.504-4.02-.726zm-1.72 187.908l-2.747-3.082c1.04-.928 2.095-1.848 3.167-2.755l2.662 3.152c-1.045.883-2.072 1.78-3.085 2.684zM134.617 5.838l.445-4.11c1.38.158 2.764.33 4.154.52l-.55 4.095c-1.353-.188-2.7-.357-4.05-.505zm4.396 410.908l-.723 4.063c-1.382-.247-2.76-.51-4.13-.79l.836-4.04c1.334.275 2.672.53 4.018.766zm-13.043 1.37l1.056-3.99c1.32.348 2.64.674 3.97.98l-.942 4.023c-1.366-.324-2.728-.658-4.083-1.013zm.53-412.963l.217-4.123c1.39.08 2.78.175 4.174.29l-.318 4.117c-1.357-.11-2.717-.208-4.072-.284zm-8.593 410.607l1.273-3.927c1.296.416 2.598.82 3.907 1.202l-1.16 3.958c-1.346-.39-2.688-.803-4.02-1.233zm.442-410.84l-.01-4.134c1.4.005 2.798.022 4.198.07l-.116 4.125c-1.357-.038-2.715-.06-4.073-.06zm-8.397 408.042l1.488-3.853c1.274.487 2.556.963 3.848 1.414l-1.375 3.893c-1.328-.467-2.65-.95-3.96-1.455zm.012-411.96c1.393-.07 2.79-.127 4.18-.166l.132 4.133c-1.36.037-2.723.087-4.08.16l-.232-4.127zm-7.795 408.724l1.702-3.764c1.245.56 2.498 1.1 3.76 1.624l-1.592 3.812c-1.3-.54-2.59-1.096-3.87-1.672zM101.607 1.68c1.392-.156 2.784-.287 4.182-.396l.336 4.122c-1.358.105-2.71.233-4.058.375l-.46-4.1zM94.58 406.07l1.908-3.66c1.21.626 2.432 1.234 3.662 1.827l-1.798 3.715c-1.268-.608-2.525-1.233-3.772-1.88zM93.298 2.797c1.377-.225 2.762-.43 4.145-.618l.567 4.1c-1.35.18-2.695.38-4.04.596L93.3 2.796zm-6.08 399.22l2.095-3.562c1.178.69 2.365 1.366 3.563 2.027l-2.005 3.61c-1.225-.675-2.444-1.368-3.65-2.074zM85.066 4.366c1.362-.295 2.73-.576 4.102-.84l.798 4.057c-1.34.256-2.674.53-4.006.822l-.895-4.04zm-1.45 395.47c-1.19-.746-2.368-1.504-3.537-2.28l2.296-3.435c1.136.755 2.282 1.496 3.44 2.217l-2.2 3.5zM76.917 6.386c1.35-.376 2.7-.73 4.053-1.066l1.015 4.01c-1.32.328-2.638.672-3.95 1.033l-1.118-3.976zM76.61 395.19c-1.148-.807-2.284-1.63-3.408-2.468l2.478-3.305c1.09.815 2.195 1.613 3.31 2.394l-2.38 3.38zM68.9 8.84c1.322-.443 2.653-.87 3.99-1.286l1.235 3.952c-1.308.402-2.603.815-3.893 1.25L68.9 8.842zm3.534 378.09l-2.567 3.24c-1.1-.867-2.187-1.75-3.262-2.645l2.652-3.167c1.046.87 2.106 1.728 3.177 2.57zM61.024 11.727c1.297-.516 2.605-1.014 3.917-1.493l1.44 3.876c-1.277.472-2.55.955-3.818 1.458l-1.537-3.84zm5.126 369.975l-2.737 3.096c-1.05-.924-2.09-1.863-3.114-2.814l2.82-3.023c.997.926 2.007 1.842 3.03 2.74zM54.308 376.1l2.98-2.86c.945.98 1.905 1.942 2.877 2.898l-2.906 2.942c-.998-.98-1.982-1.975-2.952-2.98zm-.992-361.056c1.265-.585 2.544-1.153 3.826-1.71l1.66 3.79c-1.256.546-2.498 1.1-3.737 1.67l-1.75-3.75zm-7.523 3.73c1.238-.656 2.486-1.298 3.745-1.92l1.84 3.71c-1.22.6-2.425 1.22-3.626 1.86l-1.96-3.65zm-7.303 4.148c1.198-.724 2.405-1.432 3.623-2.12l2.05 3.59c-1.18.674-2.358 1.363-3.525 2.067L38.49 22.92zm-7.067 4.535c1.16-.794 2.327-1.563 3.5-2.32l2.25 3.476c-1.143.737-2.28 1.487-3.405 2.254l-2.345-3.41zm-6.81 4.92c1.113-.852 2.237-1.69 3.377-2.51l2.425 3.356c-1.11.8-2.2 1.61-3.28 2.436l-2.523-3.283zm-6.528 5.29c1.07-.913 2.143-1.808 3.23-2.686l2.615 3.206c-1.058.862-2.11 1.738-3.145 2.623l-2.7-3.143zm-6.217 5.64c1.01-.97 2.03-1.92 3.06-2.86l2.796 3.06c-1.006.915-2.004 1.842-2.986 2.783l-2.87-2.982zm-5.892 5.966c.957-1.025 1.924-2.035 2.904-3.028l2.948 2.914c-.954.962-1.893 1.942-2.823 2.936l-3.03-2.823zM3.61 58.196l-3.178-2.65c.894-1.076 1.806-2.137 2.734-3.184l3.1 2.752c-.897 1.01-1.782 2.04-2.655 3.082zM147.1 417.944l-.492 4.094c-1.397-.165-2.785-.354-4.168-.56l.606-4.08c1.347.2 2.7.38 4.055.546zm8.15.757l-.278 4.12c-1.4-.093-2.798-.205-4.188-.334l.388-4.11c1.354.128 2.714.233 4.08.325zm8.17.315l-.048 4.128c-1.405-.017-2.805-.053-4.2-.105l.157-4.127c1.358.053 2.722.09 4.09.105zm37.026-261.175l1.07 3.992c-1.318.357-2.628.736-3.937 1.134l-1.185-3.96c1.346-.407 2.696-.797 4.05-1.166zm4.504 260.164c-1.354.36-2.712.697-4.08 1.02l-.953-4.014c1.326-.315 2.652-.645 3.966-.996l1.067 3.99zm8.06-2.378c-1.334.43-2.675.85-4.022 1.24l-1.164-3.956c1.306-.383 2.607-.786 3.9-1.21l1.287 3.926zm3.877-261.326l.64 4.084c-1.348.217-2.694.448-4.04.698l-.738-4.066c1.377-.255 2.758-.494 4.137-.716zm4.047 258.51c-1.306.507-2.616.994-3.942 1.462l-1.39-3.885c1.285-.46 2.563-.93 3.828-1.423l1.504 3.845zm-1.478-304.96c1.253.625 2.5 1.268 3.734 1.923l-1.947 3.646c-1.205-.642-2.418-1.27-3.643-1.88l1.856-3.69zm6.18 49.475c-1.357.14-2.712.294-4.065.472l-.516-4.1c1.393-.18 2.784-.344 4.18-.485l.4 4.113zm3.023 252.252c-1.27.568-2.548 1.125-3.842 1.668l-1.608-3.804c1.26-.527 2.506-1.067 3.743-1.628l1.706 3.765zm-3.835-294.187l2.055-3.586c1.22.697 2.428 1.406 3.627 2.135l-2.154 3.524c-1.166-.707-2.34-1.4-3.528-2.074zm8.964 41.317c-1.36.064-2.72.15-4.077.253l-.3-4.123c1.398-.107 2.798-.193 4.197-.26l.18 4.13zm-1.962-37.074l2.24-3.472c1.18.76 2.35 1.535 3.507 2.326l-2.34 3.404c-1.125-.77-2.26-1.522-3.407-2.257zm4.37 286.292c-1.237.64-2.482 1.266-3.74 1.878l-1.818-3.707c1.224-.597 2.445-1.205 3.65-1.83l1.908 3.66zm5.76-249.39c-1.36-.008-2.723.002-4.084.03l-.07-4.135c1.4-.028 2.8-.036 4.197-.028l-.04 4.133zm-3.38-32.294l2.433-3.342c1.135.82 2.258 1.658 3.368 2.508l-2.52 3.274c-1.082-.827-2.175-1.64-3.28-2.44zm4.957 277.627c-1.21.71-2.42 1.407-3.65 2.08l-1.997-3.612c1.188-.657 2.368-1.33 3.537-2.022l2.11 3.554zm7.098-4.454c-1.164.77-2.336 1.532-3.513 2.273l-2.215-3.49c1.152-.725 2.3-1.463 3.432-2.216l2.296 3.433zm-.512-240.606c-1.356-.083-2.717-.148-4.077-.193l.154-4.13c1.397.044 2.795.11 4.19.194l-.266 4.13zm-2.44-30.805c1.086.88 2.163 1.775 3.225 2.683l-2.695 3.136c-1.034-.884-2.08-1.757-3.14-2.613l2.61-3.205zm9.452 8.318l-2.86 2.98c-.986-.94-1.984-1.862-2.995-2.777l2.784-3.06c1.037.94 2.06 1.893 3.072 2.857zm.353 258.253c-1.12.842-2.25 1.665-3.4 2.47l-2.385-3.377c1.116-.78 2.216-1.58 3.303-2.39l2.482 3.297zm-2.907-239.58c1.39.124 2.782.268 4.168.427l-.49 4.105c-1.352-.156-2.704-.29-4.06-.41l.382-4.122zm9.492 234.386c-1.07.893-2.158 1.776-3.254 2.642l-2.57-3.24c1.07-.842 2.125-1.7 3.172-2.572l2.652 3.17z"/></symbol></svg>